<?xml version="1.0" encoding="utf-8"?>
<!-- Generator: Adobe Illustrator 24.0.2, SVG Export Plug-In . SVG Version: 6.00 Build 0)  -->
<svg version="1.1" id="Layer_1" xmlns="http://www.w3.org/2000/svg" xmlns:xlink="http://www.w3.org/1999/xlink" x="0px" y="0px"
	 viewBox="0 0 160 160" style="enable-background:new 0 0 160 160;" xml:space="preserve">
<style type="text/css">
	.st0{fill:#B026CF;}
	.st1{fill:#FFFFFF;}
</style>
<path class="st0" d="M80,160c44.2,0,80-35.8,80-80S124.2,0,80,0S0,35.8,0,80S35.8,160,80,160z"/>
<g>
	<path class="st1" d="M80,46c11.6,0,21.1-5.5,21.1-12.3S91.6,21.5,80,21.5S58.9,27,58.9,33.8S68.4,46,80,46z"/>
	<path class="st1" d="M80,138.5c11.6,0,21.1-5.5,21.1-12.3S91.6,114,80,114s-21.1,5.5-21.1,12.3S68.4,138.5,80,138.5z"/>
	<path class="st1" d="M50.6,63c5.8-10.1,5.8-21-0.1-24.4s-15.4,2-21.2,12.1s-5.8,21,0.1,24.4C35.3,78.6,44.8,73.1,50.6,63z"/>
	<path class="st1" d="M130.6,109.2c5.8-10.1,5.8-21-0.1-24.4c-5.9-3.4-15.3,2-21.2,12.1c-5.8,10.1-5.8,21,0.1,24.4
		S124.8,119.3,130.6,109.2z"/>
	<path class="st1" d="M50.5,121.4c5.9-3.4,5.9-14.3,0.1-24.4S35.3,81.5,29.4,84.9s-5.9,14.3-0.1,24.4
		C35.1,119.3,44.6,124.8,50.5,121.4z"/>
	<path class="st1" d="M130.6,75.2c5.9-3.4,5.9-14.3,0.1-24.4c-5.8-10.1-15.3-15.5-21.2-12.1c-5.9,3.4-5.9,14.3-0.1,24.4
		C115.2,73.1,124.7,78.5,130.6,75.2z"/>
</g>
<g>
	<path class="st1" d="M80,64.5c0,0-3.4,7-19.4,21.3L80,64.5z"/>
	<path class="st1" d="M80,70.9c0,0-2.8,9.2-20.9,17.5L80,70.9z"/>
	<path class="st1" d="M80,77.4c0,0-2.3,9.6-22.4,13.7L80,77.4z"/>
	<path class="st1" d="M80,83.9c0,0-1.8,10.1-24,10.1L80,83.9z"/>
	<path class="st1" d="M80,58c0,0-3.9,8.2-17.9,25L80,58c0.1,0,3.9,8.2,17.9,25L80,58z"/>
	<path class="st1" d="M80,64.5c0,0,3.4,7,19.4,21.3L80,64.5z"/>
	<path class="st1" d="M80,70.9c0,0,2.8,9.2,20.9,17.5L80,70.9z"/>
	<path class="st1" d="M80,77.4c0,0,2.3,9.6,22.4,13.7L80,77.4z"/>
	<path class="st1" d="M80,83.9c0,0,1.8,10.1,24,10.1L80,83.9z"/>
</g>
</svg>
