<?xml version="1.0" encoding="UTF-8"?>
<svg version="1.1" xmlns="http://www.w3.org/2000/svg" width="788" height="790">
<path d="M0 0 C260.04 0 520.08 0 788 0 C788 260.7 788 521.4 788 790 C527.96 790 267.92 790 0 790 C0 529.3 0 268.6 0 0 Z " fill="#000000" transform="translate(0,0)"/>
<path d="M0 0 C17.46750235 0 17.46750235 0 25.9375 1.6875 C26.87062012 1.86611572 27.80374023 2.04473145 28.76513672 2.22875977 C71.3226227 10.71763941 109.16327528 35.87538592 133.56640625 71.71484375 C144.40230773 88.14578074 152.32314805 105.89298775 157 125 C157.31324219 126.22879883 157.31324219 126.22879883 157.6328125 127.48242188 C167.89714575 169.09195002 158.89392593 213.83939629 137.28515625 250.3515625 C133.90384663 255.86152415 130.04135454 260.96060661 126 266 C124.90365234 267.40185547 124.90365234 267.40185547 123.78515625 268.83203125 C99.1406902 299.80003341 62.83967068 319.80328761 24.0625 326.75 C23.04470459 326.94178833 23.04470459 326.94178833 22.00634766 327.13745117 C14.50525839 328.3788963 7.89561469 328 0 328 C0 219.76 0 111.52 0 0 Z " fill="#FEFEFE" transform="translate(421,229)"/>
<path d="M0 0 C10.23 0 20.46 0 31 0 C31 108.24 31 216.48 31 328 C20.77 328 10.54 328 0 328 C0 219.76 0 111.52 0 0 Z " fill="#FEFEFE" transform="translate(378,229)"/>
<path d="M0 0 C7.92 0 15.84 0 24 0 C24 108.24 24 216.48 24 328 C16.08 328 8.16 328 0 328 C0 219.76 0 111.52 0 0 Z " fill="#FEFEFE" transform="translate(333,229)"/>
<path d="M0 0 C4.62 0 9.24 0 14 0 C14 108.24 14 216.48 14 328 C9.38 328 4.76 328 0 328 C0 219.76 0 111.52 0 0 Z " fill="#FDFDFD" transform="translate(289,229)"/>
<path d="M0 0 C3.3 0 6.6 0 10 0 C10 108.24 10 216.48 10 328 C6.7 328 3.4 328 0 328 C0 219.76 0 111.52 0 0 Z " fill="#FEFEFE" transform="translate(246,231)"/>
</svg>
