<?xml version="1.0" encoding="utf-8"?>
<!-- Generator: Adobe Illustrator 16.0.0, SVG Export Plug-In . SVG Version: 6.00 Build 0)  -->
<!DOCTYPE svg PUBLIC "-//W3C//DTD SVG 1.1//EN" "http://www.w3.org/Graphics/SVG/1.1/DTD/svg11.dtd">
<svg version="1.1" id="Layer_1" xmlns="http://www.w3.org/2000/svg" xmlns:xlink="http://www.w3.org/1999/xlink" x="0px" y="0px"
	 width="500px" height="310px" viewBox="0 0 500 310" enable-background="new 0 0 500 310" xml:space="preserve">
<g>
	<path fill="#1D4671" d="M244.585,60.275l-46.789,59.329l54.577,33.066l-21.031,45.466l-43.644-29.951l3.493,24.965l-50.462,13.9
		l-27.737-157.18l56.389-15.829l4.95,35.587l24.75-48.658L244.585,60.275z"/>
</g>
<g>
	<path fill="#1D4671" d="M235.732,25.539l45.107-5.937l0.669,35.007l-42.827,6.933L235.732,25.539z M240.305,75.547l43.781-7.414
		l7.802,114.277l-41.607,7.223L240.305,75.547z"/>
</g>
<g>
	<path fill="#1D4671" d="M381.443,168.268c-3.591,2.24-7.313,4.127-11.162,5.656c-3.851,1.533-7.802,2.709-11.847,3.529
		c-4.046,0.816-7.979,1.393-11.801,1.729c-8.967,0.785-17.369-0.008-25.212-2.379c-7.848-2.367-14.804-5.979-20.871-10.826
		c-6.072-4.85-11-10.725-14.792-17.635c-3.792-6.904-6.05-14.512-6.776-22.817c-0.841-9.62,0.047-18.434,2.67-26.433
		c2.618-7.999,6.63-14.924,12.029-20.776c5.397-5.851,11.994-10.544,19.788-14.083c7.792-3.535,16.368-5.714,25.729-6.533
		c9.357-0.818,17.63-0.014,24.815,2.413c7.186,2.429,13.29,5.014,18.312,7.763l-23.109,36.488c-1.974-1.288-4.219-2.286-6.736-2.997
		c-2.521-0.708-5.051-1.153-7.588-1.329c-2.54-0.175-4.959-0.097-7.251,0.236c-2.297,0.334-4.135,0.959-5.516,1.877
		c-2.39,1.537-4.396,3.273-6.02,5.208c-1.624,1.935-2.837,4.002-3.642,6.195c-0.805,2.198-1.069,4.512-0.787,6.943
		c0.278,2.436,1.187,4.846,2.724,7.233c3.097,5.044,7.137,7.944,12.117,8.703c4.979,0.76,10.057-0.412,15.232-3.522l9.635-6.022
		l30.004,33.238C388.346,163.314,385.03,166.029,381.443,168.268z"/>
</g>
<g>
	<path fill="#1D4671" d="M372.144,18.458l44.811-5.899l0.369,83.851l0.396-0.021l16.747-41.212l43.988,1.299l-23.181,51.284
		l32.105,44.248l-40.171,22.551l-28.346-48.417l-0.396,0.021l3.979,46.102l-41.044,5.705L372.144,18.458z"/>
</g>
<g>
	<path fill="#1D4671" d="M332.125,288.631c-3.52,3.654-7.817,6.875-12.895,9.66c-5.08,2.785-10.544,4.93-16.393,6.436
		c-5.851,1.504-11.891,2.264-18.114,2.283c-6.229,0.018-12.224-0.941-17.988-2.873c-5.767-1.934-11.077-4.947-15.936-9.041
		c-4.86-4.092-8.846-9.447-11.96-16.064c-3.525-7.404-5.681-14.785-6.469-22.145c-0.786-7.357-0.446-14.463,1.017-21.314
		c1.466-6.852,3.934-13.35,7.405-19.494c3.471-6.139,7.7-11.727,12.686-16.752c4.987-5.025,10.607-9.391,16.865-13.094
		c6.255-3.705,12.952-6.57,20.087-8.598c6.74-1.82,13.079-2.463,19.018-1.928c5.937,0.535,11.318,1.854,16.14,3.955
		c4.823,2.102,8.93,4.689,12.326,7.764c3.396,3.074,5.969,6.188,7.724,9.344c3.198,5.916,5.64,12.623,7.328,20.111
		c1.683,7.494,2.178,15.277,1.485,23.359c-0.695,8.084-2.809,16.268-6.337,24.555C344.583,273.082,339.251,281.027,332.125,288.631z
		 M311.057,225.365c-1.553-3.156-3.715-5.406-6.479-6.752c-2.768-1.342-5.74-1.883-8.924-1.625
		c-3.184,0.262-6.401,1.242-9.657,2.947c-3.257,1.707-6.201,4.055-8.835,7.041c-2.633,2.99-4.783,6.59-6.444,10.807
		c-1.666,4.217-2.45,8.863-2.354,13.941c-0.011,4.783,0.733,8.654,2.236,11.615c1.498,2.961,3.384,5.145,5.652,6.543
		c2.268,1.404,4.845,2.15,7.737,2.244c2.892,0.098,5.747-0.379,8.567-1.43c2.819-1.047,5.454-2.568,7.909-4.559
		c2.452-1.988,4.501-4.291,6.146-6.914c2.414-3.932,4.165-7.572,5.249-10.934c1.08-3.357,1.72-6.432,1.918-9.227
		c0.194-2.793,0.022-5.33-0.518-7.611C312.721,229.174,311.986,227.141,311.057,225.365z"/>
</g>
<g>
	<path fill="#1D4671" d="M355.62,228.471l-10.223,1.344l1.388-26.104l5.481-0.723c-0.701-5.332-0.647-10.26,0.165-14.791
		c0.81-4.525,2.425-8.479,4.845-11.863c2.417-3.383,5.688-6.197,9.813-8.451c4.124-2.25,9.197-3.77,15.224-4.564
		c1.679-0.219,3.201-0.293,4.567-0.223c1.365,0.072,2.802,0.109,4.31,0.111l7.087,24.084l-5.038,0.662
		c-3.258,0.428-5.643,1.598-7.149,3.504c-1.508,1.906-2.065,4.34-1.676,7.303l12.74-1.676l3.353,25.48l-12.74,1.676l8.605,58.545
		l-32.833,7.035L355.62,228.471z"/>
</g>
<g>
	<path fill="#1D4671" d="M406.108,219.627l-10.222,1.346l1.387-26.105l5.481-0.719c-0.7-5.334-0.647-10.264,0.165-14.793
		c0.81-4.525,2.427-8.48,4.845-11.863c2.418-3.381,5.688-6.197,9.814-8.449c4.123-2.25,9.198-3.774,15.223-4.565
		c1.679-0.223,3.202-0.295,4.568-0.225c1.364,0.072,2.801,0.109,4.309,0.111l7.087,24.084l-5.037,0.662
		c-3.258,0.43-5.643,1.598-7.148,3.502c-1.509,1.91-2.067,4.342-1.678,7.305l12.739-1.678l3.353,25.482l-12.739,1.676l8.605,58.547
		l-32.832,7.033L406.108,219.627z"/>
</g>
<g>
	<linearGradient id="SVGID_1_" gradientUnits="userSpaceOnUse" x1="177.2427" y1="27.7632" x2="177.2427" y2="194.2603">
		<stop  offset="0" style="stop-color:#FFF33B"/>
		<stop  offset="0.0595" style="stop-color:#FFE029"/>
		<stop  offset="0.1303" style="stop-color:#FFD218"/>
		<stop  offset="0.2032" style="stop-color:#FEC90F"/>
		<stop  offset="0.2809" style="stop-color:#FDC70C"/>
		<stop  offset="0.6685" style="stop-color:#F3903F"/>
		<stop  offset="0.8876" style="stop-color:#ED683C"/>
		<stop  offset="1" style="stop-color:#E93E3A"/>
	</linearGradient>
	<path fill="url(#SVGID_1_)" d="M232.631,62.931l-41.865,53.084l48.832,29.589l-18.816,40.679l-39.051-26.799l3.126,22.34
		l-45.152,12.436L114.887,53.623l50.454-14.162l4.429,31.84l22.145-43.537L232.631,62.931z"/>
</g>
<g>
	<linearGradient id="SVGID_2_" gradientUnits="userSpaceOnUse" x1="266.3887" y1="31.3218" x2="266.3887" y2="179.561">
		<stop  offset="0" style="stop-color:#FFF33B"/>
		<stop  offset="0.0595" style="stop-color:#FFE029"/>
		<stop  offset="0.1303" style="stop-color:#FFD218"/>
		<stop  offset="0.2032" style="stop-color:#FEC90F"/>
		<stop  offset="0.2809" style="stop-color:#FDC70C"/>
		<stop  offset="0.6685" style="stop-color:#F3903F"/>
		<stop  offset="0.8876" style="stop-color:#ED683C"/>
		<stop  offset="1" style="stop-color:#E93E3A"/>
	</linearGradient>
	<path fill="url(#SVGID_2_)" d="M241.91,36.497l39.326-5.175l0.584,30.52l-37.339,6.044L241.91,36.497z M245.896,80.095l38.17-6.465
		l6.801,99.632l-36.274,6.299L245.896,80.095z"/>
</g>
<g>
	<linearGradient id="SVGID_3_" gradientUnits="userSpaceOnUse" x1="338.6914" y1="65.7334" x2="338.6914" y2="170.2808">
		<stop  offset="0" style="stop-color:#FFF33B"/>
		<stop  offset="0.0595" style="stop-color:#FFE029"/>
		<stop  offset="0.1303" style="stop-color:#FFD218"/>
		<stop  offset="0.2032" style="stop-color:#FEC90F"/>
		<stop  offset="0.2809" style="stop-color:#FDC70C"/>
		<stop  offset="0.6685" style="stop-color:#F3903F"/>
		<stop  offset="0.8876" style="stop-color:#ED683C"/>
		<stop  offset="1" style="stop-color:#E93E3A"/>
	</linearGradient>
	<path fill="url(#SVGID_3_)" d="M378.436,160.686c-3.074,1.918-6.261,3.529-9.557,4.842c-3.299,1.313-6.682,2.322-10.146,3.021
		c-3.465,0.699-6.835,1.195-10.106,1.48c-7.679,0.672-14.875-0.006-21.59-2.037c-6.721-2.025-12.678-5.117-17.873-9.27
		c-5.199-4.153-9.419-9.184-12.667-15.102c-3.247-5.914-5.181-12.429-5.804-19.54c-0.72-8.238,0.04-15.785,2.286-22.635
		c2.242-6.85,5.679-12.782,10.303-17.793c4.622-5.011,10.271-9.028,16.944-12.061c6.673-3.027,14.018-4.894,22.033-5.595
		c8.014-0.7,15.1-0.01,21.252,2.066c6.153,2.08,11.381,4.293,15.682,6.647l-19.79,31.249c-1.69-1.104-3.612-1.96-5.77-2.567
		c-2.157-0.605-4.325-0.988-6.499-1.139c-2.174-0.151-4.244-0.082-6.208,0.202c-1.967,0.287-3.541,0.821-4.723,1.607
		c-2.047,1.316-3.764,2.803-5.154,4.46c-1.391,1.657-2.431,3.428-3.119,5.307c-0.688,1.88-0.916,3.863-0.675,5.944
		c0.238,2.085,1.016,4.149,2.334,6.195c2.651,4.318,6.11,6.802,10.376,7.453c4.265,0.651,8.612-0.353,13.045-3.018l8.25-5.158
		l25.692,28.466C384.348,156.441,381.51,158.768,378.436,160.686z"/>
</g>
<g>
	<linearGradient id="SVGID_4_" gradientUnits="userSpaceOnUse" x1="434.376" y1="22.623" x2="434.376" y2="165.8228">
		<stop  offset="0" style="stop-color:#FFF33B"/>
		<stop  offset="0.0595" style="stop-color:#FFE029"/>
		<stop  offset="0.1303" style="stop-color:#FFD218"/>
		<stop  offset="0.2032" style="stop-color:#FEC90F"/>
		<stop  offset="0.2809" style="stop-color:#FDC70C"/>
		<stop  offset="0.6685" style="stop-color:#F3903F"/>
		<stop  offset="0.8876" style="stop-color:#ED683C"/>
		<stop  offset="1" style="stop-color:#E93E3A"/>
	</linearGradient>
	<path fill="url(#SVGID_4_)" d="M384.496,27.729l38.792-5.106l0.319,72.592l0.344-0.018l14.497-35.68l38.082,1.125l-20.067,44.399
		l27.793,38.305l-34.775,19.523l-24.538-41.915l-0.344,0.017l3.444,39.91l-35.533,4.941L384.496,27.729z"/>
</g>
<g>
	<linearGradient id="SVGID_5_" gradientUnits="userSpaceOnUse" x1="294.667" y1="180.9502" x2="294.667" y2="298.5977">
		<stop  offset="0" style="stop-color:#FFF33B"/>
		<stop  offset="0.0595" style="stop-color:#FFE029"/>
		<stop  offset="0.1303" style="stop-color:#FFD218"/>
		<stop  offset="0.2032" style="stop-color:#FEC90F"/>
		<stop  offset="0.2809" style="stop-color:#FDC70C"/>
		<stop  offset="0.6685" style="stop-color:#F3903F"/>
		<stop  offset="0.8876" style="stop-color:#ED683C"/>
		<stop  offset="1" style="stop-color:#E93E3A"/>
	</linearGradient>
	<path fill="url(#SVGID_5_)" d="M329.355,282.154c-3.148,3.268-6.995,6.15-11.54,8.643c-4.544,2.492-9.433,4.41-14.666,5.758
		c-5.235,1.346-10.639,2.025-16.208,2.043c-5.571,0.016-10.936-0.842-16.095-2.572c-5.16-1.727-9.911-4.426-14.258-8.088
		c-4.349-3.662-7.916-8.453-10.702-14.373c-3.154-6.627-5.083-13.23-5.789-19.814c-0.702-6.582-0.397-12.941,0.912-19.07
		c1.312-6.131,3.52-11.945,6.625-17.443c3.105-5.494,6.889-10.492,11.351-14.988c4.462-4.498,9.49-8.402,15.089-11.717
		c5.598-3.316,11.591-5.879,17.975-7.693c6.031-1.631,11.703-2.203,17.018-1.725c5.311,0.48,10.127,1.66,14.44,3.539
		c4.313,1.881,7.99,4.195,11.027,6.945c3.038,2.75,5.342,5.539,6.911,8.363c2.861,5.293,5.047,11.291,6.557,17.992
		c1.508,6.703,1.949,13.67,1.33,20.902c-0.622,7.232-2.514,14.557-5.67,21.971C340.501,268.24,335.732,275.35,329.355,282.154z
		 M310.505,225.547c-1.391-2.824-3.325-4.84-5.797-6.043c-2.476-1.199-5.137-1.684-7.984-1.451c-2.85,0.23-5.729,1.109-8.641,2.633
		c-2.915,1.527-5.549,3.629-7.906,6.301c-2.356,2.676-4.28,5.898-5.768,9.67c-1.49,3.773-2.19,7.93-2.104,12.477
		c-0.009,4.277,0.658,7.742,2,10.391c1.34,2.65,3.029,4.602,5.059,5.855c2.029,1.256,4.335,1.926,6.924,2.012
		c2.586,0.082,5.141-0.344,7.664-1.285c2.523-0.936,4.881-2.297,7.077-4.076c2.193-1.781,4.027-3.842,5.499-6.188
		c2.162-3.518,3.729-6.779,4.697-9.783c0.967-3.002,1.539-5.756,1.716-8.256c0.175-2.498,0.021-4.768-0.461-6.811
		C311.993,228.951,311.337,227.135,310.505,225.547z"/>
</g>
<g>
	<linearGradient id="SVGID_6_" gradientUnits="userSpaceOnUse" x1="377.8672" y1="168.8105" x2="377.8672" y2="282.2188">
		<stop  offset="0" style="stop-color:#FFF33B"/>
		<stop  offset="0.0595" style="stop-color:#FFE029"/>
		<stop  offset="0.1303" style="stop-color:#FFD218"/>
		<stop  offset="0.2032" style="stop-color:#FEC90F"/>
		<stop  offset="0.2809" style="stop-color:#FDC70C"/>
		<stop  offset="0.6685" style="stop-color:#F3903F"/>
		<stop  offset="0.8876" style="stop-color:#ED683C"/>
		<stop  offset="1" style="stop-color:#E93E3A"/>
	</linearGradient>
	<path fill="url(#SVGID_6_)" d="M362.358,227.326l-9.146,1.205l1.241-23.359l4.905-0.645c-0.628-4.771-0.58-9.182,0.147-13.234
		c0.724-4.049,2.171-7.588,4.333-10.615c2.165-3.027,5.091-5.545,8.781-7.561c3.691-2.012,8.231-3.375,13.622-4.084
		c1.502-0.197,2.864-0.262,4.086-0.199c1.223,0.064,2.509,0.096,3.856,0.098l6.341,21.551l-4.506,0.592
		c-2.916,0.385-5.051,1.43-6.398,3.133c-1.349,1.709-1.848,3.885-1.5,6.537l11.4-1.5l2.999,22.799l-11.398,1.5l7.699,52.385
		l-29.376,6.291L362.358,227.326z"/>
</g>
<g>
	<linearGradient id="SVGID_7_" gradientUnits="userSpaceOnUse" x1="429.0322" y1="160.8975" x2="429.0322" y2="274.3066">
		<stop  offset="0" style="stop-color:#FFF33B"/>
		<stop  offset="0.0595" style="stop-color:#FFE029"/>
		<stop  offset="0.1303" style="stop-color:#FFD218"/>
		<stop  offset="0.2032" style="stop-color:#FEC90F"/>
		<stop  offset="0.2809" style="stop-color:#FDC70C"/>
		<stop  offset="0.6685" style="stop-color:#F3903F"/>
		<stop  offset="0.8876" style="stop-color:#ED683C"/>
		<stop  offset="1" style="stop-color:#E93E3A"/>
	</linearGradient>
	<path fill="url(#SVGID_7_)" d="M413.524,219.416l-9.147,1.201l1.243-23.357l4.904-0.646c-0.627-4.77-0.579-9.18,0.147-13.232
		c0.725-4.049,2.169-7.588,4.334-10.617c2.165-3.023,5.09-5.545,8.78-7.559c3.691-2.014,8.231-3.375,13.623-4.086
		c1.501-0.197,2.864-0.26,4.085-0.199c1.223,0.064,2.51,0.098,3.857,0.1l6.341,21.549l-4.506,0.594
		c-2.918,0.385-5.051,1.43-6.398,3.133c-1.35,1.709-1.849,3.885-1.5,6.535l11.399-1.498l3,22.799l-11.4,1.5l7.701,52.385
		l-29.379,6.291L413.524,219.416z"/>
</g>
<g>
	<path fill="#1D4671" d="M66.136,57.684c1.332,4.779,2.183,9.355,2.558,13.725c0.373,4.373,0.184,8.773-0.568,13.206
		c-0.305,2.111-0.794,4.19-1.466,6.233c-0.673,2.045-1.586,4.032-2.737,5.955c-2.868,4.684-6.766,7.903-11.692,9.654
		c-4.928,1.755-10.065,1.771-15.411,0.053c-2.721-0.844-5.097-1.977-7.132-3.395c-2.035-1.418-3.911-3.069-5.628-4.955
		c-2.398-2.54-4.334-5.208-5.808-8.006c-1.476-2.796-2.743-5.737-3.8-8.821c-2.034-5.512-3.571-11.12-4.614-16.825
		c-1.045-5.704-1.35-11.53-0.921-17.476c0.208-1.745,0.514-3.5,0.919-5.259c0.405-1.759,0.849-3.549,1.334-5.375
		c0.484-1.822,1.283-3.502,2.396-5.037c1.112-1.534,2.31-3.029,3.594-4.485c1.444-1.584,3.227-2.863,5.341-3.832
		c2.115-0.969,4.311-1.645,6.589-2.027c2.279-0.381,4.522-0.437,6.735-0.167c2.211,0.271,4.136,0.854,5.777,1.746
		c5.034,2.735,9.107,6.118,12.218,10.148c3.088,3.951,5.583,8.092,7.484,12.415C63.204,49.487,64.815,53.663,66.136,57.684z
		 M30.703,45.521c-0.007,5.32,0.534,10.47,1.621,15.443c1.088,4.974,2.653,9.879,4.696,14.713c0.688,1.751,1.524,3.418,2.512,5
		c0.986,1.583,2.009,3.198,3.064,4.846c1.326,1.909,2.466,2.88,3.419,2.91c0.952,0.031,1.762-0.449,2.432-1.438
		c0.668-0.986,1.168-2.225,1.5-3.71c0.33-1.485,0.528-2.828,0.591-4.029c0.491-7.145-0.326-13.819-2.452-20.025
		c-2.126-6.202-5.411-12.106-9.853-17.708c-1.398-1.806-2.577-2.911-3.534-3.32c-0.958-0.408-1.728-0.321-2.311,0.263
		c-0.582,0.587-1.016,1.529-1.298,2.831C30.806,42.6,30.676,44.008,30.703,45.521z"/>
</g>
<g>
	<path fill="#1D4671" d="M117.096,39.94c5.488,4.721,10.265,9.741,14.334,15.067c4.067,5.326,7.874,10.788,11.422,16.384
		c0.425,0.813,0.854,1.642,1.29,2.49c0.436,0.852,0.865,1.681,1.291,2.491c0.729,1.906,0.801,3.766,0.212,5.577
		c-0.59,1.81-1.729,3.246-3.419,4.309c-1.854,1.193-3.791,1.732-5.809,1.619c-2.02-0.114-3.914-0.852-5.684-2.215
		c-1.388-1.051-2.69-2.164-3.913-3.343c-1.223-1.179-2.505-2.383-3.839-3.615c-2.698-2.543-5.392-5.083-8.087-7.626
		c-2.697-2.541-5.392-5.083-8.087-7.625c-0.295-0.338-0.638-0.686-1.035-1.041c-0.397-0.352-0.903-0.74-1.517-1.161
		c-0.353,0.521-0.656,0.943-0.913,1.268c-0.258,0.325-0.491,0.644-0.702,0.955c-1.322,2.394-2.577,4.752-3.769,7.067
		c-1.194,2.318-2.46,4.634-3.802,6.949c-0.59,1.094-1.27,2.127-2.042,3.102c-0.771,0.976-1.588,1.88-2.449,2.709
		c-2.562,2.571-5.719,3.367-9.47,2.386c-1.809-0.423-3.146-1.213-4.013-2.366c-0.868-1.15-1.29-2.572-1.265-4.27
		c0.037-0.938,0.113-1.909,0.231-2.914c0.116-1.001,0.39-1.986,0.817-2.95c1.545-3.724,3.074-7.422,4.584-11.094
		c1.511-3.67,3.048-7.329,4.616-10.975c0.308-0.677,0.664-1.368,1.063-2.07s0.835-1.457,1.307-2.264
		c-0.637-0.498-1.198-0.996-1.684-1.494c-0.488-0.498-0.992-0.969-1.512-1.415c-2.478-1.758-4.902-3.595-7.273-5.509
		c-2.374-1.913-4.797-3.75-7.274-5.509c-0.637-0.497-1.267-0.977-1.891-1.437c-0.626-0.458-1.255-0.936-1.891-1.435
		c-1.452-1.283-2.298-2.716-2.539-4.296c-0.242-1.578,0.084-3.083,0.978-4.515c0.941-1.612,2.343-2.825,4.202-3.64
		c1.859-0.814,3.841-1.008,5.949-0.582c1.807,0.427,3.636,0.93,5.488,1.509c1.852,0.584,3.667,1.218,5.448,1.902
		c2.123,0.846,4.215,1.846,6.276,3.001c2.061,1.158,4.242,2.301,6.545,3.432c0.773-1.144,1.502-2.275,2.184-3.396
		c0.68-1.117,1.409-2.249,2.184-3.395c0.681-1.118,1.334-2.25,1.959-3.396c0.625-1.144,1.323-2.289,2.098-3.435
		c2.111-3.122,4.429-5.498,6.956-7.132c2.525-1.631,4.961-2.604,7.307-2.922c2.347-0.315,4.443-0.013,6.29,0.906
		c1.845,0.923,3.192,2.277,4.04,4.068c0.846,1.79,1.02,4.021,0.523,6.693c-0.499,2.672-1.894,5.595-4.189,8.766
		c-1.008,1.38-1.974,2.726-2.898,4.038c-0.926,1.317-1.881,2.699-2.866,4.156c-1.008,1.379-1.976,2.724-2.898,4.038
		C119.036,37.1,118.081,38.484,117.096,39.94z"/>
</g>
</svg>
