<svg width="64" height="64" viewBox="0 0 64 64" fill="none" xmlns="http://www.w3.org/2000/svg">
<rect width="64" height="64" rx="32" fill="white"/>
<path d="M31.9728 9L31.6709 10.0255V39.7805L31.9728 40.0817L45.7845 31.9175L31.9728 9Z" fill="#7986CB"/>
<path d="M31.9702 9L18.1582 31.9175L31.9702 40.0817V25.6394V9Z" fill="#9EA7D9"/>
<path d="M31.9729 42.6966L31.8027 42.9041V53.5032L31.9729 54L45.793 34.5366L31.9729 42.6966Z" fill="#7986CB"/>
<path d="M31.9692 54V42.6966L18.1572 34.5366L31.9692 54Z" fill="#9EA7D9"/>
<path d="M31.9785 40.0814L45.7902 31.9172L31.9785 25.6392V40.0814Z" fill="#5C6BC0"/>
<path d="M18.1572 31.9172L31.9692 40.0814V25.6392L18.1572 31.9172Z" fill="#7986CB"/>
<mask id="path-8-outside-1_33038_30864" maskUnits="userSpaceOnUse" x="39.6875" y="40" width="25" height="24" fill="black">
<rect fill="white" x="39.6875" y="40" width="25" height="24"/>
<path d="M62 52C62 57.5228 57.4529 62 51.8438 62C46.2346 62 41.6875 57.5228 41.6875 52C41.6875 46.4772 46.2346 42 51.8438 42C57.4529 42 62 46.4772 62 52Z"/>
</mask>
<path d="M62 52C62 57.5228 57.4529 62 51.8438 62C46.2346 62 41.6875 57.5228 41.6875 52C41.6875 46.4772 46.2346 42 51.8438 42C57.4529 42 62 46.4772 62 52Z" fill="url(#paint0_linear_33038_30864)"/>
<path d="M60 52C60 56.3892 56.3777 60 51.8438 60V64C58.5281 64 64 58.6565 64 52H60ZM51.8438 60C47.3098 60 43.6875 56.3892 43.6875 52H39.6875C39.6875 58.6565 45.1594 64 51.8438 64V60ZM43.6875 52C43.6875 47.6108 47.3098 44 51.8438 44V40C45.1594 40 39.6875 45.3435 39.6875 52H43.6875ZM51.8438 44C56.3777 44 60 47.6108 60 52H64C64 45.3435 58.5281 40 51.8438 40V44Z" fill="white" mask="url(#path-8-outside-1_33038_30864)"/>
<path d="M51.4215 56.376L47.2922 50.2774C47.0672 49.9451 47.3091 49.5 47.7147 49.5H49.5507C49.7151 49.5 49.8693 49.5783 49.9646 49.7102L51.4301 51.7395C51.6326 52.0198 52.0554 52.0198 52.2578 51.7395L53.7234 49.7102C53.8187 49.5783 53.9729 49.5 54.1372 49.5H55.9733C56.3788 49.5 56.6208 49.9451 56.3958 50.2773L52.2665 56.376C52.0655 56.6728 51.6225 56.6728 51.4215 56.376Z" fill="white"/>
<path fill-rule="evenodd" clip-rule="evenodd" d="M41.7562 58.2534C38.7182 59.3828 35.4312 60 32 60C16.536 60 4 47.464 4 32C4 16.536 16.536 4 32 4C47.464 4 60 16.536 60 32C60 35.4312 59.3828 38.7182 58.2534 41.7562C59.4738 42.5028 60.5505 43.4614 61.4322 44.5807C63.085 40.719 64 36.4664 64 32C64 14.3269 49.6731 0 32 0C14.3269 0 0 14.3269 0 32C0 49.6731 14.3269 64 32 64C36.4664 64 40.719 63.085 44.5807 61.4322C43.4614 60.5505 42.5028 59.4738 41.7562 58.2534Z" fill="url(#paint1_linear_33038_30864)"/>
<defs>
<linearGradient id="paint0_linear_33038_30864" x1="51.8438" y1="42" x2="51.8438" y2="62" gradientUnits="userSpaceOnUse">
<stop stop-color="#7AEDCF"/>
<stop offset="0.201333" stop-color="#68CEFA"/>
<stop offset="0.403244" stop-color="#689CF8"/>
<stop offset="0.602076" stop-color="#AC57C0"/>
<stop offset="0.801867" stop-color="#E65659"/>
<stop offset="1" stop-color="#F2C241"/>
</linearGradient>
<linearGradient id="paint1_linear_33038_30864" x1="32.0001" y1="0" x2="32.0001" y2="64" gradientUnits="userSpaceOnUse">
<stop stop-color="#7AEDCF"/>
<stop offset="0.201333" stop-color="#68CEFA"/>
<stop offset="0.403244" stop-color="#689CF8"/>
<stop offset="0.602076" stop-color="#AC57C0"/>
<stop offset="0.801867" stop-color="#E65659"/>
<stop offset="1" stop-color="#F2C241"/>
</linearGradient>
</defs>
</svg>
