<svg width="184" height="149" viewBox="0 0 184 149" fill="none" xmlns="http://www.w3.org/2000/svg">
<path d="M127.923 0.692926H54.7229C40.1588 0.856123 26.2466 6.75619 16.0055 17.1127C5.76432 27.4693 0.0205078 41.4467 0.0205078 56.0117C0.0205078 70.5767 5.76432 84.5541 16.0055 94.9107C26.2466 105.267 40.1588 111.167 54.7229 111.331H127.923C135.24 111.412 142.5 110.042 149.284 107.299C156.067 104.556 162.239 100.494 167.442 95.349C172.645 90.2041 176.776 84.0781 179.595 77.3257C182.414 70.5734 183.865 63.3289 183.865 56.0117C183.865 48.6945 182.414 41.45 179.595 34.6977C176.776 27.9454 172.645 21.8194 167.442 16.6744C162.239 11.5295 156.067 7.46776 149.284 4.7245C142.5 1.98124 135.24 0.610939 127.923 0.692926V0.692926ZM127.923 89.7225H54.7229C45.7813 89.7225 37.206 86.1705 30.8833 79.8478C24.5606 73.5252 21.0086 64.9498 21.0086 56.0082C21.0086 47.0667 24.5606 38.4913 30.8833 32.1687C37.206 25.846 45.7813 22.294 54.7229 22.294H127.923C132.351 22.294 136.735 23.166 140.825 24.8603C144.916 26.5546 148.632 29.038 151.763 32.1687C154.894 35.2993 157.377 39.0159 159.071 43.1063C160.766 47.1967 161.638 51.5808 161.638 56.0082C161.638 60.4357 160.766 64.8197 159.071 68.9101C157.377 73.0005 154.894 76.7172 151.763 79.8478C148.632 82.9785 144.916 85.4619 140.825 87.1562C136.735 88.8505 132.351 89.7225 127.923 89.7225Z" fill="white"/>
<path d="M127.146 45.2086H55.5082C54.0663 45.172 52.6317 45.4244 51.289 45.9509C49.9462 46.4774 48.7224 47.2674 47.6897 48.2743C46.657 49.2811 45.8362 50.4845 45.2758 51.8135C44.7155 53.1425 44.4268 54.5702 44.4268 56.0125C44.4268 57.4548 44.7155 58.8826 45.2758 60.2116C45.8362 61.5406 46.657 62.744 47.6897 63.7508C48.7224 64.7577 49.9462 65.5476 51.289 66.0742C52.6317 66.6007 54.0663 66.8531 55.5082 66.8165H127.146C129.964 66.7451 132.642 65.5754 134.61 63.5571C136.578 61.5387 137.679 58.8314 137.679 56.0125C137.679 53.1937 136.578 50.4863 134.61 48.468C132.642 46.4496 129.964 45.28 127.146 45.2086V45.2086Z" fill="#03FF91"/>
<path d="M83.8107 148.476C83.618 148.477 83.427 148.44 83.2487 148.366C83.0705 148.293 82.9086 148.185 82.7723 148.049C82.6361 147.913 82.5281 147.751 82.4548 147.573C82.3815 147.394 82.3442 147.203 82.3451 147.011V141.03H94.2917C94.6047 141.048 94.9179 141.001 95.2122 140.893C95.5065 140.785 95.7757 140.618 96.0034 140.403C96.2311 140.187 96.4124 139.927 96.5363 139.64C96.6602 139.352 96.7242 139.041 96.7242 138.728C96.7242 138.414 96.6602 138.104 96.5363 137.816C96.4124 137.528 96.2311 137.269 96.0034 137.053C95.7757 136.838 95.5065 136.671 95.2122 136.563C94.9179 136.455 94.6047 136.408 94.2917 136.425H82.9355C82.735 136.439 82.5339 136.412 82.3445 136.344C82.1551 136.277 81.9816 136.172 81.8347 136.035C81.6878 135.898 81.5706 135.732 81.4906 135.547C81.4105 135.363 81.3691 135.164 81.3691 134.963C81.3691 134.762 81.4105 134.564 81.4906 134.379C81.5706 134.195 81.6878 134.029 81.8347 133.892C81.9816 133.755 82.1551 133.649 82.3445 133.582C82.5339 133.515 82.735 133.487 82.9355 133.501H94.2917C95.0149 133.437 95.7437 133.523 96.4317 133.755C97.1197 133.988 97.7517 134.361 98.2876 134.851C98.8234 135.341 99.2514 135.937 99.5442 136.602C99.837 137.266 99.9882 137.984 99.9882 138.711C99.9882 139.437 99.837 140.155 99.5442 140.819C99.2514 141.484 98.8234 142.08 98.2876 142.57C97.7517 143.06 97.1197 143.433 96.4317 143.666C95.7437 143.898 95.0149 143.985 94.2917 143.92H85.2623V146.976C85.2679 147.17 85.2345 147.364 85.1641 147.545C85.0937 147.727 84.9878 147.892 84.8525 148.032C84.7173 148.172 84.5554 148.283 84.3765 148.359C84.1976 148.436 84.0052 148.475 83.8107 148.476Z" fill="white"/>
<path d="M52.3186 148.477H41.0597C39.0739 148.477 37.1694 147.688 35.7653 146.284C34.3611 144.88 33.5723 142.975 33.5723 140.989C33.5723 139.004 34.3611 137.099 35.7653 135.695C37.1694 134.291 39.0739 133.502 41.0597 133.502H52.3186C52.689 133.527 53.0358 133.693 53.2891 133.964C53.5425 134.235 53.6833 134.593 53.6833 134.964C53.6833 135.335 53.5425 135.693 53.2891 135.964C53.0358 136.235 52.689 136.401 52.3186 136.426H41.0597C39.8494 136.426 38.6887 136.907 37.833 137.763C36.9772 138.618 36.4964 139.779 36.4964 140.989C36.4964 142.2 36.9772 143.36 37.833 144.216C38.6887 145.072 39.8494 145.553 41.0597 145.553H52.3186C52.689 145.578 53.0358 145.743 53.2891 146.015C53.5425 146.286 53.6833 146.644 53.6833 147.015C53.6833 147.386 53.5425 147.743 53.2891 148.015C53.0358 148.286 52.689 148.451 52.3186 148.477V148.477Z" fill="white"/>
<path d="M52.3186 142.441H41.2959C41.0954 142.455 40.8942 142.428 40.7048 142.36C40.5155 142.293 40.3419 142.188 40.195 142.051C40.0481 141.913 39.931 141.748 39.8509 141.563C39.7708 141.379 39.7295 141.18 39.7295 140.979C39.7295 140.778 39.7708 140.579 39.8509 140.395C39.931 140.211 40.0481 140.045 40.195 139.908C40.3419 139.771 40.5155 139.665 40.7048 139.598C40.8942 139.531 41.0954 139.503 41.2959 139.517H52.3186C52.689 139.543 53.0359 139.708 53.2892 139.979C53.5425 140.251 53.6833 140.608 53.6833 140.979C53.6833 141.35 53.5425 141.708 53.2892 141.979C53.0359 142.251 52.689 142.416 52.3186 142.441V142.441Z" fill="#03FF91"/>
<path d="M76.2669 148.477H65.0079C63.0221 148.477 61.1177 147.688 59.7135 146.284C58.3094 144.88 57.5205 142.975 57.5205 140.989C57.5205 139.004 58.3094 137.099 59.7135 135.695C61.1177 134.291 63.0221 133.502 65.0079 133.502H76.2669C76.6372 133.527 76.9841 133.693 77.2374 133.964C77.4907 134.235 77.6316 134.593 77.6316 134.964C77.6316 135.335 77.4907 135.693 77.2374 135.964C76.9841 136.235 76.6372 136.401 76.2669 136.426H65.0079C63.7977 136.426 62.637 136.907 61.7812 137.763C60.9254 138.618 60.4446 139.779 60.4446 140.989C60.4446 142.2 60.9254 143.36 61.7812 144.216C62.637 145.072 63.7977 145.553 65.0079 145.553H76.2669C76.6372 145.578 76.9841 145.743 77.2374 146.015C77.4907 146.286 77.6316 146.644 77.6316 147.015C77.6316 147.386 77.4907 147.743 77.2374 148.015C76.9841 148.286 76.6372 148.451 76.2669 148.477V148.477Z" fill="white"/>
<path d="M76.2683 142.442H65.2456C64.8752 142.416 64.5284 142.251 64.2751 141.98C64.0217 141.708 63.8809 141.351 63.8809 140.98C63.8809 140.608 64.0217 140.251 64.2751 139.98C64.5284 139.708 64.8752 139.543 65.2456 139.518H76.2683C76.6387 139.543 76.9856 139.708 77.2389 139.98C77.4922 140.251 77.6331 140.608 77.6331 140.98C77.6331 141.351 77.4922 141.708 77.2389 141.98C76.9856 142.251 76.6387 142.416 76.2683 142.442V142.442Z" fill="#03FF91"/>
<path d="M22.3489 133.521H11.083V148.496H22.3489C24.3347 148.496 26.2391 147.707 27.6433 146.303C29.0475 144.899 29.8363 142.995 29.8363 141.009C29.8363 139.023 29.0475 137.119 27.6433 135.714C26.2391 134.31 24.3347 133.521 22.3489 133.521V133.521ZM22.3489 145.572H14.0141V136.425H22.3489C22.9481 136.425 23.5415 136.543 24.0952 136.772C24.6488 137.001 25.1519 137.338 25.5756 137.761C25.9994 138.185 26.3355 138.688 26.5648 139.242C26.7942 139.795 26.9122 140.389 26.9122 140.988C26.9122 141.587 26.7942 142.181 26.5648 142.734C26.3355 143.288 25.9994 143.791 25.5756 144.215C25.1519 144.639 24.6488 144.975 24.0952 145.204C23.5415 145.433 22.9481 145.551 22.3489 145.551V145.572Z" fill="white"/>
<path d="M116.65 148.06H103.058V134.787C103.083 134.416 103.248 134.069 103.52 133.816C103.791 133.563 104.148 133.422 104.52 133.422C104.891 133.422 105.248 133.563 105.52 133.816C105.791 134.069 105.956 134.416 105.982 134.787V145.136H116.65C116.851 145.122 117.052 145.149 117.241 145.217C117.431 145.284 117.604 145.389 117.751 145.526C117.898 145.663 118.015 145.829 118.095 146.014C118.175 146.198 118.217 146.397 118.217 146.598C118.217 146.799 118.175 146.997 118.095 147.182C118.015 147.366 117.898 147.532 117.751 147.669C117.604 147.806 117.431 147.912 117.241 147.979C117.052 148.046 116.851 148.074 116.65 148.06V148.06Z" fill="white"/>
<path d="M123.109 148.476C122.917 148.476 122.727 148.438 122.549 148.364C122.372 148.29 122.211 148.182 122.075 148.046C121.94 147.91 121.832 147.748 121.759 147.57C121.687 147.393 121.649 147.202 121.65 147.01V135.404C121.676 135.033 121.841 134.687 122.112 134.433C122.384 134.18 122.741 134.039 123.112 134.039C123.484 134.039 123.841 134.18 124.112 134.433C124.384 134.687 124.549 135.033 124.575 135.404V147.01C124.575 147.203 124.538 147.394 124.465 147.572C124.392 147.75 124.284 147.912 124.147 148.048C124.011 148.185 123.849 148.292 123.671 148.366C123.493 148.439 123.302 148.476 123.109 148.476V148.476Z" fill="white"/>
<path d="M154.206 148.476C154.014 148.476 153.823 148.438 153.646 148.364C153.468 148.29 153.307 148.182 153.172 148.046C153.036 147.91 152.929 147.748 152.856 147.57C152.783 147.393 152.746 147.202 152.747 147.01V135.404C152.773 135.033 152.938 134.687 153.209 134.433C153.481 134.18 153.838 134.039 154.209 134.039C154.58 134.039 154.938 134.18 155.209 134.433C155.481 134.687 155.646 135.033 155.671 135.404V147.01C155.672 147.203 155.635 147.394 155.562 147.572C155.488 147.75 155.38 147.912 155.244 148.048C155.108 148.185 154.946 148.292 154.768 148.366C154.589 148.439 154.398 148.476 154.206 148.476V148.476Z" fill="white"/>
<path d="M144.371 148.511C143.855 148.51 143.345 148.396 142.877 148.177C142.41 147.959 141.995 147.642 141.662 147.247L132.459 137.037C132.35 136.922 132.21 136.842 132.056 136.807C131.902 136.771 131.74 136.782 131.592 136.837C131.444 136.893 131.316 136.991 131.223 137.119C131.13 137.247 131.077 137.4 131.07 137.558V147.011C131.084 147.211 131.056 147.412 130.989 147.602C130.922 147.791 130.817 147.965 130.679 148.112C130.542 148.259 130.376 148.376 130.192 148.456C130.008 148.536 129.809 148.577 129.608 148.577C129.407 148.577 129.208 148.536 129.024 148.456C128.84 148.376 128.674 148.259 128.537 148.112C128.4 147.965 128.294 147.791 128.227 147.602C128.16 147.412 128.132 147.211 128.146 147.011V137.558C128.146 136.796 128.38 136.054 128.815 135.429C129.25 134.804 129.865 134.327 130.579 134.063C131.293 133.798 132.071 133.758 132.808 133.948C133.545 134.139 134.206 134.55 134.703 135.127L143.899 145.33C143.984 145.442 144.103 145.523 144.239 145.559C144.375 145.596 144.519 145.586 144.649 145.531C144.783 145.489 144.899 145.403 144.98 145.287C145.06 145.172 145.1 145.033 145.093 144.892V135.405C145.119 135.034 145.284 134.687 145.556 134.434C145.827 134.181 146.184 134.04 146.556 134.04C146.927 134.04 147.284 134.181 147.556 134.434C147.827 134.687 147.992 135.034 148.018 135.405V144.899C148.012 145.857 147.629 146.773 146.951 147.45C146.274 148.126 145.356 148.507 144.399 148.511H144.371Z" fill="white"/>
<path d="M170.104 148.511C169.939 148.51 169.774 148.482 169.618 148.428L159.2 144.781C158.457 144.52 157.815 144.035 157.36 143.393C156.905 142.751 156.661 141.984 156.661 141.197C156.661 140.41 156.905 139.643 157.36 139.001C157.815 138.359 158.457 137.874 159.2 137.613L169.618 133.994C169.986 133.867 170.39 133.892 170.741 134.062C171.091 134.233 171.359 134.536 171.486 134.904C171.614 135.273 171.589 135.677 171.418 136.027C171.248 136.377 170.945 136.646 170.577 136.773L160.158 140.398C159.984 140.452 159.833 140.561 159.727 140.709C159.622 140.857 159.568 141.036 159.575 141.218C159.569 141.4 159.623 141.58 159.728 141.729C159.833 141.878 159.984 141.989 160.158 142.044L170.611 145.684C170.937 145.799 171.211 146.025 171.387 146.322C171.562 146.619 171.627 146.969 171.569 147.309C171.512 147.65 171.337 147.959 171.074 148.183C170.811 148.406 170.477 148.53 170.132 148.532L170.104 148.511Z" fill="white"/>
</svg>
