<svg width="184" height="148" viewBox="0 0 184 148" fill="none" xmlns="http://www.w3.org/2000/svg">
<path d="M127.903 0.00347312H54.7024C40.1383 0.16667 26.2261 6.06674 15.985 16.4233C5.74381 26.7798 0 40.7573 0 55.3223C0 69.8873 5.74381 83.8647 15.985 94.2212C26.2261 104.578 40.1383 110.478 54.7024 110.641H127.903C135.22 110.723 142.48 109.353 149.263 106.609C156.047 103.866 162.219 99.8045 167.422 94.6596C172.625 89.5146 176.755 83.3886 179.574 76.6363C182.393 69.8839 183.845 62.6394 183.845 55.3223C183.845 48.0051 182.393 40.7606 179.574 34.0083C176.755 27.2559 172.625 21.1299 167.422 15.985C162.219 10.84 156.047 6.77831 149.263 4.03505C142.48 1.29179 135.22 -0.0785138 127.903 0.00347312V0.00347312ZM127.903 89.0331H54.7024C45.7608 89.0331 37.1854 85.481 30.8628 79.1584C24.5401 72.8357 20.9881 64.2604 20.9881 55.3188C20.9881 46.3772 24.5401 37.8019 30.8628 31.4792C37.1854 25.1565 45.7608 21.6045 54.7024 21.6045H127.903C132.33 21.6045 136.714 22.4766 140.805 24.1709C144.895 25.8652 148.612 28.3485 151.742 31.4792C154.873 34.6099 157.356 38.3265 159.051 42.4169C160.745 46.5073 161.617 50.8914 161.617 55.3188C161.617 59.7462 160.745 64.1303 159.051 68.2207C157.356 72.3111 154.873 76.0277 151.742 79.1584C148.612 82.2891 144.895 84.7724 140.805 86.4667C136.714 88.161 132.33 89.0331 127.903 89.0331Z" fill="#03FF91"/>
<path d="M127.125 44.5191H55.4877C54.0458 44.4825 52.6112 44.7349 51.2685 45.2615C49.9257 45.788 48.7019 46.5779 47.6692 47.5848C46.6365 48.5917 45.8157 49.795 45.2553 51.124C44.6949 52.453 44.4062 53.8808 44.4062 55.3231C44.4062 56.7654 44.6949 58.1931 45.2553 59.5221C45.8157 60.8511 46.6365 62.0545 47.6692 63.0614C48.7019 64.0682 49.9257 64.8582 51.2685 65.3847C52.6112 65.9112 54.0458 66.1636 55.4877 66.1271H127.125C129.943 66.0556 132.622 64.886 134.59 62.8676C136.557 60.8493 137.659 58.142 137.659 55.3231C137.659 52.5042 136.557 49.7969 134.59 47.7785C132.622 45.7602 129.943 44.5906 127.125 44.5191V44.5191Z" fill="#03FF91" fill-opacity="0.45"/>
<path d="M83.7902 147.787C83.5974 147.788 83.4065 147.75 83.2282 147.677C83.05 147.604 82.8881 147.496 82.7518 147.36C82.6155 147.223 82.5076 147.061 82.4343 146.883C82.361 146.705 82.3237 146.514 82.3246 146.321V140.341H94.2712C94.5842 140.358 94.8974 140.311 95.1917 140.203C95.486 140.095 95.7552 139.929 95.9829 139.713C96.2106 139.498 96.3919 139.238 96.5158 138.95C96.6397 138.662 96.7036 138.352 96.7036 138.038C96.7036 137.725 96.6397 137.415 96.5158 137.127C96.3919 136.839 96.2106 136.579 95.9829 136.364C95.7552 136.148 95.486 135.981 95.1917 135.874C94.8974 135.766 94.5842 135.719 94.2712 135.736H82.915C82.7145 135.75 82.5134 135.722 82.324 135.655C82.1346 135.588 81.9611 135.482 81.8142 135.345C81.6673 135.208 81.5501 135.042 81.47 134.858C81.39 134.674 81.3486 134.475 81.3486 134.274C81.3486 134.073 81.39 133.874 81.47 133.69C81.5501 133.506 81.6673 133.34 81.8142 133.203C81.9611 133.065 82.1346 132.96 82.324 132.893C82.5134 132.826 82.7145 132.798 82.915 132.812H94.2712C94.9944 132.747 95.7232 132.834 96.4112 133.066C97.0992 133.298 97.7312 133.671 98.2671 134.161C98.8029 134.652 99.2309 135.248 99.5237 135.912C99.8164 136.577 99.9677 137.295 99.9677 138.021C99.9677 138.747 99.8164 139.465 99.5237 140.13C99.2309 140.794 98.8029 141.391 98.2671 141.881C97.7312 142.371 97.0992 142.744 96.4112 142.976C95.7232 143.209 94.9944 143.295 94.2712 143.23H85.2418V146.286C85.2474 146.481 85.214 146.674 85.1436 146.856C85.0732 147.037 84.9673 147.203 84.832 147.342C84.6968 147.482 84.5349 147.594 84.356 147.67C84.1771 147.746 83.9847 147.786 83.7902 147.787Z" fill="#03FF91"/>
<path d="M52.2981 147.787H41.0392C39.0534 147.787 37.1489 146.999 35.7448 145.594C34.3406 144.19 33.5518 142.286 33.5518 140.3C33.5518 138.314 34.3406 136.41 35.7448 135.006C37.1489 133.601 39.0534 132.812 41.0392 132.812H52.2981C52.6685 132.838 53.0153 133.003 53.2686 133.275C53.5219 133.546 53.6628 133.903 53.6628 134.275C53.6628 134.646 53.5219 135.003 53.2686 135.275C53.0153 135.546 52.6685 135.711 52.2981 135.737H41.0392C39.8289 135.737 38.6682 136.217 37.8124 137.073C36.9567 137.929 36.4759 139.09 36.4759 140.3C36.4759 141.51 36.9567 142.671 37.8124 143.527C38.6682 144.382 39.8289 144.863 41.0392 144.863H52.2981C52.6685 144.889 53.0153 145.054 53.2686 145.325C53.5219 145.597 53.6628 145.954 53.6628 146.325C53.6628 146.697 53.5219 147.054 53.2686 147.325C53.0153 147.597 52.6685 147.762 52.2981 147.787V147.787Z" fill="#03FF91"/>
<path d="M52.2981 141.752H41.2754C41.0749 141.766 40.8737 141.738 40.6843 141.671C40.4949 141.604 40.3214 141.498 40.1745 141.361C40.0276 141.224 39.9105 141.058 39.8304 140.874C39.7503 140.69 39.709 140.491 39.709 140.29C39.709 140.089 39.7503 139.89 39.8304 139.706C39.9105 139.521 40.0276 139.356 40.1745 139.218C40.3214 139.081 40.4949 138.976 40.6843 138.909C40.8737 138.841 41.0749 138.814 41.2754 138.828H52.2981C52.6685 138.853 53.0153 139.018 53.2687 139.29C53.522 139.561 53.6628 139.919 53.6628 140.29C53.6628 140.661 53.522 141.018 53.2687 141.29C53.0153 141.561 52.6685 141.726 52.2981 141.752V141.752Z" fill="#03FF91" fill-opacity="0.45"/>
<path d="M76.2464 147.787H64.9874C63.0016 147.787 61.0972 146.999 59.693 145.594C58.2889 144.19 57.5 142.286 57.5 140.3C57.5 138.314 58.2889 136.41 59.693 135.006C61.0972 133.601 63.0016 132.812 64.9874 132.812H76.2464C76.6167 132.838 76.9636 133.003 77.2169 133.275C77.4702 133.546 77.6111 133.903 77.6111 134.275C77.6111 134.646 77.4702 135.003 77.2169 135.275C76.9636 135.546 76.6167 135.711 76.2464 135.737H64.9874C63.7772 135.737 62.6165 136.217 61.7607 137.073C60.9049 137.929 60.4241 139.09 60.4241 140.3C60.4241 141.51 60.9049 142.671 61.7607 143.527C62.6165 144.382 63.7772 144.863 64.9874 144.863H76.2464C76.6167 144.889 76.9636 145.054 77.2169 145.325C77.4702 145.597 77.6111 145.954 77.6111 146.325C77.6111 146.697 77.4702 147.054 77.2169 147.325C76.9636 147.597 76.6167 147.762 76.2464 147.787V147.787Z" fill="#03FF91"/>
<path d="M76.2478 141.752H65.2251C64.8547 141.727 64.5079 141.562 64.2545 141.29C64.0012 141.019 63.8604 140.661 63.8604 140.29C63.8604 139.919 64.0012 139.562 64.2545 139.29C64.5079 139.019 64.8547 138.854 65.2251 138.828H76.2478C76.6182 138.854 76.965 139.019 77.2184 139.29C77.4717 139.562 77.6125 139.919 77.6125 140.29C77.6125 140.661 77.4717 141.019 77.2184 141.29C76.965 141.562 76.6182 141.727 76.2478 141.752V141.752Z" fill="#03FF91" fill-opacity="0.45"/>
<path d="M22.3284 132.832H11.0625V147.807H22.3284C24.3142 147.807 26.2186 147.018 27.6228 145.614C29.027 144.21 29.8158 142.305 29.8158 140.319C29.8158 138.334 29.027 136.429 27.6228 135.025C26.2186 133.621 24.3142 132.832 22.3284 132.832V132.832ZM22.3284 144.883H13.9936V135.735H22.3284C22.9276 135.735 23.521 135.853 24.0747 136.083C24.6283 136.312 25.1314 136.648 25.5551 137.072C25.9789 137.496 26.315 137.999 26.5443 138.552C26.7736 139.106 26.8917 139.699 26.8917 140.299C26.8917 140.898 26.7736 141.491 26.5443 142.045C26.315 142.599 25.9789 143.102 25.5551 143.525C25.1314 143.949 24.6283 144.285 24.0747 144.515C23.521 144.744 22.9276 144.862 22.3284 144.862V144.883Z" fill="#03FF91"/>
<path d="M116.63 147.37H103.037V134.097C103.063 133.727 103.228 133.38 103.499 133.127C103.771 132.873 104.128 132.732 104.499 132.732C104.87 132.732 105.228 132.873 105.499 133.127C105.771 133.38 105.936 133.727 105.961 134.097V144.446H116.63C116.83 144.432 117.031 144.46 117.221 144.527C117.41 144.594 117.584 144.7 117.731 144.837C117.878 144.974 117.995 145.14 118.075 145.324C118.155 145.508 118.196 145.707 118.196 145.908C118.196 146.109 118.155 146.308 118.075 146.492C117.995 146.677 117.878 146.842 117.731 146.98C117.584 147.117 117.41 147.222 117.221 147.289C117.031 147.357 116.83 147.384 116.63 147.37V147.37Z" fill="#03FF91"/>
<path d="M123.088 147.786C122.896 147.786 122.706 147.748 122.529 147.674C122.351 147.601 122.19 147.493 122.055 147.356C121.919 147.22 121.812 147.059 121.739 146.881C121.666 146.703 121.629 146.513 121.63 146.321V134.714C121.655 134.344 121.821 133.997 122.092 133.744C122.363 133.49 122.721 133.35 123.092 133.35C123.463 133.35 123.821 133.49 124.092 133.744C124.363 133.997 124.528 134.344 124.554 134.714V146.321C124.555 146.513 124.518 146.704 124.444 146.882C124.371 147.061 124.263 147.223 124.127 147.359C123.991 147.495 123.829 147.603 123.65 147.676C123.472 147.75 123.281 147.787 123.088 147.786V147.786Z" fill="#03FF91"/>
<path d="M154.185 147.786C153.993 147.786 153.803 147.748 153.625 147.674C153.448 147.601 153.287 147.493 153.151 147.356C153.016 147.22 152.909 147.059 152.836 146.881C152.763 146.703 152.726 146.513 152.727 146.321V134.714C152.752 134.344 152.917 133.997 153.189 133.744C153.46 133.49 153.817 133.35 154.189 133.35C154.56 133.35 154.917 133.49 155.189 133.744C155.46 133.997 155.625 134.344 155.651 134.714V146.321C155.652 146.513 155.614 146.704 155.541 146.882C155.468 147.061 155.36 147.223 155.224 147.359C155.087 147.495 154.925 147.603 154.747 147.676C154.569 147.75 154.378 147.787 154.185 147.786V147.786Z" fill="#03FF91"/>
<path d="M144.351 147.822C143.834 147.82 143.325 147.706 142.857 147.488C142.389 147.27 141.975 146.952 141.642 146.557L132.439 136.347C132.33 136.233 132.189 136.153 132.035 136.117C131.881 136.082 131.72 136.092 131.572 136.148C131.424 136.203 131.295 136.301 131.202 136.429C131.109 136.558 131.056 136.71 131.05 136.868V146.321C131.063 146.522 131.036 146.723 130.969 146.912C130.902 147.102 130.796 147.275 130.659 147.422C130.522 147.569 130.356 147.686 130.172 147.766C129.987 147.846 129.789 147.888 129.588 147.888C129.387 147.888 129.188 147.846 129.004 147.766C128.819 147.686 128.653 147.569 128.516 147.422C128.379 147.275 128.274 147.102 128.206 146.912C128.139 146.723 128.112 146.522 128.126 146.321V136.868C128.126 136.107 128.359 135.364 128.794 134.739C129.229 134.115 129.845 133.638 130.559 133.373C131.273 133.109 132.05 133.069 132.787 133.259C133.524 133.449 134.186 133.86 134.682 134.437L143.878 144.64C143.963 144.753 144.083 144.834 144.219 144.87C144.355 144.906 144.499 144.897 144.628 144.842C144.763 144.799 144.879 144.713 144.959 144.598C145.04 144.482 145.08 144.343 145.073 144.203V134.715C145.099 134.345 145.264 133.998 145.535 133.745C145.806 133.491 146.164 133.35 146.535 133.35C146.906 133.35 147.264 133.491 147.535 133.745C147.806 133.998 147.972 134.345 147.997 134.715V144.21C147.992 145.167 147.608 146.084 146.931 146.76C146.253 147.436 145.336 147.818 144.378 147.822H144.351Z" fill="#03FF91"/>
<path d="M170.084 147.821C169.918 147.821 169.754 147.793 169.598 147.738L159.179 144.092C158.437 143.831 157.794 143.346 157.34 142.704C156.885 142.062 156.641 141.294 156.641 140.508C156.641 139.721 156.885 138.954 157.34 138.312C157.794 137.67 158.437 137.185 159.179 136.924L169.598 133.305C169.966 133.178 170.37 133.202 170.72 133.373C171.071 133.544 171.339 133.846 171.466 134.215C171.593 134.583 171.569 134.987 171.398 135.337C171.227 135.688 170.924 135.956 170.556 136.083L160.138 139.709C159.964 139.762 159.812 139.871 159.707 140.02C159.601 140.168 159.548 140.347 159.554 140.528C159.548 140.711 159.602 140.89 159.708 141.039C159.813 141.188 159.964 141.299 160.138 141.355L170.591 144.995C170.916 145.109 171.191 145.335 171.366 145.633C171.541 145.93 171.606 146.28 171.549 146.62C171.492 146.96 171.316 147.27 171.053 147.493C170.79 147.717 170.457 147.84 170.112 147.842L170.084 147.821Z" fill="#03FF91"/>
</svg>
