<svg width="150" height="150" viewBox="0 0 150 150" fill="none" xmlns="http://www.w3.org/2000/svg">
<g clip-path="url(#clip0_217_591)">
<path d="M75 150C116.421 150 150 116.421 150 75C150 33.5786 116.421 0 75 0C33.5786 0 0 33.5786 0 75C0 116.421 33.5786 150 75 150Z" fill="#E01915"/>
<path d="M75 141.041C106.411 141.041 131.875 111.474 131.875 75C131.875 38.5264 106.411 8.95874 75 8.95874C43.5888 8.95874 18.125 38.5264 18.125 75C18.125 111.474 43.5888 141.041 75 141.041Z" fill="#AF1E3A"/>
<path d="M75 141.041C100.888 141.041 121.875 111.474 121.875 75C121.875 38.5264 100.888 8.95874 75 8.95874C49.1117 8.95874 28.125 38.5264 28.125 75C28.125 111.474 49.1117 141.041 75 141.041Z" fill="#171518"/>
<path d="M75.0004 149.855C33.6104 149.855 0.0566406 116.315 0.0566406 74.9413C0.0566406 33.5675 33.6104 0.0275269 75.0004 0.0275269C116.39 0.0275269 149.944 33.5675 149.944 74.9413C149.944 116.315 116.392 149.855 75.0004 149.855ZM75.0004 8.85628C38.4879 8.85628 8.88914 38.4438 8.88914 74.9413C8.88914 111.439 38.4879 141.026 75.0004 141.026C111.513 141.026 141.112 111.439 141.112 74.9413C141.112 38.4438 111.513 8.85628 75.0004 8.85628Z" fill="url(#paint0_linear_217_591)"/>
<path fill-rule="evenodd" clip-rule="evenodd" d="M0 75C0 116.421 33.5788 150 75 150C116.421 150 150 116.421 150 75C150 33.5788 116.421 0 75 0C33.5788 0 0 33.5788 0 75ZM74.8838 3.25125H75V3.29C114.539 3.29 146.746 35.4025 146.784 74.9225C146.861 114.481 114.695 146.749 75.1162 146.788H75C35.46 146.749 3.255 114.636 3.21625 75.1162C3.1775 55.9575 10.6275 37.9225 24.17 24.3487C37.7113 10.775 55.715 3.25125 74.8838 3.25125Z" fill="url(#paint1_linear_217_591)"/>
<path d="M76.1358 2.125C76.3208 2.5025 76.4945 2.9 76.7033 3.26375C78.4295 6.48375 80.3995 7.1275 82.9758 9.175L82.9058 9.215C80.962 10.3212 79.5095 10.7562 78.0745 12.6725C77.2833 13.6225 76.7483 14.8637 76.1808 15.9587C73.8545 11.385 73.8458 11.5187 69.332 9.15875C70.0608 8.54125 70.8845 8.07375 71.6795 7.54875C73.382 6.425 74.457 5.03375 75.4408 3.2775C75.6708 2.89375 75.8933 2.50125 76.1358 2.125Z" fill="#FBFBFB"/>
<path d="M31.5154 108.661C31.2904 108.771 31.0541 108.875 30.8379 108.999C28.9204 110.026 28.5366 111.2 27.3166 112.735L27.2929 112.694C26.6341 111.536 26.3754 110.671 25.2329 109.816C24.6666 109.345 23.9279 109.026 23.2754 108.688C25.9991 107.301 25.9204 107.296 27.3254 104.609C27.6929 105.044 27.9716 105.534 28.2841 106.008C28.9529 107.021 29.7816 107.661 30.8279 108.248C31.0566 108.385 31.2904 108.518 31.5141 108.661H31.5154Z" fill="#FBFBFB"/>
<path d="M75.9418 5.09998C76.2356 5.36248 76.4968 5.79498 76.7555 6.10623C77.7043 7.25373 78.668 8.28748 79.9968 8.99623C78.4068 9.85498 77.283 11.0187 76.248 12.4825L76.2231 12.49C75.9756 12.4112 74.9805 11.0212 74.6555 10.7125C73.948 10.04 73.1418 9.53623 72.3105 9.03498C73.8393 7.90248 74.9456 6.71498 75.9418 5.09998Z" fill="#8B8DA8"/>
<path d="M44.502 79.6575C44.1095 80.095 43.4657 80.4862 42.9995 80.8712C41.287 82.2862 39.742 83.7262 38.687 85.71C37.4045 83.3375 35.667 81.66 33.4832 80.1137L33.4707 80.0762C33.587 79.7062 35.6632 78.2212 36.1232 77.7375C37.127 76.6825 37.8795 75.4775 38.6282 74.2375C40.3182 76.5187 42.092 78.17 44.502 79.6575Z" fill="#8B8DA8"/>
<path d="M29.5942 55.5687C29.7905 55.7825 30.3617 57.49 30.538 57.905C31.3642 58.2062 32.1905 58.5425 32.9867 58.9137C32.4455 59.0737 31.8667 59.2175 31.3442 59.43C30.2955 59.8562 30.0592 60.8925 29.6567 61.8487C29.3467 61.115 29.0542 60.34 28.5855 59.6912C27.8655 59.35 27.0167 59.1325 26.2617 58.8662C27.0455 58.4925 27.8705 58.2125 28.6655 57.8637C29.063 57.1537 29.3192 56.3337 29.5955 55.57L29.5942 55.5687Z" fill="#E7B5C6"/>
<path d="M115.301 113.003C115.497 113.216 116.069 114.924 116.245 115.339C117.071 115.64 117.897 115.976 118.694 116.348C118.152 116.508 117.574 116.651 117.051 116.864C116.002 117.29 115.766 118.326 115.364 119.283C115.054 118.549 114.761 117.774 114.293 117.125C113.573 116.784 112.724 116.566 111.969 116.3C112.752 115.926 113.577 115.646 114.372 115.298C114.77 114.588 115.026 113.768 115.302 113.004L115.301 113.003Z" fill="#E7B5C6"/>
<path d="M117.52 44.0112C118.567 43.8912 119.736 43.74 120.625 43.125C121.763 42.3375 121.898 40.8137 122.113 39.56C122.327 40.8775 122.536 42.2912 123.65 43.1662C124.525 43.6325 125.46 43.8675 126.421 44.09C125.211 44.2712 123.833 44.3937 123.051 45.47C122.461 46.2812 122.313 47.3212 122.058 48.2662C121.93 47.3862 121.742 46.585 121.345 45.7862C121.302 45.7087 121.255 45.635 121.205 45.5625C120.408 44.415 118.786 44.2412 117.52 44.0112Z" fill="#F698BE"/>
<path d="M131.417 99.5388C131.745 99.5013 132.045 99.4963 132.316 99.7138C132.553 99.9038 132.64 100.145 132.632 100.443C132.622 100.819 132.393 101.061 132.131 101.299C132.088 101.301 132.046 101.304 132.003 101.305C131.618 101.314 131.293 101.259 131.033 100.954C130.872 100.765 130.831 100.574 130.853 100.333C130.887 99.9563 131.143 99.755 131.417 99.5388Z" fill="#FBFBFB"/>
<path d="M34.6417 91.5125C34.9692 91.475 35.2692 91.47 35.5404 91.6875C35.7779 91.8775 35.8642 92.1188 35.8567 92.4163C35.8467 92.7925 35.6179 93.035 35.3554 93.2725C35.3129 93.275 35.2704 93.2775 35.2279 93.2788C34.8429 93.2875 34.5179 93.2325 34.2579 92.9275C34.0967 92.7388 34.0554 92.5475 34.0779 92.3063C34.1117 91.93 34.3679 91.7288 34.6417 91.5125Z" fill="#FBFBFB"/>
<path d="M27.9894 81.6212C28.1832 81.63 28.4044 81.6425 28.5707 81.7562C28.7494 81.8775 28.8419 82.0437 28.8419 82.26C28.8419 82.5387 28.6369 82.745 28.4644 82.9362C28.2557 82.94 28.0482 82.9237 27.8719 82.7937C27.7007 82.6675 27.6382 82.4812 27.6407 82.2737C27.6444 82.005 27.8257 81.81 27.9894 81.6212Z" fill="#FBFBFB"/>
<path d="M32.0119 46.6262C32.0607 46.6275 32.1094 46.6275 32.1582 46.63C32.4707 46.6462 32.7469 46.7012 32.9457 46.9725C33.0994 47.1825 33.1407 47.3337 33.1069 47.5925C33.0619 47.9512 32.8207 48.145 32.5469 48.3387C32.4244 48.33 32.3007 48.3225 32.1794 48.305C31.9044 48.2662 31.6569 48.1175 31.5094 47.875C31.4019 47.6962 31.3819 47.4937 31.4332 47.2937C31.5169 46.9587 31.7419 46.8062 32.0132 46.6275L32.0119 46.6262Z" fill="#FBFBFB"/>
<path d="M135.833 62.2863C136.105 62.2713 136.402 62.2488 136.623 62.445C136.787 62.59 136.842 62.7663 136.83 62.9813C136.817 63.2413 136.62 63.4413 136.458 63.625C136.208 63.6675 135.963 63.6713 135.738 63.535C135.558 63.425 135.458 63.2738 135.44 63.0625C135.412 62.7088 135.603 62.5138 135.833 62.2863Z" fill="#FBFBFB"/>
<path d="M19.1278 98.0962C19.4003 98.0812 19.6965 98.0587 19.9178 98.255C20.0815 98.4 20.1365 98.5762 20.1253 98.7912C20.1115 99.0512 19.9153 99.2512 19.7528 99.435C19.5028 99.4775 19.2578 99.4812 19.0328 99.345C18.8528 99.235 18.7528 99.0837 18.7353 98.8725C18.7065 98.5187 18.8978 98.3237 19.1278 98.0962Z" fill="#FBFBFB"/>
<path d="M120.743 35.1425C121.039 35.135 121.299 35.1425 121.531 35.3587C121.703 35.5187 121.745 35.6812 121.741 35.9087C121.735 36.2837 121.496 36.52 121.234 36.7512C120.948 36.7625 120.678 36.7412 120.449 36.5375C120.283 36.39 120.213 36.1875 120.226 35.9687C120.25 35.5762 120.471 35.3887 120.743 35.1425Z" fill="#FBFBFB"/>
<path d="M123.911 82.8825C124.208 82.9088 124.355 82.9413 124.569 83.1475C124.613 83.4188 124.546 83.5275 124.433 83.7663C124.181 83.7313 124.033 83.715 123.838 83.535C123.754 83.2825 123.828 83.1225 123.91 82.8838L123.911 82.8825Z" fill="#FBFBFB"/>
<path d="M36.1034 114.112C36.2446 114.352 36.3371 114.636 36.4421 114.896C36.6446 115.022 36.9046 115.125 37.0121 115.339C36.8759 115.477 36.7446 115.621 36.6096 115.76C36.3109 116.065 36.2321 116.4 36.1059 116.8C36.0509 116.544 35.9959 116.279 35.9034 116.032C35.7409 115.604 35.3321 115.494 34.9434 115.321C35.0884 115.149 35.4646 115.101 35.6671 114.979C35.9071 114.834 36.0134 114.376 36.1034 114.112Z" fill="#FBFBFB"/>
<path d="M24.7227 68.2363C24.879 68.3238 24.9677 68.405 25.0952 68.5275C25.1227 68.7913 25.0452 68.8738 24.9265 69.1063C24.704 69.01 24.6115 68.9863 24.459 68.7913C24.4902 68.515 24.5602 68.4538 24.7227 68.2363Z" fill="#FBFBFB"/>
<path d="M109.199 83.345C109.356 83.4325 109.444 83.5137 109.572 83.6362C109.599 83.9 109.522 83.9825 109.403 84.215C109.181 84.1187 109.088 84.095 108.936 83.9C108.967 83.6237 109.037 83.5625 109.199 83.345Z" fill="#FBFBFB"/>
<path d="M27.5294 54.03C27.6856 54.1175 27.7744 54.1988 27.9019 54.3213C27.9294 54.585 27.8519 54.6675 27.7331 54.9C27.5106 54.8038 27.4181 54.78 27.2656 54.585C27.2969 54.3088 27.3669 54.2475 27.5294 54.03Z" fill="#FBFBFB"/>
<path d="M69.7227 18.4025C69.879 18.49 69.9677 18.5713 70.0952 18.6938C70.1227 18.9575 70.0452 19.04 69.9265 19.2725C69.704 19.1763 69.6115 19.1525 69.459 18.9575C69.4902 18.6813 69.5602 18.62 69.7227 18.4025Z" fill="#FBFBFB"/>
<path d="M123.935 112.786C123.99 112.793 124.046 112.795 124.101 112.806C124.34 112.858 124.376 112.9 124.505 113.091C124.504 113.363 124.401 113.503 124.26 113.721C124.065 113.629 123.938 113.54 123.78 113.393C123.738 113.105 123.808 113.04 123.935 112.785V112.786Z" fill="#FBFBFB"/>
<path d="M23.2807 85.8512C23.3357 85.8575 23.392 85.86 23.447 85.8712C23.6857 85.9225 23.722 85.965 23.8507 86.1562C23.8495 86.4275 23.747 86.5675 23.6057 86.7862C23.4107 86.6937 23.2832 86.605 23.1257 86.4575C23.0832 86.17 23.1532 86.105 23.2807 85.85V85.8512Z" fill="#FBFBFB"/>
<path d="M109.889 125.484C109.971 125.491 110.051 125.499 110.131 125.513C110.507 125.578 110.833 125.731 111.041 126.068C111.188 126.308 111.239 126.584 111.168 126.86C111.056 127.294 110.791 127.49 110.419 127.708C110.266 127.71 110.112 127.708 109.961 127.684C109.662 127.639 109.417 127.491 109.244 127.243C109.088 127.016 109.042 126.741 109.096 126.475C109.192 125.995 109.491 125.73 109.889 125.484Z" fill="#FBFBFB"/>
<path d="M58.9714 11.8062C59.2064 11.7887 59.4364 11.77 59.6676 11.835C59.9076 11.9025 60.1401 12.115 60.2651 12.3262C60.4151 12.58 60.4364 12.8825 60.3564 13.1637C60.2364 13.585 59.9514 13.7925 59.5876 13.9987C59.4364 14.0025 59.2839 14.0012 59.1339 13.9812C58.8001 13.935 58.4976 13.7437 58.3114 13.46C58.1589 13.2275 58.1214 12.9462 58.1876 12.6775C58.3001 12.2237 58.5876 12.0337 58.9714 11.8075V11.8062Z" fill="#FBFBFB"/>
<path d="M88.0353 15.8112C88.1978 15.7962 88.3541 15.7887 88.5153 15.8137C88.8528 15.865 89.1416 16.0537 89.3278 16.34C89.4828 16.58 89.5166 16.89 89.4541 17.1662C89.3553 17.6037 89.0628 17.83 88.6991 18.0537C88.5516 18.0712 88.4128 18.0762 88.2653 18.06C87.9378 18.025 87.6266 17.8862 87.4278 17.6137C87.2491 17.37 87.2116 17.055 87.2691 16.7637C87.3641 16.2862 87.6478 16.07 88.0341 15.81L88.0353 15.8112Z" fill="#FBFBFB"/>
<path d="M15.0822 61.5075C15.2447 61.4925 15.401 61.485 15.5622 61.51C15.8997 61.5613 16.1885 61.75 16.3747 62.0363C16.5297 62.2763 16.5635 62.5863 16.501 62.8625C16.4022 63.3 16.1097 63.5263 15.746 63.75C15.5985 63.7675 15.4597 63.7725 15.3122 63.7563C14.9847 63.7213 14.6735 63.5825 14.4747 63.31C14.296 63.0663 14.2585 62.7513 14.316 62.46C14.411 61.9825 14.6947 61.7663 15.081 61.5063L15.0822 61.5075Z" fill="#FBFBFB"/>
<path opacity="0.2" d="M140.959 75.0137C140.951 116.43 111.424 150 74.9998 150C38.576 150 9.04102 116.423 9.04102 75C26.611 91.7938 45.526 114.775 75.006 114.775C104.486 114.775 124.36 91.7937 140.957 75.0137H140.959Z" fill="black"/>
<path opacity="0.25" d="M9.04102 74.9863C9.04852 33.5713 38.576 0 74.9998 0C111.424 0 140.959 33.5788 140.959 75C123.389 58.2062 104.474 35.225 74.9935 35.225C45.5135 35.225 25.6398 58.2063 9.04102 74.9863Z" fill="white"/>
<path d="M108.558 98.095C111.35 96.6112 115.075 91.4925 116.382 84.2675C117.865 76.0787 118.476 72.0075 121.582 67.3487C123.923 63.8362 127.813 64.2987 130.123 66.36C134.076 69.89 134.817 78.8187 133.688 84.0425C132.482 89.6237 130.758 95.9362 124.336 102.571C117.912 109.206 112.83 112.101 108.242 114.147" fill="#FBFBFB"/>
<mask id="mask0_217_591" style="mask-type:luminance" maskUnits="userSpaceOnUse" x="108" y="65" width="27" height="50">
<path d="M124.336 102.573C130.76 95.9375 132.482 89.625 133.688 84.0425C134.818 78.8188 134.077 69.89 130.123 66.36C129.607 65.8988 129.011 65.5188 128.372 65.2438C128.272 65.2288 120.885 64.2025 118.802 78.6338C116.758 92.7925 114.188 94.0825 109.625 99.5275C109.625 99.5275 109.156 100.038 108.511 100.584L108.242 114.148C112.831 112.1 117.912 109.206 124.336 102.571V102.573Z" fill="white"/>
</mask>
<g mask="url(#mask0_217_591)">
<path d="M111.088 96.4125C111.088 96.4125 121.33 95.215 120.947 105.679L124.938 102.351C124.938 102.351 124.732 91.4688 113.897 92.9275L111.089 96.4125H111.088Z" fill="#F54E48"/>
<path d="M116.889 109.28C116.889 109.28 116.586 103.295 109.622 99.5288L107.389 102.151L108.412 107.221L110.501 106.804C110.501 106.804 112.372 108.875 111.751 112.329L116.889 109.281V109.28Z" fill="#F54E48"/>
<path d="M129.239 95.845C125.612 84.135 115.658 88.7938 115.658 88.7938L116.717 83.795C128.717 80.5088 132.133 89.8338 132.133 89.8338L129.239 95.845Z" fill="#F54E48"/>
<path d="M117.637 78.8625C117.637 78.8625 121.245 75.46 126.888 77.7175C132.53 79.975 133.333 83.4138 133.402 84.865H135.495L133.13 62.7875H120.319L117.637 78.8638V78.8625Z" fill="#625B62"/>
<path opacity="0.2" d="M129.922 65.8738C129.922 65.8738 134.845 83.885 124.938 96.2463C115.03 108.606 109.982 110.115 99.2129 114.043L110.863 118.729L127.513 111.756L135.879 76.8088L131.412 63.6813L129.923 65.8738H129.922Z" fill="#231D02"/>
</g>
<path d="M108.536 98.0513C110.367 96.92 111.663 95.1188 112.748 93.2975C114.351 90.5263 115.386 87.445 115.923 84.2963C116.291 82.1675 116.602 80.0288 116.989 77.8988C117.562 74.665 118.333 71.36 120.123 68.5563C121.031 67.1213 122.093 65.6963 123.659 64.9263C126.392 63.5113 129.652 64.735 131.371 67.1163C133.923 70.6438 134.408 75.4988 134.331 79.7275C134.281 81.355 134.097 82.9888 133.731 84.5763C133.383 86.165 133.014 87.7475 132.547 89.3075C131.061 94.565 128.206 99.4275 124.294 103.244C121.239 106.333 117.876 109.165 114.117 111.361C112.244 112.469 110.276 113.401 108.262 114.194L108.221 114.103C111.599 112.425 114.814 110.444 117.736 108.064C118.982 107.064 120.211 105.984 121.368 104.884C123.699 102.681 125.934 100.353 127.787 97.7288C130.299 94.2525 132.046 90.25 133.058 86.0838C133.306 85.0375 133.578 83.9925 133.739 82.9288C133.979 81.3375 134.038 79.7175 133.966 78.11C133.821 75.4525 133.358 72.7663 132.318 70.3113C131.694 68.8738 130.874 67.5125 129.663 66.5263C127.619 64.8538 124.834 64.7863 122.888 66.65C122.141 67.345 121.551 68.2363 121.012 69.105C119.907 70.9088 119.191 72.8975 118.684 74.9525C117.913 78.0625 117.438 81.2975 116.801 84.46C115.923 88.7263 114.164 92.9363 111.162 96.145C110.408 96.9313 109.564 97.6563 108.582 98.1413L108.534 98.0525L108.536 98.0513Z" fill="#231F20"/>
<path d="M105.957 119.112C110.055 117.711 111.394 109.796 110.41 101.752C109.067 90.7737 96.9773 78.4725 96.9773 78.4725C100.656 79.2725 103.935 77.5175 103.935 77.5175C100.046 77.4825 96.7648 74.095 96.7648 74.095H54.6648C54.6648 74.095 51.4948 77.4912 47.6361 75.8875C47.6361 75.8875 50.7736 79.2725 54.4523 78.4725C54.4523 78.4725 42.3623 90.7737 41.0198 101.752C40.0361 109.796 42.0148 116.505 45.4723 119.112C45.4723 119.112 75.7211 129.456 105.959 119.112H105.957Z" fill="#FBFBFB"/>
<path d="M105.803 119.437C109.901 118.036 111.239 110.121 110.256 102.077C108.913 91.0987 96.823 78.7975 96.823 78.7975C100.502 79.5975 103.781 77.8425 103.781 77.8425C99.8918 77.8075 96.6105 74.42 96.6105 74.42H54.5105C54.5105 74.42 51.3405 77.8162 47.4818 76.2125C47.4818 76.2125 50.6193 79.5975 54.298 78.7975C54.298 78.7975 42.208 91.0987 40.8655 102.077C39.8818 110.121 41.8605 116.83 45.318 119.437C45.318 119.437 75.5668 129.781 105.804 119.437H105.803Z" fill="#FBFBFB"/>
<path d="M95.545 78.635L97.2862 80.6125C97.2862 80.6125 98.9187 86.395 89.7812 89.94C89.7812 89.94 94.7262 85.015 95.5437 78.6337L95.545 78.635Z" fill="#F54E48"/>
<path d="M99.783 83.7225C101.087 85.1175 102.3 86.9913 103.444 89.235C103.444 89.235 98.5455 94.0813 91.3242 93.59C91.3242 93.59 98.433 88.5163 99.783 83.7225Z" fill="#F54E48"/>
<path d="M106.791 95.3762C106.791 95.3762 108.381 99.1487 108.49 101.629C108.49 101.629 106.468 104.411 100.156 104.325C100.156 104.325 105.345 100.967 106.791 95.3762Z" fill="#F54E48"/>
<path d="M109.199 108.584C109.199 108.584 108.502 112.78 107.518 114.28C107.518 114.28 103.471 114.481 99.5781 110.876C99.5781 110.876 104.079 110.955 109.201 108.583L109.199 108.584Z" fill="#F54E48"/>
<path d="M55.8231 78.635L54.0819 80.6125C54.0819 80.6125 52.4494 86.395 61.5869 89.94C61.5869 89.94 56.6419 85.015 55.8244 78.6337L55.8231 78.635Z" fill="#F54E48"/>
<path d="M51.5851 83.7225C50.2813 85.1175 49.0676 86.9913 47.9238 89.235C47.9238 89.235 52.8226 94.0813 60.0438 93.59C60.0438 93.59 52.9351 88.5163 51.5851 83.7225Z" fill="#F54E48"/>
<path d="M44.5777 95.3762C44.5777 95.3762 42.9877 99.1487 42.8789 101.629C42.8789 101.629 44.9014 104.411 51.2127 104.325C51.2127 104.325 46.0239 100.967 44.5777 95.3762Z" fill="#F54E48"/>
<path d="M42.1692 108.584C42.1692 108.584 42.8667 112.78 43.8505 114.28C43.8505 114.28 47.898 114.481 51.7905 110.876C51.7905 110.876 47.2892 110.955 42.168 108.583L42.1692 108.584Z" fill="#F54E48"/>
<mask id="mask1_217_591" style="mask-type:luminance" maskUnits="userSpaceOnUse" x="40" y="74" width="71" height="50">
<path d="M105.957 119.112C110.055 117.711 111.394 109.796 110.41 101.752C109.067 90.7737 96.9773 78.4725 96.9773 78.4725C100.656 79.2725 103.935 77.5175 103.935 77.5175C100.046 77.4825 96.7648 74.095 96.7648 74.095H54.6648C54.6648 74.095 51.4948 77.4912 47.6361 75.8875C47.6361 75.8875 50.7736 79.2725 54.4523 78.4725C54.4523 78.4725 42.3623 90.7737 41.0198 101.752C40.0361 109.796 42.0148 116.505 45.4723 119.112C45.4723 119.112 75.7211 129.456 105.959 119.112H105.957Z" fill="white"/>
</mask>
<g mask="url(#mask1_217_591)">
<path opacity="0.2" d="M50.0552 76.4275C50.0552 76.4275 53.6914 77.99 57.2489 75.455V73.2737H95.8389C95.8389 73.2737 98.8364 77.0675 100.924 78.4987L96.8077 78.475C96.8077 78.475 89.1827 86.5687 80.5277 88.3612C80.5277 88.3612 80.9114 89.4537 82.0539 90.3862C82.0539 90.3862 78.9702 91.6837 74.9352 86.0437C74.9352 86.0437 71.3577 88.1675 67.9164 87.6737C67.9164 87.6737 68.4927 87.1625 69.5464 86.4937C69.5464 86.4937 58.3114 85.5537 53.7964 79.1637L45.4727 75.3675L50.0552 76.4275Z" fill="#231D02"/>
<path opacity="0.2" d="M75.5438 118.728C75.5438 118.728 71.0988 109.32 71.0313 102.725C71.0313 102.725 67.7413 101.304 65.3926 99.5875C65.3926 99.5875 75.4876 106.338 87.5676 98.7338C87.5676 98.7338 84.9488 101.55 80.5301 102.621C80.5301 102.621 78.8788 112.843 75.5451 118.728H75.5438Z" fill="#231D02"/>
<path opacity="0.2" d="M42.176 103.559C42.176 103.559 40.6972 112.13 46.5097 118.103L62.3772 122.676L54.216 99.4113C54.216 99.4113 52.9722 109.464 47.8422 109.464C43.676 109.464 42.176 103.559 42.176 103.559Z" fill="#231D02"/>
<path opacity="0.2" d="M97.1166 104.008C97.1166 104.008 101.455 112.274 107.519 114.281C107.519 114.281 105.493 118.476 102.627 120.311L87.5254 122.335L97.1166 104.009V104.008Z" fill="#231D02"/>
</g>
<path d="M105.942 119.065C109.467 117.734 110.291 112.464 110.531 109.152C110.695 106.049 110.537 102.896 109.856 99.8587C108.75 95.4412 106.446 91.4275 103.893 87.6912C101.457 84.165 98.6845 80.8375 95.692 77.7775C96.6833 77.96 97.9608 78.2475 98.9733 78.235C100.19 78.2262 101.402 78.0075 102.555 77.6162C102.951 77.4762 103.36 77.3225 103.731 77.1362L103.931 77.9512C101.075 77.875 98.4945 76.2975 96.4945 74.3562L96.7633 74.47C88.6183 74.4162 78.5283 74.2362 70.4508 74.2512C69.1433 74.2562 66.4958 74.2375 65.1883 74.25C61.6795 74.2525 58.172 74.2675 54.6633 74.2912L54.8058 74.2287C54.3358 74.7112 53.8208 75.1087 53.262 75.46C52.1433 76.1612 50.8283 76.6087 49.4908 76.5525C48.8195 76.5325 48.1558 76.3725 47.5345 76.1275L47.8233 75.7125C48.6808 76.5662 49.7345 77.2925 50.8545 77.7637C51.9645 78.2325 53.2033 78.42 54.3795 78.1512L55.4183 77.9237L54.6845 78.7037C49.4045 84.4575 43.3133 92.6937 41.7295 100.419C40.7533 105.724 41.117 113.58 44.8145 117.782C45.1158 118.114 45.442 118.42 45.792 118.686L45.6433 118.607C50.4895 120.14 55.4908 121.197 60.5133 121.976C70.9008 123.554 81.552 123.911 91.9708 122.411C92.8783 122.259 93.9058 122.109 94.8083 121.945C96.6145 121.599 98.6508 121.166 100.427 120.711C100.998 120.544 102.627 120.11 103.198 119.937C103.851 119.74 105.288 119.266 105.941 119.066L105.942 119.065ZM105.973 119.16C87.0945 125.545 66.292 125.499 47.1583 120.189C46.5108 120.004 45.8708 119.807 45.2183 119.591C44.377 118.962 43.672 118.171 43.0983 117.304C40.0495 112.679 39.7795 105.537 40.7833 100.229C42.477 92.2687 48.6645 84.0437 54.2145 78.2425L54.5195 78.795C53.2083 79.07 51.8308 78.84 50.6245 78.3025C49.4245 77.765 48.3645 77.0075 47.4445 76.065L46.5983 75.1812L47.7333 75.65C48.8695 76.1375 50.152 76.2062 51.3383 75.8537C52.552 75.5012 53.6933 74.79 54.5833 73.9012C58.1183 73.925 61.6533 73.94 65.1883 73.9425C75.2658 73.9612 86.7833 73.8337 96.9145 73.72C98.3483 75.1125 100.116 76.2587 102.045 76.8125C103.135 77.1512 104.555 77.0875 105.678 77.1037C104.841 77.5337 103.706 78.1687 102.84 78.4512C100.937 79.1125 98.8608 79.3287 96.8795 78.9137L97.2945 78.16C100.628 81.685 103.601 85.55 106.083 89.72C108.28 93.4737 110.145 97.5625 110.613 101.927C111.135 106.569 111.168 117.222 105.971 119.162L105.973 119.16Z" fill="#231F20"/>
<path d="M105.941 119.065C110.786 117.204 110.857 107.756 110.423 103.398C110.01 97.6138 107.163 92.36 103.938 87.66C101.497 84.1425 98.7121 80.8263 95.6959 77.7963C96.6859 77.9688 97.9646 78.2438 98.9734 78.2213C100.186 78.2025 101.396 77.9825 102.542 77.58C102.935 77.4375 103.341 77.28 103.706 77.09L103.931 78.0025C101.052 77.9538 98.4334 76.3825 96.4009 74.4475L96.7646 74.6013C85.0109 74.6125 66.5509 74.5838 54.6646 74.5238L54.9784 74.3875C53.0459 76.3188 50.1009 77.3975 47.4796 76.2613L47.9321 75.6113C48.3484 76.0413 48.8246 76.4325 49.3146 76.7775C50.2971 77.4638 51.4234 77.9988 52.6121 78.1575C53.1984 78.2388 53.7921 78.215 54.3684 78.0963L55.5884 77.845L54.7246 78.7413C49.3746 84.4425 43.6571 92.0413 41.7146 99.6938C40.6234 104.583 40.7884 111.126 43.0634 115.644C43.6884 116.885 44.5221 118.05 45.6284 118.901C47.6459 119.528 50.5684 120.331 52.9409 120.848C65.7084 123.685 79.0284 124.469 91.9846 122.499C94.1284 122.143 96.4584 121.716 98.5696 121.193C100.985 120.634 103.585 119.845 105.94 119.065H105.941ZM105.972 119.16C91.3796 124.074 75.5896 124.85 60.4084 122.674C55.3309 121.923 50.2859 120.909 45.3846 119.361L45.3459 119.349L45.3109 119.323C44.5234 118.724 43.8596 117.978 43.3146 117.159C40.2934 112.59 39.9821 105.525 40.9446 100.263C42.5796 92.34 48.7184 84.0575 54.1734 78.2038L54.5296 78.8488C53.8659 78.99 53.1784 79.02 52.5096 78.9313C50.5196 78.6588 48.7396 77.5575 47.3346 76.1638L46.0546 74.8225L47.7871 75.5138C50.0809 76.5013 52.6671 75.4888 54.3471 73.8025L54.4759 73.6675H54.6609C66.6021 73.6675 84.9584 73.5238 96.7609 73.59H96.9734L97.1246 73.7438C98.5134 75.0838 100.206 76.1913 102.062 76.7425C103.182 77.1113 104.722 77.0363 105.88 77.0738C105.005 77.5113 103.75 78.2038 102.851 78.4863C101.531 78.9288 100.131 79.1775 98.7371 79.1338C98.1134 79.1288 97.4921 79.0275 96.8796 78.9088L97.2909 78.1625C98.6309 79.5813 99.8784 81.0513 101.085 82.5788C105.135 87.81 109.115 93.9075 110.388 100.486C110.977 104.3 111.035 108.238 110.352 112.044C109.812 114.729 108.79 118.116 105.97 119.161L105.972 119.16Z" fill="#231F20"/>
<path d="M45.2463 46.885C34.3763 34.1087 37.2938 17.4762 37.2938 17.4762C49.1288 18.5787 57.5288 30.015 57.5288 30.015L66.2813 25.9912C66.2813 25.9912 53.6463 15.1912 35.81 15.3212C35.81 15.3212 31.5525 32.6975 45.8113 51.6862L45.2463 46.8862V46.885Z" fill="url(#paint2_linear_217_591)"/>
<path d="M62.022 25.1638C54.1545 19.4988 43.0645 15.8638 43.0645 15.8638C52.447 17.0188 60.2907 21.7075 63.9932 24.2813" fill="#E7B5C6"/>
<path d="M45.246 46.885C34.376 34.1088 37.2935 17.4763 37.2935 17.4763C49.1285 18.5788 57.5285 30.015 57.5285 30.015" fill="#F49493"/>
<path d="M50.0453 38.8375C48.1391 38.2025 42.6553 40.1738 42.6553 40.1738C42.6553 40.1738 41.6803 40.5775 41.1641 40.8213L42.8691 43.7175L44.8253 46.3788L50.0466 38.8375H50.0453Z" fill="#F54E48"/>
<path d="M57.5282 30.0137C57.5282 30.0137 50.1457 19.9637 39.4707 17.7975C39.4707 17.7975 48.2057 24.9675 49.4107 28.57" fill="#F54E48"/>
<path d="M58.1639 29.6612C58.1639 29.6612 50.5402 25.5675 42.5839 28.6312C42.5839 28.6312 46.3052 29.0962 49.1289 31.5662C49.1289 31.5662 44.4039 31.3537 40.6602 35.8712C40.6602 35.8712 43.4489 34.6337 46.8539 35.2875C46.8539 35.2875 43.7602 37.8125 42.6564 40.1725C42.6564 40.1725 48.1402 38.2012 50.0464 38.8362" fill="white"/>
<path d="M58.153 29.6838C53.3168 27.5675 47.6655 26.9875 42.6443 28.7863L42.6055 28.4675C45.0793 28.9375 47.4593 30.0025 49.368 31.655C47.678 31.6225 45.9918 32.155 44.5155 32.955C43.1005 33.72 41.8643 34.785 40.8468 36.0263L40.563 35.6513C42.5655 34.8438 44.7868 34.6213 46.903 35.0338L47.4468 35.1388C46.8943 35.5813 46.3355 36.0613 45.8205 36.55C44.6718 37.6463 43.5468 38.8275 42.8068 40.2438L42.6005 40.0175C43.2055 39.8138 43.8118 39.6313 44.4243 39.46C45.9455 39.0588 48.5555 38.35 50.0543 38.8138L50.038 38.8613C48.2205 38.3875 44.1755 39.7975 42.3443 40.4663C43.0193 38.8063 44.2243 37.4438 45.4768 36.1938C45.868 35.8113 46.2668 35.445 46.6893 35.0875L46.8043 35.5438C44.798 35.1875 42.6605 35.3675 40.758 36.0925L39.8418 36.4638L40.4743 35.7175C41.5443 34.4488 42.8568 33.37 44.348 32.635C45.8368 31.91 47.4693 31.4713 49.1318 31.4813L49.0718 31.6313C47.7243 30.4325 46.0543 29.6175 44.3168 29.15C43.5418 28.93 42.7205 28.8038 41.9268 28.7175C43.9843 27.8175 46.2055 27.2913 48.4568 27.2788C51.1555 27.2375 53.8555 27.775 56.353 28.78C56.9755 29.0338 57.5893 29.3063 58.173 29.64L58.1493 29.6838H58.153Z" fill="#010101"/>
<path d="M45.247 46.885C40.0545 40.9338 37.3245 33.1325 36.8358 25.3063C36.6745 22.615 36.7033 19.9063 37.1095 17.2338C37.2083 17.24 37.957 17.3363 38.0808 17.3463C43.9845 18.0938 49.282 21.34 53.5895 25.3163C55.0945 26.7175 56.5145 28.2025 57.7695 29.8363L57.402 29.7413L66.152 25.71L66.0808 26.2238C63.9745 24.5163 61.6483 23.0625 59.2708 21.7575C54.4883 19.1538 49.2995 17.275 43.937 16.3075C41.257 15.8263 38.5333 15.5913 35.8108 15.5913L36.0733 15.3838C35.4258 18.5138 35.3645 21.7688 35.5683 24.955C35.907 29.76 37.0345 34.535 38.807 39.0113C40.5708 43.5125 42.9858 47.76 45.8495 51.6538L45.7583 51.69L45.2445 46.8838L45.247 46.885ZM45.247 46.885L45.862 51.6788L45.8858 51.8663L45.7708 51.715C43.0858 48.1813 40.7558 44.3288 38.9783 40.2525C37.5295 36.9275 36.422 33.38 35.7558 29.815C34.8833 25.0263 34.6058 20.0575 35.5458 15.255L35.5908 15.0488H35.8083C41.3245 15.005 46.8345 15.9913 52.0258 17.8463C56.5645 19.475 60.9033 21.6875 64.8295 24.4913C65.5195 24.98 66.1995 25.5138 66.8545 26.0663L66.4108 26.27L57.6545 30.2863L57.4358 30.3863C56.7883 29.5225 56.0783 28.6875 55.3383 27.885C50.9045 23.13 45.2758 19.0688 38.7695 17.9038C38.337 17.8125 37.7133 17.7525 37.2745 17.6925L37.5108 17.5125C36.7695 22.655 37.1333 27.9488 38.3433 32.995C39.5795 38.0613 41.9133 42.8663 45.247 46.8838V46.885Z" fill="#010101"/>
<path d="M106.264 46.885C117.134 34.1087 114.216 17.4762 114.216 17.4762C102.381 18.5787 93.981 30.015 93.981 30.015L85.2285 25.9912C85.2285 25.9912 97.8635 15.1912 115.7 15.3212C115.7 15.3212 119.957 32.6975 105.699 51.6862L106.264 46.8862V46.885Z" fill="url(#paint3_linear_217_591)"/>
<path d="M89.4869 25.1638C97.3544 19.4988 108.444 15.8638 108.444 15.8638C99.0619 17.0188 91.2181 21.7075 87.5156 24.2813" fill="#E7B5C6"/>
<path d="M106.263 46.885C117.133 34.1088 114.215 17.4763 114.215 17.4763C102.38 18.5788 93.9805 30.015 93.9805 30.015" fill="#F49493"/>
<path d="M101.464 38.8375C103.37 38.2025 108.854 40.1738 108.854 40.1738C108.854 40.1738 109.829 40.5775 110.345 40.8213L108.64 43.7175L106.684 46.3788L101.463 38.8375H101.464Z" fill="#F54E48"/>
<path d="M93.9805 30.0137C93.9805 30.0137 101.363 19.9637 112.038 17.7975C112.038 17.7975 103.303 24.9675 102.098 28.57" fill="#F54E48"/>
<path d="M93.3457 29.6612C93.3457 29.6612 100.969 25.5675 108.926 28.6312C108.926 28.6312 105.204 29.0962 102.381 31.5662C102.381 31.5662 107.106 31.3537 110.849 35.8712C110.849 35.8712 108.061 34.6337 104.656 35.2875C104.656 35.2875 107.749 37.8125 108.853 40.1725C108.853 40.1725 103.369 38.2012 101.463 38.8362" fill="white"/>
<path d="M93.3338 29.6387C96.2963 28.045 99.6876 27.2412 103.051 27.2787C105.303 27.2912 107.524 27.8175 109.581 28.7175C108.786 28.805 107.968 28.93 107.191 29.15C105.455 29.6175 103.785 30.4312 102.436 31.6312L102.376 31.4812C104.451 31.4775 106.5 32.1387 108.243 33.2487C109.295 33.9175 110.23 34.7662 111.034 35.7175L111.666 36.4637L110.75 36.0925C109.33 35.5425 107.753 35.3212 106.229 35.375C105.718 35.4 105.206 35.4512 104.703 35.5437L104.818 35.0875C105.658 35.7987 106.43 36.56 107.155 37.3825C107.966 38.305 108.698 39.3175 109.161 40.465C107.336 39.8 103.289 38.3862 101.468 38.86L101.451 38.8125C102.953 38.3487 105.555 39.0562 107.081 39.4587C107.694 39.63 108.299 39.8125 108.905 40.0162L108.699 40.2425C107.96 38.8275 106.834 37.6462 105.686 36.5487C105.171 36.06 104.611 35.58 104.06 35.1375L104.604 35.0325C106.721 34.62 108.941 34.8425 110.944 35.65L110.66 36.025C109.643 34.7837 108.406 33.7175 106.991 32.9537C105.515 32.155 103.83 31.6212 102.139 31.6537C104.048 30.0012 106.426 28.9375 108.901 28.4662L108.863 28.785C105.109 27.435 100.978 27.4262 97.1313 28.3962C95.8438 28.7212 94.5688 29.13 93.3538 29.6825L93.3301 29.6387H93.3338Z" fill="#010101"/>
<path d="M106.264 46.885C109.597 42.8675 111.933 38.0625 113.168 32.9962C114.378 27.95 114.741 22.6575 114 17.5137L114.236 17.6937C113.793 17.7487 113.172 17.8187 112.741 17.905C106.234 19.07 100.606 23.1312 96.1725 27.8862C95.4325 28.6887 94.7225 29.5237 94.075 30.3875L93.8562 30.2875L85.1 26.2712L84.6562 26.0675C85.3138 25.515 85.9913 24.9812 86.6813 24.4925C90.6088 21.6887 94.9463 19.4762 99.485 17.8475C104.676 15.9925 110.186 15.0062 115.702 15.05H115.92L115.965 15.2562C116.905 20.0587 116.627 25.0275 115.755 29.8162C115.089 33.3825 113.981 36.9287 112.533 40.2537C110.755 44.3287 108.426 48.1812 105.74 51.7162L105.625 51.8675L105.649 51.68L106.264 46.8862V46.885ZM106.264 46.885L105.75 51.6912L105.659 51.655C108.524 47.7612 110.939 43.5137 112.701 39.0125C114.474 34.535 115.601 29.7612 115.94 24.9562C116.144 21.77 116.084 18.515 115.435 15.385L115.698 15.5925C112.975 15.5925 110.251 15.8262 107.571 16.3087C102.21 17.2762 97.02 19.1562 92.2375 21.7587C89.86 23.0637 87.5337 24.5175 85.4275 26.225L85.3562 25.7112L94.1062 29.7425L93.74 29.8375C94.995 28.2025 96.415 26.7187 97.92 25.3175C102.227 21.3412 107.526 18.095 113.429 17.3475C113.537 17.3387 114.294 17.2437 114.4 17.235C114.808 19.9075 114.836 22.6162 114.675 25.3075C114.186 33.1337 111.456 40.935 106.264 46.8862V46.885Z" fill="#010101"/>
<path d="M94.5562 74.9263C94.5562 74.9263 86.4674 79.8613 75.6174 79.8613H75.5774C64.7274 79.8613 56.6387 74.9263 56.6387 74.9263" fill="#E01915"/>
<path d="M75.5882 77.5175C102.437 77.5175 113.386 63.1625 113.386 63.1625C113.007 62.2175 111.824 61.1087 111.824 61.1087C114.967 58.675 117.256 58.8912 117.256 58.8912C115.101 57.275 109.952 55.425 109.952 55.425C114.187 55.0725 117.862 56.5525 117.862 56.5525C114.477 53.0925 107.711 50.11 107.711 50.11C107.711 50.11 101.141 22.0375 75.5882 22.0375C50.0357 22.0375 43.4657 50.11 43.4657 50.11C43.4657 50.11 36.6982 53.0925 33.3145 56.5525C33.3145 56.5525 36.9882 55.0712 41.2245 55.425C41.2245 55.425 36.0757 57.275 33.9207 58.8912C33.9207 58.8912 36.2107 58.675 39.352 61.1087C39.352 61.1087 38.1682 62.2162 37.7907 63.1625C37.7907 63.1625 48.7395 77.5175 75.5882 77.5175Z" fill="#FBFBFB"/>
<path d="M38.9043 63.9212C38.9043 63.9212 42.8843 59.6637 50.218 59.3887C50.218 59.3887 44.688 62.5812 43.343 67.9725C43.343 67.9725 41.0693 67.1562 38.9043 63.9212Z" fill="#F54E48"/>
<path d="M42.8226 52.33C42.8226 52.33 36.5051 54.6613 34.5176 55.875C34.5176 55.875 39.2576 54.5613 42.8063 55.225C42.8063 55.225 42.2251 53.8775 42.8226 52.33Z" fill="#F54E48"/>
<path d="M69.9696 24.1025C69.9834 24.825 69.8071 25.7763 69.7809 26.5C69.7109 28.4725 69.8296 30.39 70.2059 32.3275C69.4921 31.7725 68.9696 31.1075 68.4259 30.4163C67.2034 28.815 66.6271 27.0438 65.6309 25.3525C66.8971 24.785 69.7221 24.1275 69.9696 24.1013V24.1025Z" fill="#F54E48"/>
<path d="M79.8093 23.9063C79.548 24.8363 79.4656 25.5663 79.1818 26.4938C78.3143 29.3313 77.033 32.0038 75.608 34.6363C73.1755 32.4713 72.3768 26.7738 71.998 23.7813C73.8518 23.4688 77.0818 23.34 79.808 23.9075L79.8093 23.9063Z" fill="#F54E48"/>
<path d="M62.8757 31.6412C66.7257 31.7862 62.262 34.96 60.6007 34.9712C59.072 35.2387 58.2795 34.4812 59.5182 33.2275C60.3445 32.3387 61.6095 31.7275 62.877 31.6425L62.8757 31.6412Z" fill="#3B3334"/>
<path d="M61.6524 121.685C61.6524 121.685 59.9437 120.839 57.8412 119.726C55.8487 118.671 50.8074 116.099 47.6762 117.556C45.0487 118.779 44.6412 120.804 44.5349 121.509C44.4287 122.214 43.6762 127.644 52.2412 127.433C60.8062 127.221 63.7712 124.256 63.7712 124.256" fill="#FBFBFB"/>
<path d="M61.6525 121.685C57.8925 120.151 51.065 115.738 47.24 118.25C45.5313 119.268 44.6613 121.085 44.965 123.054C45.56 126.936 50.2913 127.196 53.4325 127.036C55.2325 126.961 57.0437 126.764 58.8 126.354C59.8988 126.098 60.9837 125.755 62.0137 125.289C62.6237 125.004 63.2463 124.685 63.7713 124.256C63.115 124.896 62.3088 125.368 61.4875 125.776C58.995 126.984 56.2175 127.501 53.4738 127.718C50.7838 127.93 47.4775 127.914 45.3963 125.839C43.9738 124.391 43.705 122.119 44.4238 120.273C45.1313 118.448 46.975 117.086 48.8838 116.809C53.32 116.341 57.9087 119.653 61.655 121.686L61.6525 121.685Z" fill="#231F20"/>
<mask id="mask2_217_591" style="mask-type:luminance" maskUnits="userSpaceOnUse" x="44" y="117" width="20" height="11">
<path d="M61.6524 121.685C61.6524 121.685 59.9437 120.839 57.8412 119.726C55.8487 118.671 50.8074 116.099 47.6762 117.556C45.0487 118.779 44.6412 120.804 44.5349 121.509C44.4287 122.214 43.6762 127.644 52.2412 127.433C60.8062 127.221 63.7712 124.256 63.7712 124.256" fill="white"/>
</mask>
<g mask="url(#mask2_217_591)">
<path opacity="0.2" d="M44.6066 121.656C44.8566 122.08 45.6366 123.063 46.9241 122.568L47.1454 123.504C47.1454 123.504 49.4454 125.789 52.6654 124.413C52.7266 124.386 52.8941 124.775 52.9566 124.75C52.9566 124.75 56.3454 126.268 59.1454 123.321C60.9254 121.449 59.3941 120.639 59.3941 120.639L63.3829 120.774V125.84L53.5529 128.133L45.1354 126.99L43.4941 122.401L44.6054 121.656H44.6066Z" fill="#231D02"/>
</g>
<path d="M47.3945 121.09C46.957 122.64 46.897 124.476 47.8757 125.824C48.1757 126.24 48.7345 126.621 49.172 126.874L48.4895 127.474C46.392 125.887 46.3732 123.292 47.3945 121.09Z" fill="#231F20"/>
<path d="M52.8634 123.737C52.6872 125.04 53.0609 126.717 54.5659 126.931L54.2534 127.627C52.5097 126.917 52.2759 125.329 52.8634 123.737Z" fill="#231F20"/>
<path d="M89.775 121.685C89.775 121.685 91.4513 120.775 93.5863 119.726C96.7625 118.166 101.253 116.358 103.751 117.556C106.364 118.809 106.786 120.804 106.893 121.509C106.999 122.214 107.751 127.644 99.1862 127.433C90.6212 127.221 87.6562 124.256 87.6562 124.256" fill="#FBFBFB"/>
<path d="M89.7757 121.685C93.2345 119.674 98.4732 116.481 102.558 116.831C103.049 116.886 103.549 117.012 103.992 117.232C105.316 117.854 106.469 118.904 107.011 120.3C107.942 122.684 107.156 125.51 104.839 126.752C101.641 128.561 95.927 127.711 92.512 126.766C91.4232 126.431 90.3195 126.017 89.3282 125.455C88.737 125.121 88.1382 124.737 87.6582 124.256C88.3682 124.819 89.202 125.216 90.0382 125.554C92.5632 126.546 95.287 126.917 97.9845 127.036C101.122 127.195 105.846 126.946 106.461 123.077C106.822 120.835 105.639 118.927 103.642 117.947C100.262 116.285 93.0707 120.217 89.7757 121.686V121.685Z" fill="#231F20"/>
<mask id="mask3_217_591" style="mask-type:luminance" maskUnits="userSpaceOnUse" x="87" y="117" width="20" height="11">
<path d="M89.775 121.685C89.775 121.685 91.4838 120.839 93.5863 119.726C95.5788 118.671 100.62 116.099 103.751 117.556C106.379 118.779 106.786 120.804 106.893 121.509C106.999 122.214 107.751 127.644 99.1862 127.433C90.6212 127.221 87.6562 124.256 87.6562 124.256" fill="white"/>
</mask>
<g mask="url(#mask3_217_591)">
<path opacity="0.2" d="M106.821 121.656C106.571 122.08 105.762 123.106 104.474 122.613L104.282 123.504C104.282 123.504 101.984 125.791 98.7637 124.414C98.7024 124.388 98.5337 124.774 98.4712 124.75C98.4712 124.75 95.0824 126.268 92.2824 123.321C90.5024 121.449 92.0337 120.639 92.0337 120.639L88.0449 120.774V125.84L97.8749 128.133L106.292 126.99L107.934 122.401L106.822 121.656H106.821Z" fill="#231D02"/>
</g>
<path d="M104.035 121.09C105.056 123.294 105.042 125.851 102.945 127.437L102.18 126.871C102.617 126.619 103.252 126.24 103.552 125.824C104.531 124.476 104.472 122.64 104.033 121.09H104.035Z" fill="#231F20"/>
<path d="M98.5638 123.737C99.1526 125.33 98.9338 126.936 97.1913 127.646L96.6738 126.989C98.1788 126.775 98.7401 125.04 98.5638 123.737Z" fill="#231F20"/>
<path d="M75.5787 48.325C76.7709 48.325 77.7374 47.9114 77.7374 47.4012C77.7374 46.8911 76.7709 46.4775 75.5787 46.4775C74.3864 46.4775 73.4199 46.8911 73.4199 47.4012C73.4199 47.9114 74.3864 48.325 75.5787 48.325Z" fill="#231F20"/>
<path d="M58.328 39.3575C52.758 39.415 49.2517 43.0662 49.0742 47.775C49.0192 49.225 49.5455 50.625 50.4442 51.875C50.4842 51.93 50.5692 51.8825 50.5442 51.8187C49.9017 50.2487 48.7555 46.4025 52.2905 45.1225L58.1492 40.515C58.1492 40.515 58.6017 38.7225 63.7242 41.4087C63.7867 41.4412 63.8405 41.3562 63.7867 41.3125C62.2455 40.0887 60.3517 39.3362 58.3292 39.3575H58.328Z" fill="#D5C2C3"/>
<path d="M65.6415 48.3338C65.6415 52.31 63.0477 54.44 59.0077 54.44C54.9677 54.44 51.3965 51.1638 51.3965 47.1875C51.3965 43.2113 54.3327 40.6325 58.3727 40.6325C62.4127 40.6325 65.6415 44.3575 65.6415 48.3338Z" fill="#231F20"/>
<mask id="mask4_217_591" style="mask-type:luminance" maskUnits="userSpaceOnUse" x="51" y="40" width="15" height="15">
<path d="M65.6415 48.3338C65.6415 52.31 63.0477 54.44 59.0077 54.44C54.9677 54.44 51.3965 51.1638 51.3965 47.1875C51.3965 43.2113 54.3327 40.6325 58.3727 40.6325C62.4127 40.6325 65.6415 44.3575 65.6415 48.3338Z" fill="white"/>
</mask>
<g mask="url(#mask4_217_591)">
<path d="M59.9549 57.0225C63.0463 57.0225 65.5524 54.5556 65.5524 51.5125C65.5524 48.4694 63.0463 46.0025 59.9549 46.0025C56.8635 46.0025 54.3574 48.4694 54.3574 51.5125C54.3574 54.5556 56.8635 57.0225 59.9549 57.0225Z" fill="#8B8DA8"/>
</g>
<path d="M55.9138 45.84C57.2206 45.3551 57.9894 44.1792 57.631 43.2135C57.2727 42.2478 55.9228 41.8581 54.6161 42.3431C53.3093 42.828 52.5405 44.004 52.8989 44.9696C53.2572 45.9353 54.6071 46.325 55.9138 45.84Z" fill="#FBFBFB"/>
<path d="M66.5996 54.5112C68.6496 67.1 74.7984 68.2637 75.5996 68.2637C76.4009 68.2637 82.3809 67.0987 84.4296 54.51C83.6471 54.7012 82.7046 54.6912 81.4321 54.4975C79.5834 54.215 76.3509 51.94 75.6471 51.4312C75.5646 51.3712 75.4546 51.3712 75.3721 51.4312C74.6696 51.94 71.4484 54.215 69.6009 54.4962C68.3284 54.69 67.3859 54.7 66.6034 54.5087H66.6009L66.5996 54.5112Z" fill="#AF1E3A"/>
<mask id="mask5_217_591" style="mask-type:luminance" maskUnits="userSpaceOnUse" x="66" y="51" width="19" height="18">
<path d="M66.5996 54.5112C68.6496 67.1 74.7984 68.2637 75.5996 68.2637C76.4009 68.2637 82.3809 67.0987 84.4296 54.51C83.6471 54.7012 82.7046 54.6912 81.4321 54.4975C79.5834 54.215 76.3509 51.94 75.6471 51.4312C75.5646 51.3712 75.4546 51.3712 75.3721 51.4312C74.6696 51.94 71.4484 54.215 69.6009 54.4962C68.3284 54.69 67.3859 54.7 66.6034 54.5087H66.6009L66.5996 54.5112Z" fill="white"/>
</mask>
<g mask="url(#mask5_217_591)">
<path d="M69.853 63.6499C69.4555 64.1787 69.268 64.8362 69.308 65.4974C69.5393 69.3012 71.1205 73.5899 75.4005 73.5899C80.0643 73.5899 83.8455 70.3399 83.8455 66.3324C83.8455 63.0387 81.293 60.2599 77.7955 59.3724C77.5243 59.3762 72.9793 59.4899 69.853 63.6499Z" fill="#E7B5C6"/>
<path d="M77.7962 59.3725C77.0362 59.18 76.2338 59.075 75.4013 59.075C72.3875 59.075 69.745 60.4325 68.25 62.4737L69.2775 64.4899C72.3863 59.5062 77.5075 59.3762 77.795 59.3737L77.7962 59.3725Z" fill="#F698BE"/>
</g>
<path d="M67.874 54.8975C66.7302 54.8975 65.889 54.6438 65.1152 54.1013L65.4015 53.6913C66.4077 54.3963 67.574 54.5525 69.5615 54.2488C71.3615 53.9738 74.594 51.6838 75.224 51.2275C75.394 51.1038 75.6227 51.1038 75.7927 51.2275C76.4252 51.6838 79.669 53.9738 81.4702 54.2488C83.4577 54.5513 84.624 54.395 85.6302 53.6913L85.9165 54.1013C84.7915 54.8888 83.524 55.0688 81.394 54.7438C79.534 54.46 76.4302 52.305 75.509 51.64C74.5902 52.305 71.4977 54.46 69.6377 54.7438C68.974 54.845 68.3927 54.8975 67.8752 54.8975H67.874Z" fill="#231F20"/>
<path d="M75.5992 68.5137C75.5792 68.5137 73.6292 68.4888 71.393 66.285C68.9217 63.85 67.2267 59.9013 66.3555 54.5488L66.8492 54.4688C68.9942 67.645 75.5342 68.0137 75.5992 68.0137C75.6642 68.0137 82.0367 67.645 84.1817 54.4688L84.6755 54.5488C83.8042 59.9025 82.138 63.85 79.723 66.2825C77.5342 68.4875 75.618 68.5125 75.5992 68.5125V68.5137Z" fill="#231F20"/>
<path d="M76.3321 46.9775C76.3383 47.09 75.8496 47.0525 75.2796 47.085C74.7096 47.1175 74.2758 47.2075 74.2696 47.095C74.2633 46.9825 74.7358 46.745 75.3046 46.7125C75.8733 46.68 76.3246 46.865 76.3308 46.9775H76.3321Z" fill="white"/>
<path d="M97.8195 97.0225C97.8195 97.0225 94.967 117.35 88.1095 124.688C81.252 132.026 74.6958 127.313 75.4408 121.344C76.1795 115.428 79.1908 110.991 80.3283 103.509" fill="#FBFBFB"/>
<mask id="mask6_217_591" style="mask-type:luminance" maskUnits="userSpaceOnUse" x="75" y="97" width="23" height="32">
<path d="M97.6418 97.0225C97.6418 97.0225 94.7893 117.35 87.9318 124.688C81.0743 132.026 74.5181 127.313 75.2631 121.344C76.0018 115.428 79.0131 110.991 80.1506 103.509" fill="white"/>
</mask>
<g mask="url(#mask6_217_591)">
<path opacity="0.2" d="M96.0552 106.186C96.0552 106.186 88.8989 122.744 85.2277 124.161L84.7839 125.013C84.7839 125.013 81.0427 127.558 78.8777 125.241C78.8777 125.241 78.8614 124.566 78.6189 124.688C77.3252 125.335 75.9427 124.664 75.2539 123.409L75.8489 128.053L87.7952 129.335L97.0952 107.223L96.0539 106.188L96.0552 106.186Z" fill="#231D02"/>
</g>
<path d="M97.2165 99.38C97.2165 99.38 93.589 103.095 85.709 102.179C85.709 102.179 89.5527 106 96.2777 105.111C96.2777 105.111 97.264 102.25 97.2165 99.38Z" fill="#F54E48"/>
<path d="M95.6844 107.273C95.6844 107.273 91.0156 110.34 84.6094 107.99C84.6094 107.99 88.6094 113.619 93.8769 112.971C93.8769 112.971 95.4231 110.224 95.6844 107.274V107.273Z" fill="#F54E48"/>
<path d="M97.8179 97.0225C96.9516 103.917 95.4891 110.799 92.9266 117.277C91.5916 120.519 89.9304 123.764 87.2529 126.12C86.1779 127.079 84.9654 127.9 83.5991 128.39C79.7416 129.857 75.9179 127.76 75.1391 123.705C74.8479 122.281 75.1154 120.825 75.4166 119.434C76.3279 115.337 78.2166 111.572 79.3554 107.551C79.7454 106.22 80.0604 104.87 80.3254 103.507C80.1504 104.886 79.9141 106.26 79.5891 107.614C78.5991 111.915 76.6779 115.972 75.9454 120.33C75.9066 120.614 75.8454 121.062 75.8054 121.345C75.4466 124.024 76.8229 126.932 79.4954 127.766C81.5616 128.427 83.7854 127.621 85.4929 126.409C87.5916 124.95 89.1729 122.912 90.4141 120.684C94.3366 113.374 96.2016 105.112 97.8166 97.0212L97.8179 97.0225Z" fill="#231F20"/>
<path d="M53.6094 97.0225C53.6094 97.0225 56.4619 117.35 63.3194 124.688C70.1769 132.026 76.7331 127.313 75.9881 121.344C75.2494 115.428 72.2381 110.991 71.1006 103.509" fill="#FBFBFB"/>
<path d="M54.154 99.38C54.154 99.38 57.7815 103.095 65.6615 102.179C65.6615 102.179 61.8178 106 55.0928 105.111C55.0928 105.111 54.1065 102.25 54.154 99.38Z" fill="#F54E48"/>
<path d="M55.6836 107.273C55.6836 107.273 60.3523 110.34 66.7586 107.99C66.7586 107.99 62.7586 113.619 57.4911 112.971C57.4911 112.971 55.9448 110.224 55.6836 107.274V107.273Z" fill="#F54E48"/>
<path d="M53.6087 97.0225C55.2237 105.113 57.0899 113.375 61.0112 120.685C62.2524 122.913 63.8337 124.951 65.9324 126.41C67.6399 127.623 69.8637 128.43 71.9299 127.768C74.6024 126.934 75.9787 124.028 75.6199 121.346C75.5812 121.063 75.5187 120.614 75.4799 120.331C74.7474 115.974 72.8262 111.916 71.8362 107.615C71.5112 106.263 71.2749 104.888 71.0999 103.509C71.3649 104.871 71.6799 106.221 72.0699 107.553C73.2087 111.574 75.0974 115.339 76.0087 119.435C76.3099 120.825 76.5774 122.281 76.2862 123.706C75.5074 127.76 71.6849 129.86 67.8262 128.391C66.4599 127.901 65.2474 127.079 64.1724 126.121C61.4949 123.765 59.8349 120.52 58.4987 117.279C55.9374 110.8 54.4749 103.919 53.6074 97.0238L53.6087 97.0225Z" fill="#231F20"/>
<path d="M112.638 63.9212C112.638 63.9212 108.658 59.6637 101.324 59.3887C101.324 59.3887 106.854 62.5812 108.199 67.9725C108.199 67.9725 110.473 67.1562 112.638 63.9212Z" fill="#F54E48"/>
<path d="M108.721 52.33C108.721 52.33 115.038 54.6613 117.026 55.875C117.026 55.875 112.286 54.5613 108.737 55.225C108.737 55.225 109.318 53.8775 108.721 52.33Z" fill="#F54E48"/>
<path d="M88.6658 31.6412C84.8158 31.7862 89.2796 34.96 90.9408 34.9712C92.4696 35.2387 93.2621 34.4812 92.0233 33.2275C91.1971 32.3387 89.9321 31.7275 88.6646 31.6425L88.6658 31.6412Z" fill="#3B3334"/>
<path d="M93.2171 39.3575C98.7871 39.415 102.293 43.0662 102.471 47.775C102.526 49.225 102 50.625 101.101 51.875C101.061 51.93 100.976 51.8825 101.001 51.8187C101.643 50.2487 102.79 46.4025 99.2546 45.1225L93.3959 40.515C93.3959 40.515 92.9434 38.7225 87.8209 41.4087C87.7584 41.4412 87.7046 41.3562 87.7584 41.3125C89.2996 40.0887 91.1934 39.3362 93.2159 39.3575H93.2171Z" fill="#D5C2C3"/>
<path d="M85.9004 48.3338C85.9004 52.31 88.4941 54.44 92.5341 54.44C96.5741 54.44 100.145 51.1638 100.145 47.1875C100.145 43.2113 97.2091 40.6325 93.1691 40.6325C89.1291 40.6325 85.9004 44.3575 85.9004 48.3338Z" fill="#231F20"/>
<mask id="mask7_217_591" style="mask-type:luminance" maskUnits="userSpaceOnUse" x="85" y="40" width="16" height="15">
<path d="M85.9004 48.3338C85.9004 52.31 88.4941 54.44 92.5341 54.44C96.5741 54.44 100.145 51.1638 100.145 47.1875C100.145 43.2113 97.2091 40.6325 93.1691 40.6325C89.1291 40.6325 85.9004 44.3575 85.9004 48.3338Z" fill="white"/>
</mask>
<g mask="url(#mask7_217_591)">
<path d="M91.5877 57.0225C94.6792 57.0225 97.1852 54.5556 97.1852 51.5125C97.1852 48.4694 94.6792 46.0025 91.5877 46.0025C88.4963 46.0025 85.9902 48.4694 85.9902 51.5125C85.9902 54.5556 88.4963 57.0225 91.5877 57.0225Z" fill="#8B8DA8"/>
</g>
<path d="M98.6427 44.9653C99.0011 43.9996 98.2323 42.8237 96.9255 42.3387C95.6188 41.8538 94.2689 42.2435 93.9106 43.2092C93.5522 44.1748 94.321 45.3508 95.6278 45.8357C96.9345 46.3206 98.2844 45.9309 98.6427 44.9653Z" fill="#FBFBFB"/>
<path d="M75.5869 77.8925C69.4281 77.8925 63.5969 77.1338 58.2531 75.635C53.9731 74.4363 49.9956 72.7625 46.4294 70.6625C40.3431 67.0775 37.6044 63.5388 37.4906 63.3888L37.3619 63.22L37.4406 63.0225C37.7206 62.3213 38.3831 61.5638 38.7794 61.1488C35.9881 59.1188 33.9719 59.2625 33.9519 59.2638L32.6494 59.3738L33.6931 58.59C35.0744 57.555 37.5994 56.4463 39.3131 55.755C36.0544 55.87 33.4819 56.8875 33.4519 56.8988L31.7969 57.5638L33.0444 56.2888C36.1831 53.08 42.0519 50.335 43.1444 49.8413C43.4444 48.685 45.2444 42.23 49.6344 35.86C52.4719 31.7425 55.8206 28.4613 59.5881 26.105C64.3044 23.1563 69.6869 21.6613 75.5856 21.6613C81.4844 21.6613 86.8681 23.1563 91.5831 26.105C95.3506 28.4613 98.7006 31.7425 101.537 35.86C105.927 42.23 107.727 48.6838 108.027 49.8413C109.119 50.3363 114.988 53.08 118.127 56.2888L119.374 57.5638L117.718 56.8988C117.688 56.8863 115.114 55.8688 111.857 55.755C113.571 56.4463 116.097 57.5538 117.477 58.59L118.542 59.3888L117.217 59.2638C117.198 59.2625 115.182 59.1188 112.391 61.1488C112.787 61.5638 113.449 62.3213 113.729 63.0225L113.808 63.22L113.679 63.3888C113.566 63.5375 110.827 67.0775 104.741 70.6625C101.174 72.7625 97.1969 74.4363 92.9169 75.635C87.5731 77.1325 81.7406 77.8925 75.5831 77.8925H75.5869ZM38.2269 63.1063C38.8556 63.86 41.6206 66.9675 46.8481 70.0388C52.3631 73.28 61.8256 77.1425 75.5881 77.1425C89.3506 77.1425 98.8131 73.28 104.328 70.0388C109.556 66.9675 112.321 63.86 112.949 63.1063C112.534 62.2938 111.579 61.3925 111.569 61.3825L111.248 61.0813L111.596 60.8125C113.512 59.3288 115.128 58.795 116.144 58.6075C113.778 57.205 109.871 55.7938 109.826 55.7775L108.202 55.1938L109.921 55.05C112.496 54.835 114.844 55.275 116.339 55.6725C112.853 52.8025 107.618 50.4775 107.558 50.4513L107.387 50.3763L107.344 50.1938C107.328 50.1238 105.656 43.145 100.908 36.265C96.5469 29.945 88.6144 22.4113 75.5869 22.4113C62.5594 22.4113 54.6269 29.945 50.2656 36.265C45.5181 43.145 43.8456 50.1238 43.8294 50.1938L43.7869 50.3763L43.6156 50.4513C43.5569 50.4775 38.3206 52.8025 34.8344 55.6725C36.3294 55.275 38.6781 54.835 41.2531 55.05L42.9719 55.1938L41.3494 55.7775C41.3044 55.7938 37.3969 57.205 35.0306 58.6075C36.0469 58.7938 37.6631 59.3275 39.5794 60.8125L39.9269 61.0813L39.6056 61.3825C39.5956 61.3925 38.6394 62.2938 38.2256 63.1063H38.2269Z" fill="#010101"/>
<path d="M39.1282 60.8075C40.0032 60.3338 40.9007 59.885 41.8532 59.6038C41.0182 60.1063 40.282 60.7513 39.5732 61.4113L39.127 60.8088L39.1282 60.8075Z" fill="#010101"/>
<path d="M111.594 61.4113C110.887 60.7513 110.149 60.1063 109.314 59.6038C109.788 59.7375 110.249 59.9288 110.702 60.1338C111.158 60.3438 111.598 60.5638 112.039 60.8075L111.593 61.41L111.594 61.4113Z" fill="#010101"/>
<path d="M82.3013 24.4537C83.8038 24.7587 85.1963 25.2925 86.3576 25.9137C85.4026 26.8987 84.8426 27.7387 83.9338 29.0112C83.0251 30.2837 81.9501 31.4787 80.7588 32.52L80.7363 32.54C80.9851 31.6962 81.0776 30.83 81.2501 29.9725C81.6276 28.0987 81.9763 26.3375 82.3026 24.455L82.3013 24.4537Z" fill="#F54E48"/>
<path d="M94.5569 74.9263C91.9594 76.63 89.0469 77.8575 86.0806 78.7675C83.5006 79.555 80.7944 80.065 78.1031 80.2625C72.2781 80.6938 66.3694 79.59 61.0206 77.2675C59.5031 76.5963 58.0144 75.85 56.6406 74.9275C58.1244 75.655 59.6494 76.2738 61.2006 76.81C65.8219 78.4375 70.6994 79.3338 75.5981 79.3625C82.1419 79.3188 88.6544 77.7563 94.5556 74.9275L94.5569 74.9263Z" fill="#231F20"/>
<mask id="mask8_217_591" style="mask-type:luminance" maskUnits="userSpaceOnUse" x="53" y="97" width="24" height="32">
<path d="M53.6094 97.0225C53.6094 97.0225 56.4619 117.35 63.3194 124.688C70.1769 132.026 76.7331 127.313 75.9881 121.344C75.2494 115.428 72.2381 110.991 71.1006 103.509" fill="white"/>
</mask>
<g mask="url(#mask8_217_591)">
<path opacity="0.2" d="M55.1963 106.186C55.1963 106.186 62.3525 122.744 66.0238 124.161L66.4675 125.013C66.4675 125.013 70.2087 127.558 72.3737 125.241C72.3737 125.241 72.39 124.566 72.6325 124.688C73.9263 125.335 75.3087 124.664 75.9975 123.409L75.4025 128.053L63.4563 129.335L54.1562 107.223L55.1975 106.188L55.1963 106.186Z" fill="#231D02"/>
</g>
<mask id="mask9_217_591" style="mask-type:luminance" maskUnits="userSpaceOnUse" x="33" y="22" width="85" height="56">
<path d="M75.5882 77.5175C102.437 77.5175 113.386 63.1625 113.386 63.1625C113.007 62.2175 111.824 61.1087 111.824 61.1087C114.967 58.675 117.256 58.8912 117.256 58.8912C115.101 57.275 109.952 55.425 109.952 55.425C114.187 55.0725 117.862 56.5525 117.862 56.5525C114.477 53.0925 107.711 50.11 107.711 50.11C107.711 50.11 101.141 22.0375 75.5882 22.0375C50.0357 22.0375 43.4657 50.11 43.4657 50.11C43.4657 50.11 36.6982 53.0925 33.3145 56.5525C33.3145 56.5525 36.9882 55.0712 41.2245 55.425C41.2245 55.425 36.0757 57.275 33.9207 58.8912C33.9207 58.8912 36.2107 58.675 39.352 61.1087C39.352 61.1087 38.1682 62.2162 37.7907 63.1625C37.7907 63.1625 48.7395 77.5175 75.5882 77.5175Z" fill="white"/>
</mask>
<g mask="url(#mask9_217_591)">
<path opacity="0.2" d="M39.8433 60.9C39.8433 60.9 51.957 74.1212 74.8958 74.1212C97.8345 74.1212 112.708 60.7225 112.708 60.7225H117.278V78.8625H36.3633V60.9H39.8445H39.8433Z" fill="#231D02"/>
<path opacity="0.2" d="M36.0707 58.075C36.0707 58.075 40.1782 58.075 42.9482 58.9862C42.9482 58.9862 40.2832 60.4975 39.842 61.08C39.842 61.08 36.0482 58.8962 34.6895 58.7262L36.0707 58.0737V58.075Z" fill="#231D02"/>
<path opacity="0.2" d="M115.118 58.075C115.118 58.075 111.01 58.075 108.24 58.9862C108.24 58.9862 110.905 60.4975 111.346 61.08C111.346 61.08 115.14 58.8962 116.499 58.7262L115.118 58.0737V58.075Z" fill="#231D02"/>
</g>
<path d="M66.0215 122.776C66.2565 123.881 66.5802 124.971 67.0377 126.001C67.294 126.546 67.704 127.424 68.1365 127.787L67.2765 127.927C66.2052 126.53 66.094 124.484 66.0215 122.776Z" fill="#231F20"/>
<path d="M71.6504 123.024C72.0991 123.73 72.5066 124.461 72.8591 125.224C73.2204 126.019 73.5641 126.799 73.5616 127.695L72.5679 127.731C72.6454 127.421 72.6366 126.964 72.5966 126.576C72.4579 125.365 72.0791 124.169 71.6504 123.024Z" fill="#231F20"/>
<path d="M85.4548 122.776C85.2198 123.881 84.8961 124.971 84.4386 126.001C84.1823 126.546 83.7723 127.424 83.3398 127.787L84.1998 127.927C85.2711 126.53 85.3823 124.484 85.4548 122.776Z" fill="#231F20"/>
<path d="M79.6144 122.917C79.1656 123.624 78.7581 124.355 78.4056 125.117C78.0444 125.912 77.7006 126.692 77.7031 127.589L78.6969 127.625C78.6194 127.315 78.6281 126.857 78.6681 126.47C78.8069 125.259 79.1856 124.062 79.6144 122.917Z" fill="#231F20"/>
<path d="M52.9365 59.0865C55.8555 58.8434 58.1374 57.6313 58.0331 56.3792C57.9289 55.1271 55.478 54.3091 52.5589 54.5522C49.6398 54.7953 47.358 56.0073 47.4622 57.2595C47.5665 58.5116 50.0174 59.3296 52.9365 59.0865Z" fill="#F49493"/>
<mask id="mask10_217_591" style="mask-type:luminance" maskUnits="userSpaceOnUse" x="47" y="54" width="12" height="6">
<path d="M52.9365 59.0865C55.8555 58.8434 58.1374 57.6313 58.0331 56.3792C57.9289 55.1271 55.478 54.3091 52.5589 54.5522C49.6398 54.7953 47.358 56.0073 47.4622 57.2595C47.5665 58.5116 50.0174 59.3296 52.9365 59.0865Z" fill="white"/>
</mask>
<g mask="url(#mask10_217_591)">
<path d="M48.558 55.48C48.558 55.48 47.593 56.35 47.8517 57.15C48.1105 57.95 49.923 58.84 52.5817 58.75C55.2392 58.66 56.8267 57.9525 57.528 57.4687C58.2292 56.985 57.1467 59.3875 57.1467 59.3875H46.5117L47.233 55.715L48.5592 55.48H48.558Z" fill="#F54E48"/>
</g>
<path d="M104.08 57.2571C104.184 56.0049 101.902 54.7929 98.9833 54.5498C96.0643 54.3067 93.6134 55.1247 93.5091 56.3768C93.4048 57.6289 95.6867 58.841 98.6058 59.0841C101.525 59.3272 103.976 58.5092 104.08 57.2571Z" fill="#F49493"/>
<mask id="mask11_217_591" style="mask-type:luminance" maskUnits="userSpaceOnUse" x="93" y="54" width="12" height="6">
<path d="M104.08 57.2571C104.184 56.0049 101.902 54.7929 98.9833 54.5498C96.0643 54.3067 93.6134 55.1247 93.5091 56.3768C93.4048 57.6289 95.6867 58.841 98.6058 59.0841C101.525 59.3272 103.976 58.5092 104.08 57.2571Z" fill="white"/>
</mask>
<g mask="url(#mask11_217_591)">
<path d="M102.984 55.48C102.984 55.48 103.949 56.35 103.69 57.15C103.431 57.95 101.619 58.84 98.96 58.75C96.3025 58.66 94.715 57.9525 94.0137 57.4688C93.3125 56.985 94.395 59.3875 94.395 59.3875H105.03L104.309 55.715L102.982 55.48H102.984Z" fill="#F54E48"/>
</g>
<path d="M76.1855 97.97C81.5972 97.97 85.9842 93.5829 85.9842 88.1712C85.9842 82.7595 81.5972 78.3725 76.1855 78.3725C70.7738 78.3725 66.3867 82.7595 66.3867 88.1712C66.3867 93.5829 70.7738 97.97 76.1855 97.97Z" fill="#5E0012"/>
<path d="M76.1743 97.875C81.3803 97.875 85.6005 93.6548 85.6005 88.4488C85.6005 83.2428 81.3803 79.0225 76.1743 79.0225C70.9683 79.0225 66.748 83.2428 66.748 88.4488C66.748 93.6548 70.9683 97.875 76.1743 97.875Z" fill="black"/>
<path d="M85.3909 88.43C85.3909 93.5037 81.2721 97.6225 76.1984 97.6225C71.1246 97.6225 67.0059 93.5037 67.0059 88.43C67.0059 83.3562 71.1246 79.2375 76.1984 79.2375C81.2721 79.2375 85.3909 83.3562 85.3909 88.43Z" fill="white"/>
<path d="M71.8242 96.5187C73.1292 97.2262 74.6192 97.6212 76.2005 97.6212C77.7817 97.6212 79.2805 97.2162 80.5767 96.5187L76.2005 89.9925L71.8242 96.5187Z" fill="#F54E48"/>
<path d="M70.5828 88.42V86.9038H75.4453V85.35H70.5828V83.8425H81.8253V85.35H76.9628V86.9038H81.8253V88.4113H76.9628L81.8441 95.6825C84.0041 94 85.4016 91.3713 85.4016 88.42C85.3928 83.355 81.2741 79.2363 76.2003 79.2363C71.1266 79.2363 67.0078 83.355 67.0078 88.4288C67.0078 91.38 68.3953 94.0088 70.5653 95.6913L75.4466 88.42H70.5841H70.5828Z" fill="#F54E48"/>
<path d="M80.0193 95.69L76.1993 89.9925L72.373 95.7C73.5293 96.1962 74.8205 96.475 76.1855 96.475C77.5505 96.475 78.8581 96.1937 80.0193 95.6912V95.69Z" fill="#E01915"/>
<path d="M85.0984 88.4013C85.0984 83.9425 81.1084 79.8925 76.1859 79.8925C71.2634 79.8925 67.2734 83.9438 67.2734 88.4013C67.2734 91.1213 68.7609 93.5263 71.0372 94.9888L75.4459 88.42H70.5834V86.9038H75.4459V85.35H70.5834V83.8425H81.8259V85.35H76.9634V86.9038H81.8259V88.4113H76.9634L81.3659 94.9688C83.6247 93.505 85.0997 91.11 85.0997 88.4013H85.0984Z" fill="#E01915"/>
<path d="M60.1258 138.181C60.1258 138.961 59.922 139.642 59.5158 140.227C59.1095 140.812 58.5333 141.266 57.787 141.589C57.0408 141.911 56.1495 142.074 55.1145 142.074C54.012 142.074 53.082 141.899 52.3245 141.548C51.567 141.196 50.9933 140.718 50.6045 140.111C50.2145 139.505 50.0195 138.806 50.0195 138.015H52.6758C52.6758 138.327 52.762 138.616 52.9345 138.884C53.107 139.151 53.3708 139.365 53.7283 139.526C54.0845 139.687 54.547 139.769 55.1145 139.769C55.627 139.769 56.0558 139.703 56.4008 139.569C56.7458 139.435 57.007 139.249 57.1858 139.009C57.3633 138.77 57.4533 138.494 57.4533 138.182C57.4533 137.792 57.2858 137.484 56.952 137.255C56.6183 137.028 56.0783 136.879 55.332 136.812L54.4133 136.729C53.1995 136.629 52.2308 136.25 51.507 135.592C50.7833 134.935 50.4208 134.068 50.4208 132.986C50.4208 132.208 50.607 131.532 50.9808 130.965C51.3533 130.397 51.8745 129.96 52.542 129.654C53.2108 129.347 54.0008 129.195 54.9145 129.195C55.8283 129.195 56.6933 129.36 57.3783 129.688C58.0633 130.016 58.5895 130.479 58.957 131.074C59.3245 131.67 59.5083 132.369 59.5083 133.17H56.8358C56.8358 132.869 56.7633 132.594 56.6183 132.344C56.4733 132.094 56.2595 131.89 55.9758 131.734C55.692 131.577 55.3383 131.5 54.9145 131.5C54.5133 131.5 54.177 131.566 53.9045 131.7C53.632 131.834 53.4283 132.015 53.2945 132.242C53.1608 132.471 53.0945 132.719 53.0945 132.986C53.0945 133.331 53.217 133.632 53.462 133.889C53.707 134.145 54.1083 134.295 54.6645 134.34L55.5995 134.424C56.4908 134.501 57.2758 134.694 57.9545 135C58.6333 135.306 59.1658 135.724 59.5495 136.253C59.9333 136.781 60.1258 137.425 60.1258 138.181Z" fill="white"/>
<path d="M73.8894 133.195C73.6106 132.455 73.1994 131.784 72.6531 131.182C72.1069 130.581 71.4281 130.1 70.6156 129.738C69.8031 129.376 68.8619 129.195 67.7931 129.195C66.7244 129.195 65.7831 129.376 64.9706 129.738C64.1581 130.1 63.4781 130.581 62.9331 131.182C62.3869 131.784 61.9781 132.455 61.7056 133.195C61.4331 133.936 61.2969 134.685 61.2969 135.441V135.809C61.2969 136.487 61.4281 137.195 61.6894 137.93C61.9506 138.665 62.3494 139.348 62.8831 139.976C63.4181 140.605 64.0944 141.112 64.9131 141.496C65.7319 141.88 66.6919 142.072 67.7944 142.072C68.8969 142.072 69.8569 141.88 70.6756 141.496C71.4944 141.112 72.1706 140.605 72.7056 139.976C73.2406 139.348 73.6406 138.665 73.9081 137.93C74.1756 137.195 74.3094 136.487 74.3094 135.809V135.441C74.3094 134.684 74.1706 133.935 73.8919 133.195H73.8894ZM71.2844 137.145C71.1169 137.613 70.8694 138.025 70.5406 138.381C70.2119 138.738 69.8169 139.016 69.3544 139.216C68.8919 139.416 68.3719 139.518 67.7931 139.518C67.2144 139.518 66.6969 139.417 66.2394 139.216C65.7831 139.016 65.3906 138.738 65.0619 138.381C64.7331 138.025 64.4856 137.613 64.3181 137.145C64.1506 136.678 64.0681 136.176 64.0681 135.641C64.0681 135.074 64.1519 134.553 64.3181 134.08C64.4856 133.606 64.7331 133.195 65.0619 132.844C65.3906 132.493 65.7831 132.223 66.2394 132.034C66.6956 131.845 67.2131 131.75 67.7931 131.75C68.3731 131.75 68.8894 131.845 69.3469 132.034C69.8031 132.224 70.1956 132.493 70.5244 132.844C70.8531 133.195 71.1031 133.606 71.2756 134.08C71.4481 134.554 71.5344 135.074 71.5344 135.641C71.5344 136.176 71.4506 136.676 71.2844 137.145Z" fill="white"/>
<path d="M82.9359 141.756H86.1096L82.9946 137.39C83.7184 137.095 84.2809 136.655 84.6809 136.069C85.0871 135.474 85.2909 134.724 85.2909 133.822V133.555C85.2909 132.642 85.0909 131.885 84.6896 131.284C84.2884 130.683 83.7146 130.229 82.9696 129.923C82.2234 129.616 81.3434 129.464 80.3309 129.464H75.5371V141.758H78.2759V137.849H80.2721L82.9359 141.758V141.756ZM78.2746 131.784H80.5459C80.9471 131.784 81.2946 131.865 81.5896 132.026C81.8846 132.187 82.1134 132.416 82.2746 132.711C82.4359 133.006 82.5171 133.349 82.5171 133.739C82.5171 134.129 82.4359 134.471 82.2746 134.766C82.1134 135.061 81.8846 135.29 81.5896 135.451C81.2946 135.612 80.9471 135.694 80.5459 135.694H78.2746V131.785V131.784Z" fill="white"/>
<path d="M97.1391 141.756H99.9791L95.8028 129.562H91.3766L87.3516 141.756H90.0916L91.0566 138.732H96.1503L97.1403 141.756H97.1391ZM91.7803 136.461L93.2678 131.801H93.8791L95.4053 136.461H91.7803Z" fill="white"/>
</g>
<defs>
<linearGradient id="paint0_linear_217_591" x1="-26.5321" y1="74.9413" x2="216.165" y2="74.9413" gradientUnits="userSpaceOnUse">
<stop offset="0.12" stop-color="#FAF49C"/>
<stop offset="0.14" stop-color="#E28204"/>
<stop offset="0.17" stop-color="#4F1B05"/>
<stop offset="0.21" stop-color="#CA7200"/>
<stop offset="0.26" stop-color="#4F1D01"/>
<stop offset="0.32" stop-color="#CD9621"/>
<stop offset="0.35" stop-color="#FAF49D"/>
<stop offset="0.4" stop-color="#EFD254"/>
<stop offset="0.46" stop-color="#BA4F02"/>
<stop offset="0.5" stop-color="#F59B05"/>
<stop offset="0.56" stop-color="#5E2505"/>
<stop offset="0.62" stop-color="#BB6700"/>
<stop offset="0.63" stop-color="#5F2902"/>
<stop offset="0.64" stop-color="#441602"/>
<stop offset="0.67" stop-color="#8A5103"/>
<stop offset="0.69" stop-color="#E28204"/>
<stop offset="0.72" stop-color="#FAF49C"/>
</linearGradient>
<linearGradient id="paint1_linear_217_591" x1="75" y1="-110.813" x2="75" y2="193.387" gradientUnits="userSpaceOnUse">
<stop stop-color="#FAF49E"/>
<stop offset="0.07" stop-color="#441100"/>
<stop offset="0.09" stop-color="#FAF49C"/>
<stop offset="0.12" stop-color="#E28204"/>
<stop offset="0.17" stop-color="#4F1B05"/>
<stop offset="0.21" stop-color="#CA7200"/>
<stop offset="0.26" stop-color="#4F1D01"/>
<stop offset="0.32" stop-color="#CD9621"/>
<stop offset="0.35" stop-color="#FAF49D"/>
<stop offset="0.4" stop-color="#EFD254"/>
<stop offset="0.46" stop-color="#BA4F02"/>
<stop offset="0.5" stop-color="#F59B05"/>
<stop offset="0.56" stop-color="#5E2505"/>
<stop offset="0.62" stop-color="#BB6700"/>
<stop offset="0.63" stop-color="#773901"/>
<stop offset="0.64" stop-color="#5F2902"/>
<stop offset="0.65" stop-color="#4E1D02"/>
<stop offset="0.66" stop-color="#441602"/>
<stop offset="0.67" stop-color="#411402"/>
<stop offset="0.68" stop-color="#4A1B02"/>
<stop offset="0.69" stop-color="#623003"/>
<stop offset="0.71" stop-color="#8A5103"/>
<stop offset="0.73" stop-color="#BB7A04"/>
<stop offset="0.76" stop-color="#F5E78A"/>
<stop offset="0.77" stop-color="#F2DE72"/>
<stop offset="0.79" stop-color="#F0D761"/>
<stop offset="0.8" stop-color="#EFD357"/>
<stop offset="0.82" stop-color="#EFD254"/>
<stop offset="0.83" stop-color="#E5B844"/>
<stop offset="0.84" stop-color="#D7932C"/>
<stop offset="0.85" stop-color="#CC7619"/>
<stop offset="0.86" stop-color="#C4620C"/>
<stop offset="0.87" stop-color="#C05504"/>
<stop offset="0.88" stop-color="#BE5201"/>
<stop offset="0.89" stop-color="#DD7C04"/>
<stop offset="0.9" stop-color="#EC9105"/>
<stop offset="0.92" stop-color="#EE9305"/>
<stop offset="1" stop-color="#4E1A05"/>
</linearGradient>
<linearGradient id="paint2_linear_217_591" x1="35.215" y1="33.5012" x2="66.2813" y2="33.5012" gradientUnits="userSpaceOnUse">
<stop stop-color="#644749"/>
<stop offset="1" stop-color="#6D5D62"/>
</linearGradient>
<linearGradient id="paint3_linear_217_591" x1="116.295" y1="-1.55833e-05" x2="85.2273" y2="-1.55833e-05" gradientUnits="userSpaceOnUse">
<stop stop-color="#644749"/>
<stop offset="1" stop-color="#6D5D62"/>
</linearGradient>
<clipPath id="clip0_217_591">
<rect width="150" height="150" fill="white"/>
</clipPath>
</defs>
</svg>
