<svg xmlns="http://www.w3.org/2000/svg" width="40" height="40" fill="none"><g clip-path="url(#a)"><path fill="#038900" d="M40 20c0 11.046-8.955 20-20 20C8.953 40 0 31.046 0 20S8.953 0 20 0c11.045 0 20 8.954 20 20Z"/><path fill="#10670E" d="M12.928 20v-7.071H20V20h-7.07ZM20 34.142V40c2.49 0 4.873-.455 7.072-1.286v-4.572h-7.072Zm-14.142 0a20.016 20.016 0 0 0 7.071 4.572v-4.572h-7.07Zm0-21.213H1.286A19.957 19.957 0 0 0-.001 20h5.858v-7.071ZM1.286 27.07a20.018 20.018 0 0 0 4.571 7.071v-7.07H1.286ZM34.142 12.93h4.571a20.02 20.02 0 0 0-4.571-7.071v7.07Zm0 14.142h4.571A19.957 19.957 0 0 0 40 20h-5.857v7.071ZM27.07 12.93V5.858H20v7.07h7.07Zm0 14.142v7.071h7.072v-7.07H27.07Zm-14.142 0v7.071H20v-7.07h-7.07ZM20 20v7.071h7.072V20h-7.072ZM5.857 20v7.071h7.071V20h-7.07Zm7.071-7.071V5.858h-7.07v7.07h7.07ZM20 5.858V0c-2.489 0-4.872.455-7.07 1.286v4.572h7.07ZM27.071 20h7.07v-7.071h-7.07V20Zm7.07-14.142a20.018 20.018 0 0 0-7.07-4.572v4.572h7.07Z"/><path fill="#1D6C16" d="M40 20.003C39.996 31.048 31.043 40 20 40 8.954 40 0 31.046 0 20c5.327 4.478 11.062 10.607 20.002 10.607 8.939 0 14.965-6.129 19.997-10.604Z" opacity=".33"/><path fill="#038900" d="M20 0C8.953 0 0 8.954 0 20s8.954 20 20 20c11.045 0 20-8.954 20-20S31.044 0 20 0Zm0 37.643c-9.745 0-17.644-7.899-17.644-17.643S10.256 2.357 20 2.357c9.744 0 17.643 7.899 17.643 17.643S29.743 37.643 20 37.643Z" opacity=".67"/><path fill="#fff" d="M0 19.997C0 8.952 8.954 0 20 0c11.044 0 20 8.954 20 20-5.328-4.478-11.064-10.607-20.003-10.607S5.032 15.522 0 19.997Z" opacity=".1"/><path fill="#000" d="M40 20.003C39.996 31.048 31.043 40 20 40 8.954 40 0 31.046 0 20c5.327 4.478 11.062 10.607 20.002 10.607 8.939 0 14.965-6.129 19.997-10.604Z" opacity=".25"/><path fill="#fff" d="M0 19.997C0 8.952 8.954 0 20 0c11.044 0 20 8.954 20 20-5.328-4.478-11.064-10.607-20.003-10.607S5.032 15.522 0 19.997Z" opacity=".15"/><path fill="url(#b)" d="m19.995 32.063-9.821-9.811 9.821-13.456 9.821 13.456-9.82 9.81Z"/><path fill="#fff" d="M37.677 20 20 37.678 2.322 20h6.187l11.49 11.49L31.49 20h6.188Z"/><path fill="#fff" d="M35.4 28.616c-.199.353-.409.699-.63 1.037L20 9.393 5.228 29.653a17.573 17.573 0 0 1-.63-1.037L19.98 2.357h.04L35.4 28.616Z"/><path fill="#fff" d="M20 9.393a3.536 3.536 0 1 1 0-7.07 3.536 3.536 0 0 1 0 7.07Z"/><path fill="url(#c)" d="M20 39.984c-11.046 0-20-8.95-20-19.992C0 8.951 8.953 0 20 0c11.045 0 20 8.95 20 19.992 0 11.042-8.954 19.992-20 19.992Zm0-37.628c-9.745 0-17.644 7.896-17.644 17.636 0 9.74 7.9 17.636 17.644 17.636 9.744 0 17.643-7.896 17.643-17.636 0-9.74-7.9-17.636-17.643-17.636Z"/><path fill="url(#d)" fill-rule="evenodd" d="M-.016 20.008c0 11.054 8.961 20.015 20.016 20.015 11.054 0 20.015-8.961 20.015-20.015S31.054-.007 20-.007C8.945-.007-.016 8.953-.016 20.008ZM19.968.86H20v.01c10.552 0 19.146 8.57 19.157 19.117.02 10.557-8.564 19.169-19.126 19.179H20C9.448 39.156.853 30.586.841 20.039A19.008 19.008 0 0 1 6.434 6.491C10.048 2.868 14.853.86 19.968.86Z" clip-rule="evenodd"/><path fill="url(#e)" d="m20.01 6.346 1.409 2.101c-.43.216-.9.354-1.41.354-.509 0-.998-.118-1.41-.354l1.41-2.1Zm0-3.436a2.941 2.941 0 0 0-2.957 2.945c0 .963.431 1.787 1.136 2.337l1.566-2.337h-1.547v-.49h1.566v-.491h-1.566v-.491h3.602v.49h-1.566v.492h1.566v.49h-1.566l1.566 2.337a2.915 2.915 0 0 0 1.136-2.337 2.95 2.95 0 0 0-2.937-2.945Z"/><path fill="#fff" d="m17.012 19.791 1.282 1.305 1.311-1.247-1.339-1.333c.057-.145.057-.29.057-.464 0-.435-.17-.84-.456-1.16-.484-.463-1.196-.608-1.795-.318-.057.029-.085.058-.085.116s0 .116.057.145l.627.637a.469.469 0 0 1 .114.32c0 .144-.057.26-.143.347-.17.174-.484.174-.683 0l-.627-.638a.216.216 0 0 0-.143-.058c-.057 0-.085.058-.114.087a1.777 1.777 0 0 0-.142.696c0 .435.17.87.456 1.16.427.434 1.054.58 1.623.405ZM23.736 24.66l.627.639a.216.216 0 0 0 .142.058c.057 0 .085-.03.114-.087.085-.203.143-.435.143-.696 0-.435-.172-.84-.485-1.16a1.562 1.562 0 0 0-1.595-.405l-.997-1.015-1.225 1.334.968.985c-.057.145-.057.319-.057.464 0 .435.171.84.485 1.16.313.318.712.463 1.14.463.227 0 .455-.058.654-.145.057-.029.086-.058.086-.116s0-.116-.029-.145l-.626-.637a.484.484 0 0 1-.143-.348.54.54 0 0 1 .143-.348.477.477 0 0 1 .655 0ZM20.545 19.936l-4.758 4.551a.425.425 0 0 0 0 .609l.77.782c.17.174.456.174.598 0l4.473-4.84-1.083-1.102ZM20.66 17.936a.22.22 0 0 0 .227.058.351.351 0 0 1 .456.087l.228.232c.142.145.142.377.028.55l-.57.58 1.083 1.102.285-.29c.627-.638 1.538-.058 2.108 1.768.085.261.484.232.513-.058.256-2.435-.57-3.275-.969-3.681l-.826-.84c-.057-.058-.142-.087-.228-.03a.352.352 0 0 1-.456-.087l-.228-.26a.46.46 0 0 1-.085-.464.228.228 0 0 0-.057-.232l-.541-.55a.306.306 0 0 0-.428 0l-1.054 1.159a.319.319 0 0 0 0 .434l.513.522Z"/></g><defs><linearGradient id="c" x1="-7.097" x2="57.672" y1="19.992" y2="19.992" gradientUnits="userSpaceOnUse"><stop offset=".12" stop-color="#FAF49C"/><stop offset=".141" stop-color="#E28204"/><stop offset=".17" stop-color="#4F1B05"/><stop offset=".21" stop-color="#CA7200"/><stop offset=".26" stop-color="#4F1D01"/><stop offset=".32" stop-color="#CD9621"/><stop offset=".35" stop-color="#FAF49D"/><stop offset=".4" stop-color="#EFD254"/><stop offset=".46" stop-color="#BA4F02"/><stop offset=".5" stop-color="#F59B05"/><stop offset=".56" stop-color="#5E2505"/><stop offset=".617" stop-color="#BB6700"/><stop offset=".63" stop-color="#5F2902"/><stop offset=".643" stop-color="#441602"/><stop offset=".673" stop-color="#8A5103"/><stop offset=".691" stop-color="#E28204"/><stop offset=".718" stop-color="#FAF49C"/></linearGradient><linearGradient id="d" x1="20" x2="20" y1="-29.58" y2="51.602" gradientUnits="userSpaceOnUse"><stop offset=".01" stop-color="#FAF49E"/><stop offset=".07" stop-color="#410"/><stop offset=".09" stop-color="#FAF49C"/><stop offset=".12" stop-color="#E28204"/><stop offset=".17" stop-color="#4F1B05"/><stop offset=".21" stop-color="#CA7200"/><stop offset=".26" stop-color="#4F1D01"/><stop offset=".32" stop-color="#CD9621"/><stop offset=".35" stop-color="#FAF49D"/><stop offset=".4" stop-color="#EFD254"/><stop offset=".46" stop-color="#BA4F02"/><stop offset=".5" stop-color="#F59B05"/><stop offset=".56" stop-color="#5E2505"/><stop offset=".62" stop-color="#BB6700"/><stop offset=".63" stop-color="#773901"/><stop offset=".64" stop-color="#5F2902"/><stop offset=".65" stop-color="#4E1D02"/><stop offset=".66" stop-color="#441602"/><stop offset=".67" stop-color="#411402"/><stop offset=".68" stop-color="#4A1B02"/><stop offset=".69" stop-color="#623003"/><stop offset=".71" stop-color="#8A5103"/><stop offset=".73" stop-color="#BB7A04"/><stop offset=".76" stop-color="#F5E78A"/><stop offset=".77" stop-color="#F2DE72"/><stop offset=".79" stop-color="#F0D761"/><stop offset=".8" stop-color="#EFD357"/><stop offset=".82" stop-color="#EFD254"/><stop offset=".83" stop-color="#E5B844"/><stop offset=".84" stop-color="#D7932C"/><stop offset=".85" stop-color="#CC7619"/><stop offset=".86" stop-color="#C4620C"/><stop offset=".87" stop-color="#C05504"/><stop offset=".88" stop-color="#BE5201"/><stop offset=".89" stop-color="#DD7C04"/><stop offset=".9" stop-color="#EC9105"/><stop offset=".92" stop-color="#EE9305"/><stop offset="1" stop-color="#4E1A05"/></linearGradient><linearGradient id="e" x1="20" x2="20" y1="8.801" y2="2.91" gradientUnits="userSpaceOnUse"><stop stop-color="#AE8625"/><stop offset="1" stop-color="#EDC967"/></linearGradient><radialGradient id="b" cx="0" cy="0" r="1" gradientTransform="matrix(0 11.6334 -9.82104 0 19.995 20.43)" gradientUnits="userSpaceOnUse"><stop offset=".4" stop-color="#77BE75"/><stop offset="1" stop-color="#1B880A"/></radialGradient><clipPath id="a"><path fill="#fff" d="M0 0h40v40H0z"/></clipPath></defs></svg>