<svg viewBox="0 0 830 830" fill="none"
  xmlns="http://www.w3.org/2000/svg">
  <path d="M830 415C830 644.197 644.197 830 415 830C185.803 830 0 644.201 0 415C0 185.799 185.803 0 415 0C644.197 0 830 185.803 830 415Z" fill="#00004E"/>
  <path d="M268.275 415V268.275H415V415H268.275ZM415 708.45V830C466.655 830 516.106 820.557 561.725 803.312V708.45H415ZM121.55 708.45C162.796 749.696 212.69 782.298 268.275 803.312V708.45H121.55ZM121.55 268.275H26.6877C9.4434 313.894 0 363.345 0 415H121.55V268.275ZM26.6877 561.725C47.702 617.31 80.3035 667.2 121.55 708.45V561.725H26.6877ZM708.45 268.275H803.312C782.298 212.69 749.696 162.8 708.45 121.55V268.275ZM708.45 561.725H803.312C820.557 516.106 830 466.655 830 415H708.45V561.725ZM561.725 268.275V121.55H415V268.275H561.725ZM561.725 561.725V708.45H708.45V561.725H561.725ZM268.275 561.725V708.45H415V561.725H268.275ZM415 415V561.725H561.725V415H415ZM121.55 415V561.725H268.275V415H121.55ZM268.275 268.275V121.55H121.55V268.275H268.275ZM415 121.55V0C363.345 0 313.894 9.4434 268.275 26.6877V121.55H415ZM561.725 415H708.45V268.275H561.725V415ZM708.45 121.55C667.204 80.3035 617.31 47.702 561.725 26.6877V121.55H708.45Z" fill="#00006D"/>
  <path opacity="0.33" d="M830 415.073C829.959 644.238 644.173 830 415 830C185.827 830 0 644.201 0 415C110.545 507.926 229.556 635.088 415.045 635.088C600.534 635.088 725.568 507.926 830 415.073Z" fill="black"/>
  <path d="M414.91 665.56L211.125 461.91L414.91 182.59L618.695 461.91L414.91 665.56Z" fill="#00004E"/>
  <path opacity="0.67" d="M415 0C185.803 0 0 185.803 0 415C0 644.197 185.803 830 415 830C644.197 830 830 644.197 830 415C830 185.803 644.201 0 415 0ZM415 781.092C212.813 781.092 48.9084 617.187 48.9084 415C48.9084 212.813 212.813 48.9084 415 48.9084C617.187 48.9084 781.092 212.813 781.092 415C781.092 617.187 617.187 781.092 415 781.092Z" fill="#00004E"/>
  <path opacity="0.1" d="M0 414.927C0.040757 185.762 185.827 0 415 0C644.173 0 830 185.803 830 415C719.455 322.074 600.444 194.912 414.955 194.912C229.466 194.912 104.432 322.074 0 414.927Z" fill="white"/>
  <path d="M781.813 415L415 781.813L48.1875 415H176.572L415 653.428L653.429 415H781.813Z" fill="white"/>
  <path d="M734.543 593.774C730.435 601.106 726.078 608.279 721.489 615.29L414.996 194.914L108.508 615.29C103.918 608.279 99.5614 601.106 95.4531 593.774L414.572 48.9141C414.715 48.9141 414.853 48.9141 414.996 48.9141C415.139 48.9141 415.277 48.9141 415.42 48.9141L734.543 593.778V593.774Z" fill="white"/>
  <path d="M414.995 194.913C374.479 194.913 341.633 162.067 341.633 121.55C341.633 81.0336 374.479 48.1875 414.995 48.1875C455.512 48.1875 488.358 81.0336 488.358 121.55C488.358 162.067 455.512 194.913 414.995 194.913Z" fill="white"/>
  <path d="M415.206 131.739L444.454 175.349C435.516 179.832 425.767 182.685 415.206 182.685C404.646 182.685 394.49 180.24 385.959 175.349L415.206 131.739ZM415.206 60.4141C381.085 60.4141 353.867 87.7213 353.867 121.55C353.867 141.52 362.805 158.638 377.429 170.05L409.924 121.55H377.832V111.36H410.328V101.171H377.832V90.9818H452.577V101.171H420.081V111.36H452.577V121.55H420.081L452.577 170.05C467.2 158.638 476.138 141.52 476.138 121.55C476.138 87.7213 448.517 60.4141 415.206 60.4141Z" fill="url(#paint0_linear_1112_14989)"/>
  <path d="M490.91 341.281V367.161H500.589V385.75H490.91V411.448H450.719V420.194H493.286V437.691H450.719V446.621H496.391V465.027H450.719V475.599H498.763L497.671 495.281H448.893C427.7 495.281 410.529 493.822 397.376 490.908C384.22 487.993 373.077 482.887 363.943 475.599C357.002 484.713 349.022 492.244 340.011 498.199L329.414 479.61C337.696 473.292 344.274 466.914 349.145 460.474C343.785 453.672 338.242 444.62 332.52 433.318L347.865 419.285C352.128 428.032 356.204 435.384 360.104 441.339C363.271 433.318 365.521 423.842 366.866 412.907H336.176V393.588C346.772 381.923 355.723 370.442 363.03 359.144H334.35V339.096H384.407V359.144C384.163 359.629 382.639 362.303 379.839 367.165H426.057V358.598H390.982V341.285H426.057V331.809H450.719V341.285H490.91V341.281ZM426.053 394.676V385.746H378.188V369.709C372.584 378.822 367.045 386.782 361.563 393.584H387.322V412.903C385.373 429.426 381.049 444.616 374.349 458.465C376.908 460.654 379.219 462.353 381.29 463.568V446.617H426.049V437.687H389.148V420.19H426.049V411.444H392.799V394.676H426.049H426.053ZM426.053 475.049V465.027H383.486C393.472 470.619 407.659 473.957 426.053 475.049ZM450.715 358.594V367.161H469.349V358.594H450.715ZM450.715 394.676H469.349V385.746H450.715V394.676Z" fill="white"/>
  <defs>
    <linearGradient id="paint0_linear_1112_14989" x1="415.003" y1="182.685" x2="415.003" y2="60.4141" gradientUnits="userSpaceOnUse">
      <stop stop-color="#AE8625"/>
      <stop offset="1" stop-color="#EDC967"/>
    </linearGradient>
  </defs>
</svg>
