<svg width="150" height="150" viewBox="0 0 150 150" fill="none" xmlns="http://www.w3.org/2000/svg">
<g clip-path="url(#clip0_144_330)">
<path d="M149.999 75C149.999 116.421 116.42 150 74.9994 150C33.5786 150 0 116.422 0 75C0 33.5781 33.5786 0 74.9994 0C116.42 0 149.999 33.5789 149.999 75Z" fill="#890000"/>
<path d="M48.483 75V48.4834H74.9994V75H48.483ZM74.9994 128.033V150C84.3346 150 93.2714 148.293 101.516 145.177V128.033H74.9994ZM21.9666 128.033C29.4207 135.487 38.4377 141.379 48.483 145.177V128.033H21.9666ZM21.9666 48.4834H4.82304C1.70662 56.7279 0 65.6647 0 75H21.9666V48.4834ZM4.82304 101.517C8.62077 111.562 14.5126 120.578 21.9666 128.033V101.517H4.82304ZM128.032 48.4834H145.176C141.378 38.438 135.486 29.4216 128.032 21.9668V48.4834ZM128.032 101.517H145.176C148.292 93.2721 149.999 84.3353 149.999 75H128.032V101.517ZM101.516 48.4834V21.9668H74.9994V48.4834H101.516ZM101.516 101.517V128.033H128.032V101.517H101.516ZM48.483 101.517V128.033H74.9994V101.517H48.483ZM74.9994 75V101.517H101.516V75H74.9994ZM21.9666 75V101.517H48.483V75H21.9666ZM48.483 48.4834V21.9668H21.9666V48.4834H48.483ZM74.9994 21.9668V0C65.6642 0 56.7274 1.70664 48.483 4.82308V21.9668H74.9994ZM101.516 75H128.032V48.4834H101.516V75ZM128.032 21.9668C120.578 14.5127 111.561 8.62084 101.516 4.82308V21.9668H128.032Z" fill="#EE1122"/>
<path opacity="0.33" d="M149.999 75.0133C149.991 116.429 116.416 150 74.9994 150C33.583 150 0 116.422 0 75C19.9779 91.7938 41.4856 114.775 75.0075 114.775C108.529 114.775 131.126 91.7938 149.999 75.0133Z" fill="#DD0011"/>
<path opacity="0.67" d="M74.9994 0C33.5786 0 0 33.5789 0 75C0 116.421 33.5786 150 74.9994 150C116.42 150 149.999 116.421 149.999 75C149.999 33.5789 116.421 0 74.9994 0ZM74.9994 141.161C38.4598 141.161 8.8388 111.54 8.8388 75C8.8388 38.4601 38.4598 8.83887 74.9994 8.83887C111.539 8.83887 141.16 38.4601 141.16 75C141.16 111.54 111.539 141.161 74.9994 141.161Z" fill="#890000"/>
<path opacity="0.1" d="M0 74.9867C0.00736566 33.5715 33.583 0 74.9994 0C116.416 0 149.999 33.5789 149.999 75C130.021 58.2062 108.513 35.2251 74.9913 35.2251C41.4694 35.2251 18.873 58.2062 0 74.9867Z" fill="white"/>
<path opacity="0.2" d="M149.999 75.0133C149.991 116.429 116.416 150 74.9994 150C33.583 150 0 116.422 0 75C19.9779 91.7938 41.4856 114.775 75.0075 114.775C108.529 114.775 131.126 91.7938 149.999 75.0133Z" fill="black"/>
<path opacity="0.25" d="M0 74.9867C0.00736566 33.5715 33.583 0 74.9994 0C116.416 0 149.999 33.5789 149.999 75C130.021 58.2062 108.513 35.2251 74.9913 35.2251C41.4694 35.2251 18.873 58.2062 0 74.9867Z" fill="white"/>
<path d="M74.9829 120.235L38.1543 83.4452L74.9829 32.9855L111.812 83.4452L74.9829 120.235Z" fill="url(#paint0_radial_144_330)"/>
<path d="M141.291 75L75 141.292L8.70898 75H31.9108L75 118.089L118.089 75H141.291Z" fill="white"/>
<path d="M132.749 107.308C132.007 108.633 131.219 109.93 130.39 111.197L75.0002 35.2251L19.6112 111.197C18.7818 109.93 17.9944 108.633 17.252 107.308L74.9236 8.8396C74.9494 8.8396 74.9744 8.8396 75.0002 8.8396C75.026 8.8396 75.0511 8.8396 75.0768 8.8396L132.749 107.309V107.308Z" fill="white"/>
<path d="M75.0004 35.2251C67.6782 35.2251 61.7422 29.2891 61.7422 21.9668C61.7422 14.6445 67.6782 8.7085 75.0004 8.7085C82.3226 8.7085 88.2586 14.6445 88.2586 21.9668C88.2586 29.2891 82.3226 35.2251 75.0004 35.2251Z" fill="white"/>
<path d="M75 149.941C33.5789 149.941 0 116.375 0 74.9706C0 33.5657 33.5789 1.52588e-05 75 1.52588e-05C116.421 1.52588e-05 150 33.5657 150 74.9706C150 116.375 116.422 149.941 75 149.941ZM75 8.83542C38.4601 8.83542 8.83887 38.445 8.83887 74.9706C8.83887 111.496 38.4601 141.106 75 141.106C111.54 141.106 141.161 111.496 141.161 74.9706C141.161 38.445 111.54 8.83542 75 8.83542Z" fill="url(#paint1_linear_144_330)"/>
<path fill-rule="evenodd" clip-rule="evenodd" d="M-0.0566406 75.0293C-0.0566304 116.482 33.5474 150.086 75.0001 150.086C116.453 150.086 150.057 116.482 150.057 75.0292C150.057 33.5766 116.453 -0.0274658 75.0001 -0.0274658C33.5474 -0.0274658 -0.0566406 33.5766 -0.0566406 75.0293ZM74.8833 3.22642H74.9998V3.26524C114.569 3.26524 146.8 35.4021 146.838 74.9521C146.916 114.541 114.725 146.833 75.1163 146.872H74.9998C35.4303 146.833 3.20005 114.696 3.16122 75.1462C3.12239 55.9728 10.5781 37.9249 24.1303 24.3405C37.6826 10.7561 55.7005 3.22642 74.8833 3.22642Z" fill="url(#paint2_linear_144_330)"/>
<path d="M75.0366 23.7989L80.3222 31.6771C78.7069 32.487 76.945 33.0024 75.0366 33.0024C73.1281 33.0024 71.2926 32.5607 69.7509 31.6771L75.0366 23.7989ZM75.0366 10.9139C68.87 10.9139 63.9512 15.847 63.9512 21.9582C63.9512 25.566 65.5665 28.6584 68.2093 30.72L74.082 21.9582H68.2822V20.1175H74.1549V18.2768H68.2822V16.4361H81.7902V18.2768H75.9175V20.1175H81.7902V21.9582H75.9175L81.7902 30.72C84.433 28.6584 86.0483 25.566 86.0483 21.9582C86.0483 15.847 81.0566 10.9139 75.0366 10.9139Z" fill="url(#paint3_linear_144_330)"/>
<path d="M60 92.9382L71.8065 75.3775H60.26V69.8058H72.5865V67.5806H60.26V62H90.74V67.5717H78.4135V69.7969H90.74V75.3686H79.1845C79.2114 75.4487 91 92.9382 91 92.9382L86.3025 95.9911L75.5 80.0503C72.1113 84.9277 64.7244 96 64.7244 96L60.009 92.9471L60 92.9382Z" fill="white"/>
</g>
<defs>
<radialGradient id="paint0_radial_144_330" cx="0" cy="0" r="1" gradientUnits="userSpaceOnUse" gradientTransform="translate(74.9829 76.6102) rotate(90) scale(43.6248 36.8286)">
<stop offset="0.4" stop-color="#EE1122"/>
<stop offset="1" stop-color="#880A13"/>
</radialGradient>
<linearGradient id="paint1_linear_144_330" x1="-26.6097" y1="74.9706" x2="216.272" y2="74.9706" gradientUnits="userSpaceOnUse">
<stop offset="0.12011" stop-color="#FAF49C"/>
<stop offset="0.141057" stop-color="#E28204"/>
<stop offset="0.17" stop-color="#4F1B05"/>
<stop offset="0.21" stop-color="#CA7200"/>
<stop offset="0.26" stop-color="#4F1D01"/>
<stop offset="0.32" stop-color="#CD9621"/>
<stop offset="0.35" stop-color="#FAF49D"/>
<stop offset="0.4" stop-color="#EFD254"/>
<stop offset="0.46" stop-color="#BA4F02"/>
<stop offset="0.5" stop-color="#F59B05"/>
<stop offset="0.56" stop-color="#5E2505"/>
<stop offset="0.61654" stop-color="#BB6700"/>
<stop offset="0.629956" stop-color="#5F2902"/>
<stop offset="0.642733" stop-color="#441602"/>
<stop offset="0.673398" stop-color="#8A5103"/>
<stop offset="0.690693" stop-color="#E28204"/>
<stop offset="0.718117" stop-color="#FAF49C"/>
</linearGradient>
<linearGradient id="paint2_linear_144_330" x1="75.0001" y1="-110.924" x2="75.0002" y2="193.506" gradientUnits="userSpaceOnUse">
<stop offset="0.01" stop-color="#FAF49E"/>
<stop offset="0.07" stop-color="#441100"/>
<stop offset="0.09" stop-color="#FAF49C"/>
<stop offset="0.12" stop-color="#E28204"/>
<stop offset="0.17" stop-color="#4F1B05"/>
<stop offset="0.21" stop-color="#CA7200"/>
<stop offset="0.26" stop-color="#4F1D01"/>
<stop offset="0.32" stop-color="#CD9621"/>
<stop offset="0.35" stop-color="#FAF49D"/>
<stop offset="0.4" stop-color="#EFD254"/>
<stop offset="0.46" stop-color="#BA4F02"/>
<stop offset="0.5" stop-color="#F59B05"/>
<stop offset="0.56" stop-color="#5E2505"/>
<stop offset="0.62" stop-color="#BB6700"/>
<stop offset="0.63" stop-color="#773901"/>
<stop offset="0.64" stop-color="#5F2902"/>
<stop offset="0.65" stop-color="#4E1D02"/>
<stop offset="0.66" stop-color="#441602"/>
<stop offset="0.67" stop-color="#411402"/>
<stop offset="0.68" stop-color="#4A1B02"/>
<stop offset="0.69" stop-color="#623003"/>
<stop offset="0.71" stop-color="#8A5103"/>
<stop offset="0.73" stop-color="#BB7A04"/>
<stop offset="0.76" stop-color="#F5E78A"/>
<stop offset="0.77" stop-color="#F2DE72"/>
<stop offset="0.79" stop-color="#F0D761"/>
<stop offset="0.8" stop-color="#EFD357"/>
<stop offset="0.82" stop-color="#EFD254"/>
<stop offset="0.83" stop-color="#E5B844"/>
<stop offset="0.84" stop-color="#D7932C"/>
<stop offset="0.85" stop-color="#CC7619"/>
<stop offset="0.86" stop-color="#C4620C"/>
<stop offset="0.87" stop-color="#C05504"/>
<stop offset="0.88" stop-color="#BE5201"/>
<stop offset="0.89" stop-color="#DD7C04"/>
<stop offset="0.9" stop-color="#EC9105"/>
<stop offset="0.92" stop-color="#EE9305"/>
<stop offset="1" stop-color="#4E1A05"/>
</linearGradient>
<linearGradient id="paint3_linear_144_330" x1="74.9998" y1="33.0024" x2="74.9998" y2="10.9139" gradientUnits="userSpaceOnUse">
<stop stop-color="#AE8625"/>
<stop offset="1" stop-color="#EDC967"/>
</linearGradient>
<clipPath id="clip0_144_330">
<rect width="149.999" height="150" fill="white"/>
</clipPath>
</defs>
</svg>
