<svg width="152" height="152" viewBox="0 0 152 152" fill="none" xmlns="http://www.w3.org/2000/svg">
<circle cx="76" cy="76" r="75" fill="#EE1122"/>
<path d="M76 150.941C34.5789 150.941 1 117.375 1 75.9706C1 34.5657 34.5789 1.00002 76 1.00002C117.421 1.00002 151 34.5657 151 75.9706C151 117.375 117.422 150.941 76 150.941ZM76 9.83542C39.4601 9.83542 9.83887 39.445 9.83887 75.9706C9.83887 112.496 39.4601 142.106 76 142.106C112.54 142.106 142.161 112.496 142.161 75.9706C142.161 39.445 112.54 9.83542 76 9.83542Z" fill="url(#paint0_linear_144_322)"/>
<path fill-rule="evenodd" clip-rule="evenodd" d="M0.943359 76.0293C0.94337 117.482 34.5474 151.086 76.0001 151.086C117.453 151.086 151.057 117.482 151.057 76.0292C151.057 34.5766 117.453 0.972534 76.0001 0.972534C34.5474 0.972534 0.943359 34.5766 0.943359 76.0293ZM75.8833 4.22642H75.9998V4.26524C115.569 4.26524 147.8 36.4021 147.838 75.9521C147.916 115.541 115.725 147.833 76.1163 147.872H75.9998C36.4303 147.833 4.20005 115.696 4.16122 76.1462C4.12239 56.9728 11.5781 38.9249 25.1303 25.3405C38.6826 11.7561 56.7005 4.22642 75.8833 4.22642Z" fill="url(#paint1_linear_144_322)"/>
<path opacity="0.2" d="M150.999 76.0133C150.991 117.429 117.416 151 75.9994 151C34.583 151 1 117.422 1 76C20.9779 92.7938 42.4856 115.775 76.0075 115.775C109.529 115.775 132.126 92.7938 150.999 76.0133Z" fill="black"/>
<path opacity="0.25" d="M1 75.9867C1.00737 34.5715 34.583 1 75.9994 1C117.416 1 150.999 34.5789 150.999 76C131.021 59.2062 109.513 36.2251 75.9913 36.2251C42.4694 36.2251 19.873 59.2062 1 75.9867Z" fill="white"/>
<path d="M99.7474 59.379C102.366 56.7677 103.964 55.1748 103.99 55.1487C108.574 50.5789 116.575 54.8484 114.846 61.3767C119.142 55.9321 118.343 50.4875 114.074 46.231C109.006 41.1781 101.83 43.2672 96.9581 48.1373C96.4867 48.6073 94.9807 50.1088 92.7283 52.3676L99.7605 59.379L99.7474 59.379Z" fill="white"/>
<path d="M75.5473 68.5708C66.6294 59.6662 58.2484 51.31 55.1317 48.1895C45.8472 38.9324 30.2507 43.8156 27.4745 56.2062C29.1376 53.3991 32.3852 50.84 35.8293 50.1219C40.609 49.1296 44.6424 51.754 48.0472 55.1748C56.4282 63.531 63.1329 70.2159 68.5151 75.5822L75.5342 68.5708L75.5473 68.5708Z" fill="white"/>
<path d="M124.38 95.6501C122.717 98.4573 119.482 101.016 116.012 101.748C110.695 102.857 106.675 99.6454 102.707 95.6762C100.206 93.1824 92.27 85.2571 83.5092 76.5092C81.1783 78.8333 78.8211 81.1835 76.4902 83.5075C102.694 109.647 78.2318 85.2441 96.7224 103.667C105.981 112.898 121.59 108.093 124.38 95.6501Z" fill="white"/>
<path d="M91.7944 67.3187L84.765 60.3125L60.2679 84.7457L67.2973 91.7518L91.7944 67.3187Z" fill="white"/>
<path d="M52.3162 92.6863C50.915 94.0964 49.5007 95.4935 48.1257 96.8774C43.4507 101.539 35.5935 97.0472 37.2697 90.6625C33.1054 95.9243 33.6162 101.225 37.7281 105.547C43.0317 111.122 50.6138 108.419 55.1579 103.876C55.6686 103.367 57.1746 101.865 59.3484 99.6977C56.677 97.0341 54.346 94.7101 52.3293 92.6863L52.3162 92.6863Z" fill="white"/>
<path d="M108.94 83.4945C110.721 85.2702 112.109 86.6542 112.934 87.4767C117.609 92.1379 113.105 99.9719 106.701 98.3006C111.978 102.453 117.295 101.943 121.63 97.8436C127.221 92.5557 124.511 84.996 119.953 80.4653C118.984 79.4992 117.609 78.1413 115.959 76.4831L108.927 83.4945L108.94 83.4945Z" fill="white"/>
<path d="M118.238 52.1326C119.233 56.8982 116.601 60.9197 113.17 64.3144C112.83 64.6538 103.257 74.1982 92.6759 84.7479C95.4521 87.5159 97.8748 89.9444 99.7081 91.7593C99.7736 91.694 113.013 78.4938 120.176 71.3649C129.461 62.0948 124.563 46.5574 112.136 43.7895C114.951 45.4476 117.518 48.6857 118.238 52.1195L118.238 52.1326Z" fill="white"/>
<path d="M71.8675 119.531C74.0282 117.428 80.8378 110.6 91.7855 99.6716C89.7557 97.6608 88.695 96.6033 88.6295 96.538C88.0533 95.9766 87.2938 95.2062 84.7402 92.6602C74.0413 103.327 64.4032 112.937 64.3508 112.976C53.8353 123.487 61.771 141.322 75.9925 140.996C78.8866 140.93 81.1914 140.317 83.0247 139.416C83.4961 139.194 82.0949 139.768 79.9866 139.716C69.5235 139.52 64.3115 126.868 71.8675 119.531Z" fill="white"/>
<path d="M76.4771 115.888C77.8128 117.22 79.1747 118.577 80.6021 120.014C82.383 121.815 83.208 124.792 82.0557 127.195C80.039 131.438 74.5782 132.365 71.4092 129.192C70.2568 128.03 69.6282 126.542 69.5366 125.067C67.6115 132.026 72.9282 138.737 79.9997 138.88C82.8807 138.959 85.7878 137.875 87.9485 135.89C93.7498 129.819 94.3129 119.779 87.6604 112.989C86.2331 111.566 84.858 110.195 83.5223 108.863C80.7068 111.684 78.3366 114.034 76.4901 115.888L76.4771 115.888Z" fill="white"/>
<path d="M80.4187 15.979C84.845 20.5749 84.7664 27.9649 80.1176 32.4694C79.4497 33.1092 70.3485 42.1965 60.1996 52.3154C62.1377 54.2478 64.5472 56.6632 67.2449 59.3398C70.7544 55.8407 76.8699 49.7563 87.6343 39.0108C98.1498 28.5133 90.214 10.678 75.9794 11.0044C73.2294 11.0697 71.1211 11.5528 68.8294 12.6495C73.2556 11.5658 77.6294 13.0543 80.4057 15.979L80.4187 15.979Z" fill="white"/>
<path d="M33.7602 99.8805C32.4638 93.6786 37.1126 89.2524 41.9186 84.5651C51.6091 74.9294 56.6377 69.9156 59.2829 67.2782L52.2508 60.2668C42.1936 70.2943 33.0138 79.473 31.8352 80.6481C22.5768 89.8791 27.3959 105.443 39.8757 108.224C37.0602 106.565 34.4935 103.34 33.7602 99.8805Z" fill="white"/>
<path d="M75.508 36.1383C72.9675 33.6053 71.3961 32.0385 71.383 32.0255C69.602 30.2237 68.777 27.2468 69.9294 24.8444C71.9461 20.601 77.4068 19.674 80.5759 22.8467C81.7283 24.0088 82.3568 25.4972 82.4485 26.9726C84.3735 20.0134 79.0568 13.3024 71.9854 13.1587C69.1044 13.0804 66.1973 14.1641 64.0365 16.1487C58.2353 22.22 57.6722 32.2605 64.3246 39.0499C64.7699 39.5069 66.2627 40.9953 68.4496 43.1758C71.3568 40.2772 73.7139 37.9271 75.508 36.1514L75.508 36.1383Z" fill="white"/>
<path d="M83.483 44.0898L76.4247 51.1142L100.978 75.5561L108.011 68.5447L83.483 44.0898Z" fill="white"/>
<path d="M43.0579 68.5055C41.9055 67.3696 41.2507 66.7037 38.8674 64.3405C34.284 59.7707 38.5662 51.7931 45.1138 53.5166C39.6531 49.234 34.1924 50.0305 29.9233 54.2869C24.8554 59.3398 26.9507 66.4948 31.8352 71.3519C33.9304 73.4279 35.1483 74.6552 36.0257 75.5169C38.4614 73.0753 40.8055 70.7382 43.0579 68.5055Z" fill="white"/>
<path d="M75.5551 100.895L51.0174 76.4465L43.9824 83.4656L68.5202 107.914L75.5551 100.895Z" fill="white"/>
<defs>
<linearGradient id="paint0_linear_144_322" x1="-25.6097" y1="75.9706" x2="217.272" y2="75.9706" gradientUnits="userSpaceOnUse">
<stop offset="0.12011" stop-color="#FAF49C"/>
<stop offset="0.141057" stop-color="#E28204"/>
<stop offset="0.17" stop-color="#4F1B05"/>
<stop offset="0.21" stop-color="#CA7200"/>
<stop offset="0.26" stop-color="#4F1D01"/>
<stop offset="0.32" stop-color="#CD9621"/>
<stop offset="0.35" stop-color="#FAF49D"/>
<stop offset="0.4" stop-color="#EFD254"/>
<stop offset="0.46" stop-color="#BA4F02"/>
<stop offset="0.5" stop-color="#F59B05"/>
<stop offset="0.56" stop-color="#5E2505"/>
<stop offset="0.61654" stop-color="#BB6700"/>
<stop offset="0.629956" stop-color="#5F2902"/>
<stop offset="0.642733" stop-color="#441602"/>
<stop offset="0.673398" stop-color="#8A5103"/>
<stop offset="0.690693" stop-color="#E28204"/>
<stop offset="0.718117" stop-color="#FAF49C"/>
</linearGradient>
<linearGradient id="paint1_linear_144_322" x1="76.0001" y1="-109.924" x2="76.0002" y2="194.506" gradientUnits="userSpaceOnUse">
<stop offset="0.01" stop-color="#FAF49E"/>
<stop offset="0.07" stop-color="#441100"/>
<stop offset="0.09" stop-color="#FAF49C"/>
<stop offset="0.12" stop-color="#E28204"/>
<stop offset="0.17" stop-color="#4F1B05"/>
<stop offset="0.21" stop-color="#CA7200"/>
<stop offset="0.26" stop-color="#4F1D01"/>
<stop offset="0.32" stop-color="#CD9621"/>
<stop offset="0.35" stop-color="#FAF49D"/>
<stop offset="0.4" stop-color="#EFD254"/>
<stop offset="0.46" stop-color="#BA4F02"/>
<stop offset="0.5" stop-color="#F59B05"/>
<stop offset="0.56" stop-color="#5E2505"/>
<stop offset="0.62" stop-color="#BB6700"/>
<stop offset="0.63" stop-color="#773901"/>
<stop offset="0.64" stop-color="#5F2902"/>
<stop offset="0.65" stop-color="#4E1D02"/>
<stop offset="0.66" stop-color="#441602"/>
<stop offset="0.67" stop-color="#411402"/>
<stop offset="0.68" stop-color="#4A1B02"/>
<stop offset="0.69" stop-color="#623003"/>
<stop offset="0.71" stop-color="#8A5103"/>
<stop offset="0.73" stop-color="#BB7A04"/>
<stop offset="0.76" stop-color="#F5E78A"/>
<stop offset="0.77" stop-color="#F2DE72"/>
<stop offset="0.79" stop-color="#F0D761"/>
<stop offset="0.8" stop-color="#EFD357"/>
<stop offset="0.82" stop-color="#EFD254"/>
<stop offset="0.83" stop-color="#E5B844"/>
<stop offset="0.84" stop-color="#D7932C"/>
<stop offset="0.85" stop-color="#CC7619"/>
<stop offset="0.86" stop-color="#C4620C"/>
<stop offset="0.87" stop-color="#C05504"/>
<stop offset="0.88" stop-color="#BE5201"/>
<stop offset="0.89" stop-color="#DD7C04"/>
<stop offset="0.9" stop-color="#EC9105"/>
<stop offset="0.92" stop-color="#EE9305"/>
<stop offset="1" stop-color="#4E1A05"/>
</linearGradient>
</defs>
</svg>
