<svg xmlns="http://www.w3.org/2000/svg" xmlns:xlink="http://www.w3.org/1999/xlink" viewBox="0 0 400 400">
  <linearGradient id="a" x1="200" x2="200" y1="401" y2="1" gradientTransform="matrix(1 0 0 -1 0 401)" gradientUnits="userSpaceOnUse">
    <stop offset="0" stop-color="#6b8068"/>
    <stop offset=".994" stop-color="#85bb65"/>
  </linearGradient>
  <path fill="url(#a)" d="M400 200c0 110.5-89.5 200-200 200S0 310.5 0 200 89.5 0 200 0s200 89.5 200 200z"/>
  <path fill="#85bb65" d="M397.1 200c0 8.4-.5 16.8-1.6 24.9C383.3 322 300.4 397.1 200 397.1S16.7 322 4.4 224.9c-1-8.2-1.6-16.5-1.6-24.9C2.9 91.1 91.1 2.9 200 2.9S397.1 91.1 397.1 200z"/>
  <path fill="#fff" d="M397.1 200a198 198 0 0 1-2.3 30C304 84 96 84 5.2 230a198 198 0 0 1-2.3-30C2.9 91.2 91.1 2.9 200 2.9S397.1 91.2 397.1 200z" opacity=".2"/>
  <linearGradient id="b" x1="200" x2="200" y1="120.885" y2="3.905" gradientTransform="matrix(1 0 0 -1 0 401)" gradientUnits="userSpaceOnUse">
    <stop offset="0" stop-color="#6b8068"/>
    <stop offset="1" stop-color="#32442e"/>
  </linearGradient>
  <path fill="url(#b)" d="M380.1 280.1c-30.7 68.9-99.8 117-180.1 117s-149.4-48-180.1-117h360.2z" opacity=".5"/>
  <defs>
    <path id="c" d="M397.1 200c0 8.4-.5 16.8-1.6 24.9C383.3 322 300.4 397.1 200 397.1S16.7 322 4.4 224.9c-1-8.2-1.6-16.5-1.6-24.9C2.9 91.1 91.1 2.9 200 2.9S397.1 91.1 397.1 200z"/>
  </defs>
  <clipPath id="d">
    <use xlink:href="#c" overflow="visible"/>
  </clipPath>
  <g clip-path="url(#d)">
    <path fill="#fff" d="m285.9 104.3-52.2-21.1 48.9 27.8-50.4-25 46.6 31.6-48.3-29 44 35.1-45.8-32.6 41.1 38.5-43.1-36.1 37.9 41.6-40.2-39.4 34.5 44.4L222 97.5l31 47-33.5-45.2 27.2 49.3-29.8-47.7 23.2 51.3-26-49.9 19.1 52.9-22-51.8 14.9 54.3-17.9-53.3 10.6 55.3-13.6-54.6 6.2 55.9-9.3-55.5 1.8 56.3-4.9-56.1-2.6 56.2-.5-56.3-7 55.8 3.9-56.1-11.3 55.1 8.3-55.7-15.6 54.1 12.6-54.8-19.8 52.7 16.9-53.7-23.9 51 21-52.2-27.8 48.9 25.1-50.4-31.6 46.6 29-48.3-35.1 44 32.6-45.8-38.5 41.1 36.1-43.1-41.6 37.9 39.4-40.2-44.4 34.6 42.4-37-47 31 45.2-33.5-49.3 27.2L163.2 85l-51.3 23.2 49.9-26-52.7 18.8 51.8-22-54.3 14.9L160 76.1l-55.3 10.6L159.3 73l-55.9 6.2 55.5-9.3-56.3 1.8 56-4.9-56.2-2.6 56.3-.5-55.8-7 56.1 3.9-55.1-11.3 55.7 8.3L105.5 42l54.9 12.6-52.7-19.8 53.7 16.9-51-23.9 52.2 21.1L113.7 21l50.4 25.1-46.6-31.6 48.3 29-44-35.1 45.8 32.7-41.1-38.5 43.1 36.1-37.9-41.5 40.2 39.4-34.6-44.4 36.9 42.4-31-47 33.5 45.2-27.2-49.3 29.8 47.7-23-51.2 26 49.9L163.1-23l22 51.8-14.9-54.3 17.9 53.4-10.6-55.3 13.6 54.6-6.2-55.9 9.3 55.5-1.8-56.3 4.9 56 2.6-56.2.5 56.3 7-55.8-3.9 56.2 11.3-55.1-8.3 55.7 15.6-54.1-12.6 54.8 19.8-52.7-16.9 53.7 23.9-51-21 52.2 27.8-48.9-25 50.4 31.6-46.6-29 48.2 35.1-44-32.6 45.8 38.5-41.1-36.2 43.1L267-.4l-39.4 40.2L272 5.3l-42.5 36.9 47-31-45.2 33.5 49.3-27.2-47.7 29.8 51.3-23.2-49.9 26L287.2 31l-51.8 22 54.3-14.9L236.3 56l55.3-10.6L237 59.1l55.9-6.2-55.5 9.3 56.3-1.8-56 4.9 56.2 2.6-56.3.5 55.8 7-56.2-3.9 55.1 11.3-55.7-8.3 54.1 15.6-54.8-12.6 52.7 19.8-53.7-16.9 51 23.9z"/>
    <path fill="#6d8954" d="m157.8 100.9 42.9-80.4 37.1 80.4h-80z"/>
    <path fill="#abc993" d="M141.9 125.4h92.4l16.7 5h-95l-14.1-5z"/>
    <path fill="#c2d3b4" d="m251.1 130.4 83.3 201h-258l79.5-201h95.2z"/>
    <path fill="#6d8954" d="m141.9 125.4 14 5-79.5 201-33.3-20.7 98.8-185.3z"/>
    <path fill="#fff" d="M221.3 81.2c-2.8 7.3-12.7 12.9-22.8 12.9-9.6 0-20.2-6.3-22.8-12.9 2.6-6.7 10.2-13.5 22.8-13.5 12.6-.1 20 6.2 22.8 13.5z"/>
    <path fill="#6d8954" d="m198.5 82.4 5.2 7.7c-1.6.8-3.3 1.3-5.2 1.3s-3.7-.5-5.2-1.3l5.2-7.7zm0-12.7c-6 0-10.9 4.8-10.9 10.9 0 3.5 1.6 6.6 4.2 8.6l5.8-8.6h-5.7v-1.8h5.8V77h-5.8v-1.8h13.3V77h-5.8v1.8h5.8v1.8h-5.8l5.8 8.6c2.6-2 4.2-5.1 4.2-8.6 0-6.1-4.9-10.9-10.9-10.9z"/>
    <path fill="#6d8954" d="M326.6 313.2c-.1-.3-.2-.5-.3-.8-.1-.3-.2-.5-.3-.8h-22c-.1-5-.1-9.9-.2-14.9h16c-.1-.3-.2-.5-.3-.8-.1-.3-.2-.5-.3-.8h-31.3l-.3-14.9H313c-.1-.3-.2-.5-.3-.8-.1-.3-.2-.5-.3-.8h-9.1c-.1-5-.3-9.9-.4-14.9h3.2c-.1-.3-.2-.5-.3-.8-.1-.3-.2-.5-.3-.8H287l-.3-14.9H299c-.1-.3-.2-.5-.3-.8-.1-.3-.2-.5-.3-.8h-27.7c-.1-5-.2-9.9-.2-14.9h22.1c-.1-.3-.2-.5-.3-.8-.1-.3-.2-.5-.3-.8h-5.7c0-4.6.1-9.2.1-13.9-.3-.7-.5-1.1-.8-1.9-.1-.3-.2-.5-.3-.8h-15c-.1-5-.3-9.9-.4-14.9h9.2c-.1-.3-.2-.5-.3-.8l-.3-.8h-24.3l-.4-14.9h18.4c-.1-.3-.2-.5-.3-.8-.1-.3-.2-.5-.3-.8H238l-.3-14.9H265c-.1-.3-.2-.5-.3-.8-.1-.3-.2-.5-.3-.8h-11c-.1-5-.3-9.9-.4-14.9h5.3c-.1-.3-.2-.5-.3-.8-.1-.3-.2-.5-.3-.8h-19.9c-.1-5-.1-9.9-.2-14.9h14.3c-.1-.3-.2-.5-.3-.8H156c-.1.3-.2.5-.3.8h17.6v14.9H150c-.1.3-.2.5-.3.8-.1.3-.2.5-.3.8h8.5c0 5 0 9.9-.1 14.9h-14.2c-.1.3-.2.5-.3.8-.3.8-.5 1.2-.8 2.1l-.3 13.7H137c-.1.3-.2.5-.3.8-.1.3-.2.5-.3.8h21l-.2 14.9h-26.8c-.1.3-.2.5-.3.8-.1.3-.2.5-.3.8h12c0 5-.1 9.9-.1 14.9h-17.8c-.1.3-.2.5-.3.8-.1.3-.2.5-.3.8h2.6c0 5 0 9.9.1 14.9h-8.4c-.1.3-.2.5-.3.8-.1.3-.2.5-.3.8h25v14.9h-30.9c-.1.3-.2.5-.3.8-.1.3-.2.5-.3.8H126l-.1 14.9h-21.4c-.1.3-.2.5-.3.8-.1.3-.2.5-.3.8h6c0 5-.1 9.9-.1 14.9H97.6c-.1.3-.2.5-.3.8-.1.3-.2.5-.3.8h29v14.9H91c-.1.3-.2.5-.3.8-.1.3-.2.5-.3.8h19.4v14.9H84.5c-.1.3-.2.5-.3.8-.1.3-.2.5-.3.8h242.7zm-74.9-150.5h-29.5c-.1-5-.1-9.9-.2-14.9h29.3c.2 4.9.3 9.9.4 14.9zm-46.6 49.6h-30.4l-.1-14.9H205l.1 14.9zm.2 18.2.1 14.9H175v-14.9h30.3zm32.2 48h-30.4l-.1-14.9h30.4c0 4.9.1 9.9.1 14.9zM191 261.9c0-5-.1-9.9-.1-14.9h30.4c0 5 .1 9.9.2 14.9H191zm-1.6 0h-30.3V247h30.2c0 5 0 9.9.1 14.9zm15.9 1.7.1 14.9H175c0-5 0-9.9-.1-14.9h30.4zm16.8 31.4h-30.5c0-5-.1-9.9-.1-14.9H222l.1 14.9zm32 0h-30.5c0-5-.1-9.9-.2-14.9h30.4c.2 5 .3 10 .3 14.9zM223 261.9c0-5-.1-9.9-.2-14.9H253c.1 5 .1 9.9.2 14.9H223zm-16-16.5-.1-14.9h30.3c0 5 .1 9.9.2 14.9H207zm-16.3-16.6c0-5-.1-9.9-.2-14.9H221c0 5 .1 9.9.1 14.9h-30.4zm-.3-33.1c0-5-.1-9.9-.1-14.9h30.3c.1 5 .1 9.9.2 14.9h-30.4zm-15.8-31.4h30l.1 14.9h-30.1v-14.9zm14.4 49.6c0 5 .1 9.9.2 14.9H159c0-5-.1-9.9-.1-14.9H189zm-15.7 49.7.1 14.9H143c0-5 .1-9.9.1-14.9h30.2zm16.5 16.5c0 5 .1 9.9.1 14.9h-30.5l-.1-14.9h30.5zm16.3 31.5h-30.5c0-5-.1-9.9-.1-14.9H206l.1 14.9zm32.1 0h-30.5l-.1-14.9H238c.1 4.9.2 9.9.2 14.9zm32.1 0h-30.5l-.1-14.9h30.5c0 4.9 0 9.9.1 14.9zM255.7 295l-.2-14.9h30.4l.3 14.9h-30.5zm-16.6-16.5-.2-14.9h30.3l.3 14.9h-30.4zm-.2-33.1c0-5-.1-9.9-.2-14.9h30.1c.1 5 .1 9.9.2 14.9h-30.1zm-16.2-16.6c0-5-.1-9.9-.1-14.9h30.1c.1 5 .1 9.9.1 14.9h-30.1zm-16-16.5-.1-14.9h30.1c.1 5 .2 9.9.2 14.9h-30.2zm-.4-33.1-.1-14.9h29.9l.3 14.9h-30.1zm-17.6 1.6c0 5 0 9.9.1 14.9h-30.1c0-5 .1-9.9.2-14.9h29.8zm-15.6 31.5h-30c0-5 0-9.9.1-14.9H173l.1 14.9zm.3 18.2v14.9h-30.1v-14.9h30.1zm-15.9 31.4h-30.2l.1-14.9h30.1v14.9zm.3 18.2V295h-30.4v-14.9h30.4zm16.1 16.5c0 5 .1 9.9.1 14.9h-30.5c0-5-.1-9.9-.1-14.9h30.5zm98 15c0-5-.1-9.9-.2-14.9h30.5c.1 5 .2 9.9.2 14.9h-30.5zm-.8-33.1-.3-14.9h30.3c.1 5 .3 9.9.4 14.9h-30.4zm-16.2-16.6c-.1-5-.2-9.9-.2-14.9h30.2l.3 14.9h-30.3zm29.6-33.1h-30.1c0-5-.1-9.9-.2-14.9h30.3c.1 5 .1 10 0 14.9zm-46-16.5c-.1-5-.1-9.9-.2-14.9h29.8c.2 5 .3 9.9.4 14.9h-30zm-16.1-16.6c-.1-5-.1-9.9-.2-14.9h29.7l.4 14.9h-29.9zm-1.7-33h-30.3v-14.9h30.1c.1 4.9.1 9.9.2 14.9zm-31.9 0h-29.5v-14.9h29.5v14.9zm-15.5 16.5h-29.6c.1-5 .2-9.9.2-14.9h29.4v14.9zm-16.1 34.7c0 5 .1 9.9.1 14.9h-30.1c0-5-.1-9.9-.1-14.9h30.1zm-15.7 49.7c0 5-.1 9.9-.1 14.9h-30.3c0-5 .1-9.9.1-14.9h30.3zm.3 33 .1 14.9h-30.5v-14.9h30.4zm94.1-165.4c0 5 .1 9.9.1 14.9h-29.7l-.1-14.9h29.7zm-31.3 0 .1 14.9h-30v-14.9h29.9z" opacity=".5"/>
  </g>
  <path fill="#fff" d="M62.1 199.5c1.1-.5-3.2-7.3-.5-11.3 1.4-2.1 3.6-1.8 4.8-4.4 1.1-2.4.2-4.5.7-4.6.6-.1 2.8 3.3 2.3 6.9-.3 2.4-1.5 2.4-2.1 4.8-.6 2.8.8 3.7 1.6 9.5.3 2.4.1 2.3.5 5.3.5 4.4 1.3 6.3 1.6 8.3 1.2 7.4-2.9 17.6-8.5 19.1-2 .5-4.3 0-6 1.8-1 1.1-1.3 2.5-1.4 3-.4 2.4.5 5.1 2.1 6.5 3.6 3.1 8.8-2.6 14.8-.5 5.7 2.1 9.9 10.5 8.3 16.4-1 3.7-4.2 5.8-3.2 8.7.4 1.3 1.4 1.8 3 3 9.1 6.7 10.9 12.6 10.8 13.7-.1 1.1-.7 1.5-.7 1.5-.1.1-.2.1-.3.2-.9.5-1.2 1.7-.5 2.4.9 1 2.1 2.3 3.3 3.6 57.2 67.7 162.7 63.8 218.4-.3.3-.4-.5-1.1-.7-2.4-.5-4.5 3.7-8.8 8-12 2.9-2.5 4.3-5 5.1-6.5.7-1.5 1-2.6.7-3.6-.4-1.1-1.3-1.5-2.1-2.1-2.9-2.3-2.6-8.6-.7-12.7.5-1.2 1.8-4.1 4.8-5.5 1.5-.7 2.9-.8 4.6-.9 4.8-.3 6.2 1.3 9 .2 1.8-.7 2.8-2 3.2-2.5 2-2.5 3.1-6.8 1.4-9.1-2.2-3-7.1.5-12-2.9-2.7-1.8-3.9-4.6-5.1-7.1-1.7-3.8-1.9-7.1-2.1-9-.5-7.1 1.5-14.5 3.7-18.7.3-.6 1.1-2 1.6-4.1.4-1.6.9-3.6.5-5.8-.9-3.9-4.5-5.8-4-6.5.4-.6 3.6 1.1 4 .5.6-.9-4.8-5-4.4-5.5.3-.5 6.1 1.4 9 6.5.4.8 1.9 3.4 1.8 6.9-.1 5-3.3 7.4-1.8 10.1.5 1 1.5 1.8 2.5 1.8 1.8 0 3.6-2.7 3.4-5v-.4c-.3-1.8-1-10.2 4-14.5 1.7-1.5 4.2-2.5 4.8-1.8 1 1-3.3 4.4-2.8 9.2.3 2.9 2.1 3.5 2.5 7.8.3 2.4-.1 3.9-.2 4.4-.6 2.4-1.7 3.2-2.5 4.8-2.4 4.5-1.2 10.4.2 10.8 1.2.3 2.1-2.6 5.1-3 2-.3 3.6.7 4.4 1.2 2.9 1.8 4.5 5 5.8 10.1 1.5 5.9 3.1 12.2 1.4 20.7-.6 3-3.3 16.5-9.5 17.5-3.5.6-7.1-3-9.6-1.2-.1.1-1.5 1.1-1.4 2.3 0 .2.1.8 1 1.5 2 1.8 4.6.1 7.7 1.2.3.1 2.5.9 3.7 3 2 3.5.1 9.2-3.2 11.8-2.1 1.6-3.1 1.3-4.4 3.2-1 1.5-1 2.9-2.5 5.5-.5.8-.9 1.4-1.2 1.8 0 0 0 .1-.1.2-24.5 47.6-84.3 75.9-126.2 79.4-64.1 7.7-136.4-25.9-167-85.7-.3-.5-.1-1.1-.1-1.1.1-.7.4-1.3.9-1.8.3-.5 1.2-2.5.5-4.4-1-2.4-4.5-3.8-8.3-2.5-2.8-1.8-4.2-4.6-3.7-7.1.6-2.7 3.2-4 3.5-4.1 3.8-1.9 6.8 1.1 9.2-.7 2.1-1.6 2.3-5.7.9-6.7-1.2-.9-2.8 1-6.7 1.2-.2 0-3.2.1-5.5-.9-3.7-1.6-5.2-5.8-6.5-9.5-1.4-4-3.7-10.8-1.6-19.4 2.6-10.7 10.5-18.5 13.2-17.8 2.1.6 2.7 2 2.7 2 .2.3.1.5.3.8.5 1.5 2.4 2.7 3.5 2.5 2.5-.5 5.2-10.2 1.6-17.3-1.4-2.8-3.1-3.8-3.5-6.9-.4-3.1 1-4.1.5-7.1-.7-4-3.7-5.9-3.2-6.5.5-.5 4.4.7 6.5 3.9 2.5 3.8.2 7.1 3 12 1.2 2.6 2.9 4.2 3.4 3.9z" opacity=".75"/>
  <path fill="#6d8954" d="M80.6 290.7c.2 1 .1 2-.3 2.9-.4.9-1 1.7-1.9 2.3l-2.4-3.4c.3-.2.5-.5.7-.8.1-.3.2-.7.1-1.1-.1-.4-.2-.8-.5-1.2-.3-.4-.6-.6-.9-.8-.3-.2-.6-.3-.9-.2-.3 0-.6.1-.9.3-.3.3-.6.6-.6 1-.1.4.1.9.4 1.5l.6.9c.6 1.1 1.1 2.1 1.3 3.2.2 1 .2 2-.1 2.9-.3.9-.9 1.7-1.8 2.3-.9.6-1.8 1-2.8 1s-2-.3-3-.8c-1-.6-1.9-1.5-2.7-2.6-.9-1.3-1.5-2.5-1.7-3.6s-.2-2.2.2-3.1c.4-.9 1-1.7 1.9-2.4l2.4 3.4c-.3.2-.6.5-.7.9-.1.4-.1.8 0 1.3s.4 1 .8 1.5c.3.5.7.9 1.1 1.1.4.3.7.4 1.1.4.3 0 .7-.1 1-.3.4-.3.6-.7.6-1.2s-.3-1.2-.8-2l-.6-.9c-.9-1.5-1.3-2.9-1.1-4.3.2-1.4.9-2.5 2.1-3.4.9-.6 1.8-1 2.7-1 .9 0 1.8.2 2.7.7.9.5 1.7 1.3 2.5 2.3.8 1 1.2 2.1 1.5 3.2zm19 20.7c.5 1.1.7 2.3.7 3.4s-.2 2.2-.6 3.2c-.4 1-1 1.9-1.7 2.7l-.3.4c-.6.7-1.5 1.3-2.4 1.8-1 .5-2 .8-3.2.9-1.2.1-2.3 0-3.5-.4-1.2-.4-2.3-1.1-3.4-2.2s-1.9-2.2-2.4-3.3c-.5-1.2-.7-2.3-.6-3.5 0-1.2.3-2.2.7-3.2.4-1 1-1.8 1.6-2.5l.3-.4c.7-.8 1.6-1.4 2.6-1.9s2-.8 3.2-.8c1.1-.1 2.3.1 3.4.5 1.2.4 2.3 1.2 3.4 2.2.9.9 1.7 2 2.2 3.1zm-3.6 3.1c0-.6-.1-1.2-.4-1.8-.3-.6-.7-1.1-1.2-1.6s-1.1-.9-1.7-1.1c-.6-.2-1.2-.3-1.8-.3-.6 0-1.2.2-1.8.5s-1.1.7-1.6 1.2-.8 1-1.1 1.6c-.3.6-.4 1.2-.4 1.8 0 .6.1 1.2.4 1.8.3.6.6 1.1 1.2 1.6.5.5 1.1.9 1.7 1.1.6.2 1.2.3 1.8.3.6 0 1.2-.2 1.8-.5.6-.3 1.1-.7 1.6-1.2s.9-1.1 1.1-1.7c.3-.5.5-1.1.4-1.7zm26.2 14.1c.6.9 1 1.9 1 3 0 1-.3 2.1-1 3.1l-.2.3c-.7 1.1-1.5 1.8-2.4 2.2-.9.4-1.8.5-2.9.3l.3 7.2-4.1-2.7-.1-6.2-2.1-1.3-2.8 4.4-3.6-2.3 9.2-14.3 3.6 2.3 2.3 1.5c1.2.7 2.1 1.6 2.8 2.5zm-3.4 2.7c0-.4-.1-.8-.3-1.2s-.5-.7-.9-1l-2.5-1.6-2.7 4.1 2.5 1.6c.4.3.9.4 1.3.5.4 0 .8 0 1.2-.3.4-.2.7-.5 1-.9.3-.3.4-.7.4-1.2zm22.1 6.4 6.4 2.6-1.1 17.7-4.1-1.7.3-4.1-6.2-2.5-2.6 3.2-4-1.6 11.3-13.6zm1.8 10.9.5-6.2-.8-.3-3.9 4.9 4.2 1.6zm47.4.9 4.1 17.2-4.4-.4-.9-4-6.7-.6-1.5 3.8-4.3-.4 6.9-16.3 6.8.7zm-2 9.3-1.3-6.1-.9-.1-2.4 5.8 4.6.4zm33.8 1.8c.1 1-.1 1.9-.5 2.7-.4.8-1.1 1.4-1.9 1.8-.9.5-2 .8-3.3.9l-3.1.3-4.1.4-1.6-17 3.7-.3 2.9-.3c2-.2 3.5.1 4.7.8s1.8 1.8 1.9 3.4v.3c.1 1.1-.1 1.9-.6 2.6-.2.3-.4.5-.6.7.6.2 1.1.5 1.5.9.6.6.9 1.4 1 2.5v.3zm-10.1-8.2.3 3.6 2.6-.2c.6 0 1.1-.3 1.3-.6s.3-.8.3-1.4c0-.6-.2-1-.6-1.3-.3-.3-.8-.4-1.4-.3l-2.5.2zm5.9 8.2c0-.6-.3-1.1-.6-1.3-.3-.3-.8-.4-1.5-.3l-3.2.3.3 3.7 3.2-.3c.6 0 1.1-.3 1.4-.6.3-.4.4-.9.4-1.5zm45.6-13.4c.2.9 0 1.7-.5 2.4-.5.8-1.2 1.3-2.3 1.7-.6.3-1.2.4-1.8.4-.6 0-1.1-.1-1.6-.4-.5-.3-1-.6-1.4-1.1-.4-.5-.7-1.1-1-1.8-.3-.7-.4-1.4-.5-2s0-1.2.2-1.7.5-1 .9-1.4c.4-.4.9-.7 1.5-1 .6-.3 1.3-.4 1.9-.4s1.2.2 1.6.4c.5.3.9.6 1.2 1.2l4-1.6c-.6-1.2-1.5-2.2-2.5-2.9-1.1-.7-2.2-1.1-3.6-1.2-1.3-.1-2.7.1-4.1.7-1.3.5-2.4 1.2-3.3 2.1-.8.9-1.4 1.8-1.8 2.8-.3 1-.5 2.1-.5 3.2s.3 2.1.7 3.1l.2.5c.3.9.9 1.7 1.6 2.6.7.8 1.5 1.5 2.5 2.1 1 .6 2.1.9 3.3.9 1.2.1 2.5-.1 3.9-.7 1.5-.6 2.7-1.4 3.6-2.4.9-1 1.5-2.1 1.7-3.4.3-1.2.2-2.5-.1-3.7l-3.8 1.6zm20-22.8 3.5 5.5-5.4 3.5-3.5-5.5-3.6 2.3 9.1 14.2 3.6-2.3-3.6-5.6 5.4-3.5 3.6 5.6 3.6-2.3-9.1-14.2-3.6 2.3zm21.9-17.8 15.6 8.4-3.2 3-3.6-2-4.9 4.6 1.8 3.6-3.1 3-7.6-16 5-4.6zm5.6 7.7-5.5-3.1-.6.6 2.8 5.6 3.3-3.1zm26.3-20.1c-.2 1.2-.8 2.5-1.7 3.7-.9 1.2-1.9 2.2-3 2.8s-2.2 1-3.4 1.1-2.2 0-3.3-.3c-1-.3-1.9-.7-2.7-1.3l-.4-.3c-.9-.6-1.6-1.4-2.2-2.3-.6-.9-1-1.9-1.2-3s-.2-2.3.1-3.5c.3-1.2.8-2.4 1.7-3.6.9-1.2 1.8-2.1 2.9-2.7 1.1-.6 2.1-1 3.3-1.2 1.1-.1 2.2-.1 3.3.2 1.1.3 2 .7 2.9 1.4l.4.3c.8.6 1.5 1.3 2.1 2.2.6.9 1 1.9 1.3 3 .1 1 .1 2.2-.1 3.5zm-4.1-2.3c-.1-.6-.3-1.2-.7-1.7-.3-.5-.8-1-1.4-1.4-.6-.4-1.2-.7-1.8-.9-.6-.2-1.2-.2-1.8-.1-.6.1-1.2.3-1.7.6s-1 .8-1.4 1.4c-.4.6-.7 1.2-.9 1.8-.2.6-.2 1.2-.1 1.8.1.6.3 1.2.7 1.7.4.5.8 1 1.4 1.4.6.4 1.2.7 1.8.9.6.2 1.2.2 1.8.1.6-.1 1.2-.3 1.7-.6.6-.3 1-.8 1.5-1.4.4-.6.7-1.2.9-1.8.1-.7.2-1.3 0-1.8z"/>
</svg>
