<svg width="40" height="40" viewBox="0 0 40 40" fill="none" xmlns="http://www.w3.org/2000/svg">
<g clip-path="url(#clip0_8538_176)">
<path d="M14.7 31.4L20 40L25.3 31.4L20 23.4L14.7 31.4Z" fill="#E3232C"/>
<path d="M32.3 10V13.3H21.7V16.7H32.3V20H21.7L27.2 28.3L37.8 11C35.3 6.10005 30.9 2.40005 25.6 0.800049L20 10H32.3Z" fill="#E3232C"/>
<path d="M18.2999 20H7.69995V16.7H18.2999V13.3H7.69995V10H20L14.4 0.800049C8.99995 2.40005 4.59995 6.10005 2.19995 11L12.8 28.3L18.2999 20Z" fill="#E3232C"/>
<path d="M25.3 31.4L20 40L14.7 31.4L10.5 37.6C13.3 39.1 16.5 40 20 40C23.5 40 26.6 39.1 29.5 37.6L25.3 31.4Z" fill="#E3232C"/>
<path opacity="0.35" d="M25.3 31.4L20 40L14.7 31.4L10.5 37.6C13.3 39.1 16.5 40 20 40C23.5 40 26.6 39.1 29.5 37.6L25.3 31.4Z" fill="black"/>
<path d="M32.2 35.8C36.9 32.1 40 26.4 40 20C40 13.6 39.1999 13.7 37.7999 11L27.2 28.3L32.2 35.8Z" fill="#E3232C"/>
<path opacity="0.35" d="M32.2 35.8C36.9 32.1 40 26.4 40 20C40 13.6 39.1999 13.7 37.7999 11L27.2 28.3L32.2 35.8Z" fill="black"/>
<path d="M2.2 11C0.8 13.7 0 16.8 0 20C0 26.4 3.1 32.2 7.8 35.8L12.8 28.3L2.2 11Z" fill="#E3232C"/>
<path opacity="0.35" d="M2.2 11C0.8 13.7 0 16.8 0 20C0 26.4 3.1 32.2 7.8 35.8L12.8 28.3L2.2 11Z" fill="black"/>
<path d="M19.9999 10L25.5999 0.8C23.7999 0.3 21.8999 0 19.9999 0C18.0999 0 16.1999 0.3 14.3999 0.8L19.9999 10Z" fill="#E3232C"/>
<path opacity="0.35" d="M19.9999 10L25.5999 0.8C23.7999 0.3 21.8999 0 19.9999 0C18.0999 0 16.1999 0.3 14.3999 0.8L19.9999 10Z" fill="black"/>
<path d="M20 23.4L25.2999 31.4L29.5 37.6C30.5 37.1 31.3999 36.5 32.2999 35.8L27.2999 28.3L21.8 20H32.4V16.7H21.8V13.3H32.4V10H7.69995V13.3H18.3V16.7H7.69995V20H18.3L12.8 28.3L7.79995 35.8C8.69995 36.5 9.59995 37.1 10.6 37.6L14.8 31.4L20.1 23.4H20Z" fill="white"/>
</g>
<defs>
<clipPath id="clip0_8538_176">
<rect width="40" height="40" rx="20" fill="white"/>
</clipPath>
</defs>
</svg>
