<svg viewBox="0 0 830 830" fill="none"
  xmlns="http://www.w3.org/2000/svg">
  <circle cx="415" cy="415" r="415" transform="rotate(-180 415 415)" fill="#213D7C"/>
  <path fill-rule="evenodd" clip-rule="evenodd" d="M422.765 286.221C422.842 286.084 422.918 285.949 422.994 285.814C427.293 278.304 449.905 268.082 449.905 268.082C449.905 268.082 452.423 292.894 448.099 300.401L447.641 301.212C443.317 308.719 420.73 318.942 420.73 318.942C420.73 318.942 418.212 294.132 422.511 286.623C422.587 286.488 422.689 286.353 422.765 286.221ZM382.171 300.803C382.094 300.67 382.018 300.538 381.941 300.401C377.643 292.894 380.136 268.082 380.136 268.082C380.136 268.082 402.747 278.304 407.071 285.814L407.53 286.623C411.828 294.132 409.335 318.942 409.335 318.942C409.335 318.942 386.723 308.719 382.399 301.212C382.323 301.077 382.247 300.94 382.171 300.803ZM401.196 247.737C401.196 247.59 401.196 247.443 401.196 247.292C401.196 239.035 415.186 219.764 415.186 219.764C415.186 219.764 429.175 239.035 429.175 247.292V248.185C429.175 256.442 415.186 275.711 415.186 275.711C415.186 275.711 401.196 256.442 401.196 248.185C401.196 248.035 401.196 247.888 401.196 247.737Z" fill="white"/>
  <path d="M256.775 341.935C251.059 344.167 173.687 375.301 144.137 435.072C143.958 435.445 143.728 435.784 143.499 436.093C146.74 449.791 150.517 469.484 147.939 479.054C144.648 491.295 132.041 498.572 119.818 495.291C107.569 492.012 100.296 479.412 103.563 467.17C106.191 457.442 119.665 441.918 129.388 431.684C129.107 426.482 128.953 421.239 128.953 415.966C128.953 258.142 257.133 131.799 414.99 131.799C572.847 131.799 701.001 258.142 701.001 415.966C701.001 421.224 700.847 426.449 700.566 431.638C710.289 441.874 723.814 457.427 726.442 467.17C729.709 479.412 722.436 492.012 710.187 495.291C697.964 498.572 685.357 491.295 682.065 479.054C679.514 469.497 683.239 449.837 686.506 436.136C686.251 435.817 685.995 435.463 685.817 435.072C656.19 375.158 578.537 344.019 573.153 341.919C554.448 421.283 592.215 501.608 661.268 539.291C663.82 540.696 664.79 543.929 663.386 546.503C661.957 549.077 658.742 550.026 656.165 548.621C616.024 526.713 585.861 491.204 570.091 449.732L570.014 450.181C569.147 455.026 568.177 459.848 567.054 464.642C565.013 473.365 562.537 481.986 559.577 490.441C556.54 499.082 553.019 507.547 548.962 515.76C546.435 520.847 543.73 525.835 540.847 530.708L540.643 531.006C553.836 562.824 577.109 589.748 606.633 608.168C609.134 609.722 609.9 613.003 608.343 615.493C606.786 617.98 603.494 618.741 601.019 617.189C571.673 598.891 548.171 572.69 533.778 541.753C516.247 567.342 495.424 585.441 476.208 598.072C476.208 598.144 476.234 598.213 476.26 598.284C484.17 625.877 497.899 651.071 516.043 672.491C517.931 674.721 517.651 678.061 515.405 679.944C513.159 681.827 509.816 681.541 507.902 679.308C489.401 657.462 475.264 631.885 466.843 603.892C439.615 619.861 417.567 624.797 416.163 625.104L415.169 625.231H414.785C414.454 625.218 414.122 625.175 413.79 625.104C412.412 624.8 390.39 619.868 363.187 603.928C354.766 631.905 340.629 657.469 322.128 679.308C320.239 681.541 316.871 681.827 314.625 679.944C312.38 678.061 312.099 674.721 313.988 672.491C332.131 651.071 345.86 625.877 353.771 598.284C353.797 598.228 353.797 598.169 353.822 598.113C334.556 585.464 313.707 567.334 296.15 541.684C281.732 572.651 258.23 598.876 228.858 617.189C226.383 618.741 223.091 617.98 221.534 615.493C219.978 613.003 220.743 609.722 223.244 608.168C252.794 589.732 276.093 562.773 289.26 530.927C276.169 509.04 265.554 482.284 259.863 449.653C244.271 490.691 214.593 525.891 175.142 547.865C174.657 548.123 174.223 548.373 173.764 548.621C172.973 549.049 172.131 549.258 171.289 549.271H171.212C169.349 549.276 167.512 548.274 166.542 546.503C165.955 545.426 165.776 544.235 165.955 543.11C166.083 542.309 166.415 541.543 166.874 540.877L166.976 540.755C167.206 540.436 167.486 540.14 167.792 539.877L168.686 539.275C169.273 538.964 169.834 538.648 170.395 538.336L171.952 537.456L174.121 536.181L176.571 534.708C177.081 534.389 177.591 534.071 178.127 533.741L179.2 533.06L181.47 531.573C181.726 531.412 181.955 531.251 182.211 531.086L184.635 529.445C185.987 528.506 187.314 527.552 188.641 526.575L191.729 524.266L193.209 523.105L195.429 521.332L196.603 520.373C197.292 519.804 197.981 519.23 198.67 518.648C200.099 517.434 201.502 516.196 202.88 514.938L204.514 513.433C240.648 479.797 261.879 431.98 261.521 381.549C261.445 368.455 259.889 355.181 256.775 341.935ZM561.083 347.517C544.955 342.741 527.96 340.187 510.403 340.187C487.538 340.187 465.618 344.517 445.331 352.446C441.12 355.178 436.936 361.36 436.936 366.08C436.936 369.014 435.379 369.305 434.358 369.305C432.189 369.305 430.888 365.289 430.888 362.355C430.888 353.63 432.521 347.696 440.304 343.06C440.687 342.835 441.069 342.662 441.478 342.539C462.964 334.143 486.186 329.556 510.403 329.556C527.755 329.556 544.598 331.911 560.649 336.335C462.607 289.643 426.805 204.527 414.99 164.533C403.149 204.529 367.347 289.661 269.279 336.35C285.356 331.916 302.198 329.556 319.576 329.556C343.946 329.556 367.296 334.194 388.859 342.68C390.237 343.215 391.232 344.246 391.793 345.486C391.921 345.797 392.023 346.124 392.1 346.458C394.83 355.656 396.897 365.121 398.224 374.831C399.5 384.414 400.087 394.198 399.883 404.163C399.653 414.068 398.709 423.763 397.025 433.22C395.289 442.877 392.84 452.258 389.701 461.33C389.471 462.06 388.68 462.471 387.965 462.244C387.225 462.019 386.817 461.241 387.047 460.511C389.522 451.434 391.283 442.101 392.329 432.547C393.324 423.285 393.631 413.846 393.171 404.25C392.738 394.696 391.538 385.368 389.676 376.28C387.94 367.846 385.618 359.653 382.76 351.716C363.008 344.251 341.751 340.187 319.576 340.187H319.142C308.782 340.213 298.626 341.123 288.725 342.858C281.962 344.042 275.327 345.609 268.82 347.535C271.831 363.251 272.75 378.946 271.805 394.326C271.729 395.42 271.653 396.512 271.576 397.599L271.423 399.403L270.989 403.801C270.785 405.638 270.53 407.467 270.275 409.286C270.249 409.526 270.198 409.766 270.173 409.998C269.968 411.373 269.764 412.746 269.535 414.119C268.871 417.915 268.131 421.683 267.263 425.421C267.263 425.528 267.289 425.638 267.289 425.747C281.758 577.871 402.128 611.543 414.99 614.712C427.826 611.543 548.196 577.871 562.665 425.747C562.665 425.676 562.69 425.605 562.69 425.533C556.846 400.535 556.03 374.048 561.083 347.517ZM440.508 549.815C438.084 555.081 434.179 559.152 429.458 561.296C424.84 563.561 419.889 564.712 414.913 564.681C409.911 564.709 404.935 563.507 400.342 561.148C395.621 558.961 391.742 554.764 389.471 549.373C393.401 551.879 397.688 553.58 402.103 554.407C406.339 555.29 410.626 555.731 414.939 555.731C419.226 555.767 423.513 555.374 427.749 554.555C432.189 553.813 436.502 552.21 440.508 549.815ZM450.664 538.375C450.409 535.083 442.907 533.882 436.604 530.95C430.301 528.019 426.243 527.659 421.063 530.591C419.404 531.695 417.49 532.412 415.5 532.68C415.5 532.68 415.143 532.772 414.99 532.772C414.811 532.772 414.454 532.68 414.454 532.68C412.438 532.387 410.549 531.672 408.89 530.591C403.71 527.659 399.551 528.019 393.325 530.95C387.124 533.882 379.545 535.083 379.289 538.375C379.034 541.666 379.927 543.875 387.94 543.755C395.953 543.635 402.256 540.944 406.237 542.89C408.049 544.141 410.013 545.204 412.106 546.062C414.045 546.541 416.087 546.541 418.052 546.062C420.119 545.197 422.084 544.135 423.947 542.89C427.902 540.944 434.307 543.635 442.064 543.755C449.848 543.875 450.92 541.689 450.664 538.375ZM425.299 493.992C426.805 495.921 429.204 496.97 431.628 496.781C436.4 496.457 440.253 492.622 440.585 487.846C440.763 485.397 439.717 483.011 437.803 481.493C436.297 482.675 434.716 483.754 433.083 484.721C432.138 485.28 431.296 485.938 430.505 486.683C429.765 487.481 429.102 488.346 428.54 489.267C427.519 490.903 426.448 492.477 425.299 493.992ZM404.655 493.992C403.149 495.921 400.776 496.97 398.326 496.781C393.554 496.457 389.701 492.622 389.369 487.846C389.19 485.397 390.237 483.011 392.151 481.493C393.656 482.675 395.238 483.754 396.871 484.721C397.816 485.28 398.658 485.938 399.449 486.683C400.189 487.481 400.852 488.346 401.414 489.267C402.434 490.903 403.506 492.477 404.655 493.992ZM695.999 442.303C695.182 445.954 694.366 449.896 693.677 453.86C692.171 462.45 690.946 471.14 692.324 476.304C694.11 482.879 700.873 486.785 707.431 485.024C714.015 483.261 717.919 476.495 716.158 469.921C714.78 464.757 709.37 457.845 703.782 451.151C701.204 448.064 698.525 445.056 695.999 442.303ZM134.006 442.303C131.48 445.056 128.801 448.064 126.223 451.151C120.635 457.845 115.225 464.757 113.847 469.921C112.086 476.495 115.99 483.261 122.574 485.024C129.132 486.785 135.895 482.879 137.681 476.304C139.059 471.14 137.834 462.45 136.328 453.86C135.639 449.896 134.822 445.954 134.006 442.303ZM420.17 142.477C420.196 142.627 420.221 142.783 420.247 142.936C420.808 146.502 442.447 275.216 576.802 331.928C580.528 333.385 655.807 363.358 690.308 421.147C690.359 419.423 690.359 417.696 690.359 415.966C690.359 265.74 569.759 145.245 420.17 142.477ZM409.784 142.477C260.195 145.245 139.595 265.74 139.595 415.966C139.595 417.696 139.62 419.423 139.646 421.147C174.172 363.358 249.426 333.385 253.178 331.928C387.507 275.216 409.146 146.502 409.707 142.936C409.733 142.78 409.758 142.627 409.784 142.477ZM489.07 381.592C515.532 380.771 520.202 390.807 516.885 395.867C512.393 402.727 505.733 407.952 497.899 410.73C548.757 412.414 542.301 383.011 542.301 383.011C538.244 363.376 514.409 364.904 514.409 364.904C533.982 376.694 522.014 380.385 522.014 380.385C489.784 353.137 451.915 387.297 451.915 387.297C461.867 384.896 470.466 383.35 477.79 382.472C475.315 383.307 473.146 384.544 471.462 386.067C472.61 385.49 474.014 385.151 475.519 385.151C479.449 385.151 482.639 387.473 482.639 390.33C482.639 393.188 479.449 395.507 475.519 395.507C471.564 395.507 468.374 393.188 468.374 390.33C468.374 390.297 468.374 390.267 468.374 390.233C467.864 391.445 467.558 392.734 467.558 394.07C467.558 401.125 475.494 406.853 485.242 406.853C494.965 406.853 502.875 401.125 502.875 394.07C502.875 387.97 496.955 382.86 489.07 381.592ZM340.884 381.592C314.421 380.771 309.752 390.807 313.069 395.867C317.56 402.727 324.246 407.952 332.08 410.73C281.197 412.414 287.653 383.011 287.653 383.011C291.71 363.376 315.544 364.904 315.544 364.904C295.972 376.694 307.94 380.385 307.94 380.385C340.17 353.137 378.039 387.297 378.039 387.297C368.087 384.896 359.512 383.35 352.163 382.472C354.638 383.307 356.807 384.544 358.492 386.067C357.343 385.49 355.94 385.151 354.46 385.151C350.505 385.151 347.315 387.473 347.315 390.33C347.315 393.188 350.505 395.507 354.46 395.507C358.39 395.507 361.58 393.188 361.58 390.33C361.58 390.297 361.58 390.267 361.58 390.233C362.116 391.445 362.396 392.734 362.396 394.07C362.396 401.125 354.485 406.853 344.737 406.853C334.989 406.853 327.079 401.125 327.079 394.07C327.079 387.97 332.999 382.86 340.884 381.592Z" fill="white"/>
</svg>
