<svg viewBox="0 0 830 830" fill="none"
  xmlns="http://www.w3.org/2000/svg">
  <path d="M830 415C830 644.197 644.197 830 415 830C185.803 830 0 644.201 0 415C0 185.799 185.803 0 415 0C644.197 0 830 185.803 830 415Z" fill="white"/>
  <path d="M0 415.001C0 490.455 20.1421 561.205 55.3317 622.173V207.829C20.1421 268.798 0 339.548 0 415.001Z" fill="#BF0A30"/>
  <path d="M110.667 132.857V697.141C127.569 715.368 146.093 732.07 165.999 747.024V82.9783C146.089 97.932 127.569 114.634 110.667 132.861V132.857Z" fill="#BF0A30"/>
  <path d="M221.335 47.8702V782.136C239.056 791.506 257.539 799.625 276.667 806.387V23.6198C257.539 30.3814 239.056 38.5042 221.335 47.8702Z" fill="#BF0A30"/>
  <path d="M332.002 8.30738V821.699C350.05 825.363 368.521 827.853 387.334 829.092V0.914062C368.521 2.15308 350.046 4.64333 332.002 8.30738Z" fill="#BF0A30"/>
  <path d="M442.666 0.914062V829.088C461.479 827.849 479.954 825.359 497.998 821.695V8.30738C479.95 4.64333 461.479 2.15308 442.666 0.914062Z" fill="#BF0A30"/>
  <path d="M553.333 23.6198V806.387C572.461 799.625 590.944 791.502 608.665 782.136V47.8702C590.944 38.5002 572.461 30.3814 553.333 23.6198Z" fill="#BF0A30"/>
  <path d="M664.001 747.028C683.911 732.074 702.431 715.372 719.333 697.146V132.857C702.431 114.63 683.907 97.9279 664.001 82.9742V747.028Z" fill="#BF0A30"/>
  <path d="M774.668 622.173C809.862 561.205 830 490.459 830 415.001C830 339.544 809.858 268.798 774.668 207.829V622.173Z" fill="#BF0A30"/>
  <path opacity="0.33" d="M830 415C830 644.197 644.197 830 415 830C185.803 830 0 644.201 0 415C0 185.799 185.803 0 415 0C644.197 0 830 185.803 830 415Z" fill="black"/>
  <path opacity="0.17" d="M415.045 635.088C229.556 635.088 110.545 507.926 0 414.996C0 644.201 185.803 830 415 830C644.197 830 829.959 644.238 830 415.074C725.568 507.926 600.444 635.088 415.045 635.088Z" fill="black"/>
  <path d="M414.91 665.56L211.125 461.91L414.91 182.59L618.695 461.91L414.91 665.56Z" fill="#002868"/>
  <path opacity="0.17" d="M415 0C185.803 0 0 185.803 0 415C0 644.197 185.803 830 415 830C644.197 830 830 644.197 830 415C830 185.803 644.201 0 415 0ZM415 781.092C212.813 781.092 48.9084 617.187 48.9084 415C48.9084 212.813 212.813 48.9084 415 48.9084C617.187 48.9084 781.092 212.813 781.092 415C781.092 617.187 617.187 781.092 415 781.092Z" fill="#BF0A30"/>
  <path opacity="0.1" d="M414.955 194.912C600.444 194.912 719.455 322.074 830 415.004C830 185.803 644.201 0 415 0C185.799 0 0.040757 185.762 0 414.927C104.432 322.074 229.556 194.912 414.955 194.912Z" fill="white"/>
  <path d="M774.477 415L415 781.813L55.5234 415H181.34L415 653.428L648.66 415H774.477Z" fill="white"/>
  <path d="M734.543 593.774C730.435 601.106 726.078 608.279 721.489 615.29L414.996 194.914L108.508 615.29C103.918 608.279 99.5614 601.106 95.4531 593.774L414.572 48.9141C414.715 48.9141 414.853 48.9141 414.996 48.9141C415.139 48.9141 415.277 48.9141 415.42 48.9141L734.543 593.778V593.774Z" fill="white"/>
  <path d="M415.003 194.913C374.487 194.913 341.641 162.067 341.641 121.55C341.641 81.0336 374.487 48.1875 415.003 48.1875C455.52 48.1875 488.366 81.0336 488.366 121.55C488.366 162.067 455.52 194.913 415.003 194.913Z" fill="white"/>
  <path d="M415.206 131.739L444.454 175.349C435.516 179.832 425.767 182.685 415.206 182.685C404.646 182.685 394.49 180.24 385.959 175.349L415.206 131.739ZM415.206 60.4141C381.085 60.4141 353.867 87.7213 353.867 121.55C353.867 141.52 362.805 158.638 377.429 170.05L409.924 121.55H377.832V111.36H410.328V101.171H377.832V90.9818H452.577V101.171H420.081V111.36H452.577V121.55H420.081L452.577 170.05C467.2 158.638 476.138 141.52 476.138 121.55C476.138 87.7213 448.517 60.4141 415.206 60.4141Z" fill="url(#paint0_linear_1112_14974)"/>
  <path d="M516.894 485.282H313.109L415.002 289.648L516.894 485.282Z" fill="white"/>
  <path fill-rule="evenodd" clip-rule="evenodd" d="M414.999 442.486C439.371 442.486 463.263 429.521 470.02 412.615C463.263 395.713 445.407 381.122 414.999 381.354C384.59 381.354 366.249 397.099 359.977 412.615C366.249 427.899 390.626 442.486 414.999 442.486ZM436.192 411.918C436.192 423.623 426.703 433.112 414.999 433.112C403.294 433.112 393.805 423.623 393.805 411.918C393.805 400.213 403.294 390.724 414.999 390.724C426.703 390.724 436.192 400.213 436.192 411.918Z" fill="url(#paint1_linear_1112_14974)"/>
  <path fill-rule="evenodd" clip-rule="evenodd" d="M415.201 249.883C417.115 249.883 418.667 251.435 418.667 253.349V271.282C418.667 273.197 417.115 274.749 415.201 274.749C413.286 274.749 411.734 273.197 411.734 271.282V253.349C411.734 251.435 413.286 249.883 415.201 249.883ZM430.725 270.222C432.626 270.454 433.978 272.182 433.746 274.083L432.523 284.093C432.291 285.993 430.562 287.345 428.662 287.113C426.762 286.881 425.41 285.152 425.642 283.252L426.864 273.242C427.097 271.342 428.825 269.99 430.725 270.222ZM399.284 270.364C401.185 270.132 402.913 271.484 403.146 273.385L404.368 283.391C404.601 285.291 403.248 287.02 401.348 287.252C399.448 287.484 397.719 286.132 397.487 284.231L396.264 274.226C396.032 272.325 397.384 270.597 399.284 270.364ZM386.523 285.624C388.282 284.867 390.321 285.679 391.077 287.438L395.561 297.855C396.318 299.613 395.505 301.653 393.747 302.409C391.988 303.166 389.949 302.354 389.193 300.596L384.709 290.178C383.953 288.42 384.765 286.381 386.523 285.624ZM448.386 290.619C450.021 291.615 450.54 293.747 449.544 295.383L443.839 304.757C442.843 306.392 440.711 306.911 439.075 305.916C437.44 304.92 436.921 302.788 437.917 301.152L443.623 291.778C444.618 290.143 446.751 289.624 448.386 290.619ZM373.861 303.342C375.351 302.14 377.534 302.374 378.736 303.864L386.479 313.466C387.681 314.956 387.447 317.139 385.957 318.34C384.467 319.542 382.285 319.308 381.083 317.818L373.339 308.216C372.137 306.726 372.371 304.543 373.861 303.342ZM462.932 311.581C464.263 312.957 464.227 315.151 462.852 316.482L453.494 325.539C452.118 326.87 449.924 326.834 448.592 325.458C447.261 324.083 447.297 321.888 448.672 320.557L458.03 311.501C459.406 310.169 461.6 310.205 462.932 311.581ZM361.734 319.033C363.049 317.641 365.243 317.579 366.635 318.893L377.232 328.903C378.623 330.218 378.686 332.412 377.371 333.804C376.056 335.195 373.863 335.258 372.471 333.943L361.874 323.933C360.482 322.619 360.42 320.425 361.734 319.033ZM476.989 331.333C478.207 332.811 477.997 334.995 476.52 336.213L463.885 346.631C462.408 347.848 460.223 347.638 459.005 346.161C457.788 344.684 457.998 342.499 459.475 341.282L472.109 330.864C473.587 329.646 475.771 329.856 476.989 331.333ZM350.659 334.598C351.931 333.167 354.122 333.038 355.553 334.31L368.188 345.543C369.619 346.815 369.747 349.006 368.475 350.437C367.203 351.868 365.012 351.996 363.582 350.724L350.947 339.492C349.516 338.22 349.387 336.029 350.659 334.598ZM490.189 349.27C491.293 350.834 490.919 352.997 489.355 354.1L473.541 365.256C471.977 366.359 469.814 365.986 468.711 364.421C467.607 362.857 467.981 360.694 469.545 359.591L485.359 348.435C486.923 347.332 489.086 347.705 490.189 349.27ZM337.394 352.401C338.513 350.848 340.679 350.495 342.233 351.613L358.862 363.584C360.416 364.702 360.768 366.868 359.65 368.422C358.531 369.976 356.365 370.329 354.811 369.21L338.183 357.24C336.629 356.121 336.276 353.955 337.394 352.401ZM504.747 369.604C505.575 371.33 504.848 373.401 503.122 374.229L482.743 384.011C481.017 384.839 478.947 384.112 478.118 382.386C477.29 380.66 478.017 378.589 479.743 377.761L500.122 367.979C501.848 367.151 503.918 367.878 504.747 369.604ZM323.658 371.625C324.514 369.912 326.596 369.218 328.308 370.074L349.502 380.671C351.214 381.527 351.908 383.609 351.052 385.322C350.196 387.034 348.114 387.728 346.401 386.872L325.208 376.275C323.495 375.419 322.801 373.337 323.658 371.625ZM519.558 389.645C520.19 391.452 519.238 393.429 517.431 394.062L492.977 402.621C491.17 403.253 489.193 402.301 488.56 400.494C487.928 398.687 488.88 396.71 490.687 396.077L515.141 387.518C516.948 386.886 518.925 387.838 519.558 389.645ZM309.659 391.272C310.325 389.477 312.319 388.561 314.114 389.227L339.384 398.601C341.179 399.267 342.094 401.262 341.428 403.057C340.762 404.852 338.767 405.767 336.972 405.101L311.703 395.727C309.908 395.061 308.993 393.067 309.659 391.272ZM295.544 411.772C295.924 409.896 297.754 408.683 299.63 409.063L329.79 415.177C331.666 415.557 332.879 417.386 332.499 419.263C332.118 421.139 330.289 422.352 328.413 421.971L298.253 415.858C296.376 415.477 295.164 413.648 295.544 411.772ZM534.466 411.829C534.846 413.705 533.634 415.534 531.757 415.915L501.597 422.028C499.721 422.409 497.892 421.196 497.511 419.32C497.131 417.443 498.344 415.614 500.22 415.234L530.38 409.12C532.256 408.74 534.086 409.953 534.466 411.829ZM279.292 433.554C279.484 431.649 281.184 430.261 283.089 430.454L319.363 434.122C321.268 434.315 322.656 436.015 322.463 437.92C322.27 439.824 320.57 441.212 318.665 441.02L282.392 437.352C280.487 437.159 279.099 435.459 279.292 433.554ZM550.718 433.892C550.911 435.797 549.523 437.497 547.618 437.69L511.345 441.358C509.44 441.551 507.74 440.163 507.547 438.258C507.354 436.353 508.742 434.653 510.647 434.46L546.921 430.792C548.826 430.6 550.526 431.987 550.718 433.892ZM566.439 456.54C566.466 458.454 564.936 460.027 563.022 460.054L520.011 460.653C518.096 460.68 516.523 459.15 516.496 457.235C516.47 455.321 518 453.748 519.914 453.721L562.925 453.122C564.839 453.095 566.413 454.626 566.439 456.54ZM263.571 456.678C263.597 454.764 265.171 453.234 267.085 453.261L310.096 453.86C312.01 453.886 313.54 455.46 313.514 457.374C313.487 459.288 311.914 460.818 309.999 460.792L266.988 460.193C265.074 460.166 263.544 458.593 263.571 456.678ZM529.132 479.928C529.178 478.014 530.767 476.5 532.681 476.546L541.647 476.762C543.561 476.808 545.075 478.397 545.029 480.311C544.983 482.224 543.394 483.739 541.48 483.692L532.514 483.476C530.6 483.43 529.086 481.841 529.132 479.928ZM300.878 480.066C300.924 481.98 299.41 483.569 297.496 483.615L288.53 483.831C286.616 483.877 285.027 482.363 284.981 480.449C284.935 478.535 286.449 476.946 288.363 476.9L297.329 476.684C299.243 476.638 300.832 478.152 300.878 480.066ZM464.175 498.855C466.042 498.432 467.899 499.603 468.321 501.47L478.103 544.673C478.526 546.54 477.355 548.396 475.488 548.819C473.62 549.242 471.764 548.071 471.341 546.204L461.56 503.001C461.137 501.134 462.308 499.278 464.175 498.855ZM440.496 498.782C442.403 498.619 444.082 500.032 444.246 501.94L450.359 573.265C450.523 575.172 449.109 576.851 447.202 577.014C445.294 577.178 443.615 575.764 443.452 573.857L437.338 502.532C437.175 500.625 438.588 498.946 440.496 498.782ZM512.584 499.463C514.116 498.314 516.288 498.625 517.437 500.156L518.66 501.786C519.809 503.318 519.498 505.491 517.967 506.639C516.435 507.788 514.262 507.478 513.114 505.946L511.891 504.316C510.742 502.784 511.053 500.611 512.584 499.463ZM365.835 498.994C367.702 499.416 368.873 501.273 368.45 503.14L358.669 546.342C358.246 548.21 356.39 549.38 354.522 548.958C352.655 548.535 351.484 546.679 351.907 544.811L361.689 501.609C362.111 499.742 363.968 498.571 365.835 498.994ZM317.426 499.601C318.957 500.75 319.268 502.923 318.119 504.454L316.896 506.085C315.748 507.616 313.575 507.927 312.043 506.778C310.512 505.629 310.201 503.456 311.35 501.925L312.573 500.295C313.722 498.763 315.894 498.453 317.426 499.601ZM389.514 498.921C391.422 499.084 392.835 500.763 392.672 502.67L386.558 573.995C386.395 575.903 384.716 577.316 382.808 577.153C380.901 576.989 379.487 575.311 379.651 573.403L385.764 502.078C385.928 500.171 387.607 498.757 389.514 498.921ZM414.997 498.908C416.911 498.908 418.463 500.46 418.463 502.374V604.267C418.463 606.181 416.911 607.733 414.997 607.733C413.082 607.733 411.53 606.181 411.53 604.267V502.374C411.53 500.46 413.082 498.908 414.997 498.908ZM489.447 499.826C491.228 499.124 493.241 499.998 493.944 501.779L501.178 520.12C501.881 521.901 501.006 523.914 499.226 524.616C497.445 525.319 495.432 524.445 494.729 522.664L487.495 504.323C486.792 502.542 487.666 500.529 489.447 499.826ZM340.563 499.965C342.344 500.667 343.218 502.681 342.515 504.462L335.281 522.802C334.578 524.583 332.565 525.457 330.784 524.755C329.004 524.052 328.129 522.039 328.832 520.258L336.066 501.918C336.769 500.137 338.782 499.263 340.563 499.965Z" fill="white"/>
  <defs>
    <linearGradient id="paint0_linear_1112_14974" x1="415.003" y1="60.4141" x2="415.003" y2="182.685" gradientUnits="userSpaceOnUse">
      <stop stop-color="#DFBD69"/>
      <stop offset="1" stop-color="#926F34"/>
    </linearGradient>
    <linearGradient id="paint1_linear_1112_14974" x1="359.883" y1="412.052" x2="469.927" y2="412.052" gradientUnits="userSpaceOnUse">
      <stop stop-color="#DFBD69"/>
      <stop offset="1" stop-color="#926F34"/>
    </linearGradient>
  </defs>
</svg>
