<?xml version="1.0" encoding="UTF-8"?>
<svg id="Layer_1" data-name="Layer 1" xmlns="http://www.w3.org/2000/svg" xmlns:xlink="http://www.w3.org/1999/xlink" viewBox="0 0 579.516 557.972">
  <defs>
    <style>
      .cls-1 {
        fill: url(#linear-gradient-2);
      }

      .cls-2 {
        fill: #001025;
      }

      .cls-3 {
        fill: #fff;
      }

      .cls-4 {
        fill: #fcfefd;
      }

      .cls-5 {
        stroke: #000;
      }

      .cls-5, .cls-6, .cls-7 {
        fill: none;
        stroke-miterlimit: 10;
      }

      .cls-8 {
        fill: #c73065;
      }

      .cls-9 {
        fill: #e33e7c;
      }

      .cls-6 {
        stroke: #a5b8d8;
      }

      .cls-6, .cls-7 {
        stroke-width: .25px;
      }

      .cls-10 {
        fill: url(#linear-gradient-6);
      }

      .cls-11 {
        fill: #070f29;
      }

      .cls-7 {
        stroke: #daff03;
      }

      .cls-12 {
        fill: #f23b7c;
      }

      .cls-13 {
        fill: #fbfffe;
      }

      .cls-14 {
        fill: #fcf9f9;
      }

      .cls-15 {
        fill: #a2b8d3;
      }

      .cls-16 {
        fill: #f1397d;
      }

      .cls-17 {
        fill: #fdfffe;
      }

      .cls-18 {
        fill: #ba2368;
      }

      .cls-19 {
        fill: url(#linear-gradient-5);
      }

      .cls-20 {
        fill: #030f24;
      }

      .cls-21 {
        fill: #f33a7e;
      }

      .cls-22 {
        fill: #a5b8d8;
      }

      .cls-23 {
        fill: #f6f9f8;
      }

      .cls-24 {
        fill: #ba2267;
      }

      .cls-25 {
        fill: url(#linear-gradient-3);
      }

      .cls-26 {
        fill: #fd377f;
      }

      .cls-27 {
        fill: url(#linear-gradient);
      }

      .cls-28 {
        fill: #d4336d;
      }

      .cls-29 {
        fill: url(#linear-gradient-4);
      }

      .cls-30 {
        fill: #f75c92;
      }

      .cls-31 {
        fill: #001125;
      }
    </style>
    <linearGradient id="linear-gradient" x1="188.163" y1="484.97" x2="188.163" y2="354.824" gradientUnits="userSpaceOnUse">
      <stop offset="0" stop-color="#d7e7f1"/>
      <stop offset=".3" stop-color="#ccddeb"/>
      <stop offset=".818" stop-color="#b0c2dd"/>
      <stop offset="1" stop-color="#a5b8d8"/>
    </linearGradient>
    <linearGradient id="linear-gradient-2" x1="226.555" y1="246.548" x2="358.793" y2="246.548" gradientUnits="userSpaceOnUse">
      <stop offset="0" stop-color="#f887a7"/>
      <stop offset=".064" stop-color="#f77da1"/>
      <stop offset=".5" stop-color="#f53d80"/>
      <stop offset=".64" stop-color="#f64d89"/>
      <stop offset=".913" stop-color="#f877a1"/>
      <stop offset="1" stop-color="#fa86aa"/>
    </linearGradient>
    <linearGradient id="linear-gradient-3" x1="207.206" y1="219.154" x2="227.328" y2="213.25" gradientUnits="userSpaceOnUse">
      <stop offset="0" stop-color="#f33a7e"/>
      <stop offset=".11" stop-color="#f34081"/>
      <stop offset=".258" stop-color="#f4518d"/>
      <stop offset=".428" stop-color="#f56d9f"/>
      <stop offset=".614" stop-color="#f795b9"/>
      <stop offset=".811" stop-color="#f9c7d9"/>
      <stop offset="1" stop-color="#fcfefd"/>
    </linearGradient>
    <linearGradient id="linear-gradient-4" x1="359.544" y1="213.227" x2="379.757" y2="218.839" gradientUnits="userSpaceOnUse">
      <stop offset="0" stop-color="#fcfefd"/>
      <stop offset=".189" stop-color="#f9c7d9"/>
      <stop offset=".386" stop-color="#f795b9"/>
      <stop offset=".572" stop-color="#f56d9f"/>
      <stop offset=".742" stop-color="#f4518d"/>
      <stop offset=".89" stop-color="#f34081"/>
      <stop offset="1" stop-color="#f33a7e"/>
    </linearGradient>
    <linearGradient id="linear-gradient-5" x1="453.189" y1="464.637" x2="453.189" y2="143.501" gradientUnits="userSpaceOnUse">
      <stop offset=".366" stop-color="#ed3678"/>
      <stop offset=".723" stop-color="#f482aa"/>
      <stop offset="1" stop-color="#fac0d3"/>
    </linearGradient>
    <linearGradient id="linear-gradient-6" x1="129.348" y1="447.926" x2="129.348" y2="133.015" xlink:href="#linear-gradient-5"/>
  </defs>
  <path class="cls-4" d="m330.81,213.202s-7.85,14.7-16.16,21.3c0,0-6.39-33.23-20.63-43.39,0,0,10.88,50.97,3.75,76.49,0,0-4.15,9.69-14.63,4.35-10.49-5.34-10.49-25.45-8.9-33.5h-41.34v15.7s-1.02,16.24-13.65,19.38c-14.74,3.66-13.06-16.02-13.06-31.25s2.77-42.4,5.74-51.17c0,0-15.5,12.19-20.39,44.09,0,0,.61-10.33-9.28-27.74-3.59-6.31-7.2-16.52-10.35-26.98-4.01-13.34-7.28-27.08-8.76-33.6v-.01c.04-7.65.49-15.24,1.44-22.35,3.16-23.6,16.76-55.15,45.36-65.28,0,0,8.97-3.82,27.56-1.58,18.59,2.24,30.07-1.41,43.78-.7,13.72.7,35.61,5.85,51.96,38.68,16.35,32.84,8.83,97.39-2.44,117.56Z"/>
  <g>
    <path class="cls-3" d="m289.758,35.096c-134.695,0-243.89,109.195-243.89,243.89s109.195,243.89,243.89,243.89,243.89-109.195,243.89-243.89S424.453,35.096,289.758,35.096Zm118.389,379.567c-8.34-21.655-22.809-60.727-22.809-60.727,0,0-10.347-31.373-10.977-52.91-.641-21.549-.566-57.246-.566-57.246,0,0-4.581,2.894-5.489,16.274-.918,13.369-4.165,31.821-15.355,39.285,0,0-.918.758-2.509,1.751-.598,17.032-6.738,71.747-60.684,71.747-54.299,0-57.192-59.179-57.032-74.566-6.247-5.702-11.255-11.928-13.337-22.029-2.531-12.323-1.805-16.615-1.805-19.627s-1.847-7.763-4.015-11.031l-.79,51.213s-.95,47.945-11.831,64.208c-10.881,16.274-36.733,70.818,8.564,115.111-1.121-.203-37.555-7.582-36.306-60.823,0,0-16.615,41.346,28.094,78.762-26.589-10.956-50.7-26.685-71.256-46.13,1.228-4.41,5.051-15.75,15.142-30.732,13.091-19.434,37.171-51.96,37.171-51.96,0,0,18.377-25.767,18.377-45.617s.641-79.489.641-79.489c0,0,.63-10.144-2.904-11.853,0,6.706-8.713,28.073-19.488,28.607-10.774.523-14.789-5.179-18.164-21.442-2.392-10.529-19.573-23.62-25.628-28.265-6.055-4.645-15.142-17.149-19.893-31.714-4.271-13.091-10.411-22.008-6.482-42.446,9.418-11.671,19.958-22.424,31.447-32.067,10.251-5.734,22.552-12.419,37.342-23.919,0,0,2.595-2.627,7.176-5.521,3.695-1.879,7.453-3.663,11.265-5.328,6.428-2.104,14.234-3.129,22.958-1.185,0,0,8.511-8.158,22.083-13.38,8.724-1.858,17.63-3.225,26.685-4.079,1.431.118,2.883.288,4.357.523,14.725,1.708,29.109.16,42.606-.224,12.62,2.475,25.927,3.898,38.303,7.4,1.655.993,3.268,2.114,4.848,3.385l8.553,6.791s5.392-1.442,12.76-1.068c14.202,5.916,27.699,13.22,40.321,21.719.075.064.149.117.224.15,1.068.715,2.125,1.452,3.171,2.189,21.559,15.088,40.438,33.732,55.783,55.099.096,3.705-.342,7.582-1.377,11.575-5.595,21.538-11.084,38.58-28.265,53.647-17.181,15.067-21.121,16.049-24.784,31.821-3.663,15.772-12.814,20.417-23.375,14.149-10.561-6.257-12.878-20.694-13.444-27.176,0,0-4.122-2.104-3.171,18.591l.139,50.337s.149,27.176,8.457,50.551c8.169,22.99,32.419,84.411,36.829,117.642-3.022,2.285-6.097,4.495-9.237,6.631-1.185-9.194-5.35-38.538-12.323-56.605Z"/>
    <g>
      <path class="cls-6" d="m222.971,341.438s-4.398-9.443.931-19.157l-1.445-.813s-4.906,8.212-1.541,19.407"/>
      <path class="cls-6" d="m219.529,340.769s-3.685-9.914,1.879-19.77l-1.266-.833s-5.351,9.409-1.986,20.603h-1.619s-3.106-9.605,1.739-20.697l-1.756-.519s-4.312,11.746-1.25,21.357h-1.338s-2.692-7.97.977-21.833l-1.553-.459s-3.156,12.259-.692,22.82l-1.253.563s-2.408-7.827.374-23.848l-3.802,12.125,1.549,12.075"/>
    </g>
    <g>
      <path class="cls-6" d="m221.389,342.045s-2.643-10.103,4.21-18.81l-1.542-.868s-6.082,7.189-4.601,18.784"/>
      <path class="cls-6" d="m218.104,340.82s-2.186-10.254,4.921-19.063l-1.359-.734s-6.397,7.977-4.917,19.572l-1.597-.266s-1.487-9.985,5.113-20.13l-1.59-.858s-6.24,10.936-4.797,20.919l-1.32-.22s-1.216-8.435,4.68-21.507l-1.385-.779s-5.329,11.776-4.632,22.599l-1.329.35s-.866-8.418,4.51-23.765l-1.442-.811-4.979,24.615"/>
    </g>
    <path class="cls-27" d="m201.3,494.056s-14.726-17.889-21.007-52.198c0,0,10.084,24.113,29.219,34.259,0,0-37.002-58.74,13.08-113.627l-20.101-11.582s-20.466,23.312-19.832,40.417c0,12.779,3.815,21.122,1.28,4.592-2.535-16.53-7.181,13.252-7.181,13.252l-9.082-2.323-13.94,17.64,1.267,21.435,16.897,23.023,29.401,25.113Z"/>
    <g>
      <g>
        <line class="cls-6" x1="209.296" y1="278.412" x2="235.713" y2="285.925"/>
        <line class="cls-6" x1="209.249" y1="279.737" x2="235.666" y2="287.25"/>
        <line class="cls-6" x1="209.201" y1="281.061" x2="235.618" y2="288.574"/>
        <line class="cls-6" x1="209.154" y1="282.386" x2="235.571" y2="289.899"/>
        <line class="cls-6" x1="209.106" y1="283.711" x2="235.523" y2="291.224"/>
        <line class="cls-6" x1="209.059" y1="285.035" x2="235.476" y2="292.548"/>
        <line class="cls-6" x1="209.011" y1="286.36" x2="235.428" y2="293.873"/>
        <line class="cls-6" x1="208.964" y1="287.684" x2="235.381" y2="295.198"/>
        <line class="cls-6" x1="208.916" y1="289.009" x2="235.334" y2="296.522"/>
        <line class="cls-6" x1="208.869" y1="290.334" x2="235.286" y2="297.847"/>
      </g>
      <g>
        <line class="cls-6" x1="208.821" y1="291.664" x2="239.759" y2="300.81"/>
        <line class="cls-6" x1="208.84" y1="293.013" x2="239.779" y2="302.159"/>
        <line class="cls-6" x1="208.86" y1="294.361" x2="239.798" y2="303.508"/>
        <line class="cls-6" x1="208.879" y1="295.71" x2="239.818" y2="304.857"/>
        <line class="cls-6" x1="208.899" y1="297.059" x2="239.837" y2="306.206"/>
        <line class="cls-6" x1="208.918" y1="298.408" x2="239.856" y2="307.554"/>
        <line class="cls-6" x1="208.938" y1="299.757" x2="239.876" y2="308.903"/>
        <line class="cls-6" x1="208.957" y1="301.105" x2="239.895" y2="310.252"/>
        <line class="cls-6" x1="208.976" y1="302.454" x2="239.915" y2="311.601"/>
        <line class="cls-6" x1="208.996" y1="303.803" x2="239.934" y2="312.95"/>
      </g>
      <g>
        <line class="cls-6" x1="209.365" y1="305.35" x2="240.303" y2="314.497"/>
        <line class="cls-6" x1="209.384" y1="306.699" x2="240.322" y2="315.846"/>
        <line class="cls-6" x1="209.403" y1="308.048" x2="240.342" y2="317.194"/>
        <line class="cls-6" x1="209.423" y1="309.397" x2="240.361" y2="318.543"/>
        <line class="cls-6" x1="209.442" y1="310.746" x2="240.381" y2="319.892"/>
        <line class="cls-6" x1="209.462" y1="312.094" x2="240.4" y2="321.241"/>
        <line class="cls-6" x1="209.481" y1="313.443" x2="240.419" y2="322.59"/>
        <line class="cls-6" x1="209.501" y1="314.792" x2="240.439" y2="323.939"/>
        <line class="cls-6" x1="209.52" y1="316.141" x2="240.458" y2="325.287"/>
        <line class="cls-6" x1="209.539" y1="317.49" x2="240.478" y2="326.636"/>
      </g>
    </g>
    <g>
      <g>
        <line class="cls-6" x1="203.982" y1="268.116" x2="239.885" y2="287.986"/>
        <line class="cls-6" x1="203.837" y1="269.508" x2="239.74" y2="289.378"/>
        <line class="cls-6" x1="203.691" y1="270.901" x2="239.594" y2="290.771"/>
        <line class="cls-6" x1="203.546" y1="272.294" x2="239.449" y2="292.163"/>
        <line class="cls-6" x1="203.401" y1="273.686" x2="239.304" y2="293.556"/>
        <line class="cls-6" x1="203.255" y1="275.079" x2="239.158" y2="294.949"/>
        <line class="cls-6" x1="203.11" y1="276.471" x2="239.013" y2="296.341"/>
        <line class="cls-6" x1="202.965" y1="277.864" x2="238.868" y2="297.734"/>
        <line class="cls-6" x1="202.819" y1="279.257" x2="238.722" y2="299.126"/>
        <line class="cls-6" x1="202.674" y1="280.649" x2="238.577" y2="300.519"/>
      </g>
      <g>
        <line class="cls-6" x1="202.528" y1="282.047" x2="244.554" y2="305.689"/>
        <line class="cls-6" x1="202.473" y1="283.496" x2="244.5" y2="307.137"/>
        <line class="cls-6" x1="202.419" y1="284.944" x2="244.445" y2="308.585"/>
        <line class="cls-6" x1="202.364" y1="286.393" x2="244.39" y2="310.034"/>
        <line class="cls-6" x1="202.309" y1="287.841" x2="244.335" y2="311.482"/>
        <line class="cls-6" x1="202.255" y1="289.29" x2="244.281" y2="312.931"/>
        <line class="cls-6" x1="202.2" y1="290.738" x2="244.226" y2="314.379"/>
        <line class="cls-6" x1="202.145" y1="292.186" x2="244.171" y2="315.828"/>
        <line class="cls-6" x1="202.09" y1="293.635" x2="244.117" y2="317.276"/>
        <line class="cls-6" x1="202.036" y1="295.083" x2="244.062" y2="318.724"/>
      </g>
      <g>
        <line class="cls-6" x1="202.45" y1="296.9" x2="244.476" y2="320.541"/>
        <line class="cls-6" x1="202.395" y1="298.349" x2="244.421" y2="321.99"/>
        <line class="cls-6" x1="202.34" y1="299.797" x2="244.367" y2="323.438"/>
        <line class="cls-6" x1="202.286" y1="301.245" x2="244.312" y2="324.887"/>
        <line class="cls-6" x1="202.231" y1="302.694" x2="244.257" y2="326.335"/>
        <line class="cls-6" x1="202.176" y1="304.142" x2="244.202" y2="327.784"/>
        <line class="cls-6" x1="202.122" y1="305.591" x2="244.148" y2="329.232"/>
        <line class="cls-6" x1="202.067" y1="307.039" x2="244.093" y2="330.68"/>
        <line class="cls-6" x1="202.012" y1="308.488" x2="244.038" y2="332.129"/>
        <line class="cls-6" x1="201.957" y1="309.936" x2="243.984" y2="333.577"/>
      </g>
    </g>
    <path class="cls-22" d="m210.688,278.349l13.659,3.379-3.52-26.332-.141-7.745-7.181-7.322h-3.52s-1.408,15.912-1.408,16.897,2.112,21.122,2.112,21.122Z"/>
    <path class="cls-5" d="m292.673,281.944c9.343,0,22.051,10.945,25.767,14.352.683.619,1.068.993,1.068.993,0,0-27.742,19.157-53.081-.694,0,0,.182-.182.534-.502,2.776-2.552,15.868-14.149,25.713-14.149Z"/>
    <path class="cls-3" d="m246.992,57.627s9.578-4.079,29.429-1.687c19.851,2.392,32.109-1.506,46.749-.747,14.651.747,38.025,6.247,55.484,41.303,17.459,35.067,9.429,103.995-2.605,125.533,0,0-8.382,15.697-17.256,22.745l-.416,17.32s-.288,21.121-11.97,29.29c-12.675,9.429-26.119-4.154-29.707-7.752-3.599-3.588-15.494-10.838-20.844-10.838s-12.248-.427-34.501,17.32c-25.062,15.772-38.442-17.042-33.935-44.496,0,0-.032-.032-.085-.096-.523-.598-3.588-4.068-7.421-9.205-1.036-3.834-2.83-9.536-5.873-17.032-5.19-12.803-7.731-25.382-7.667-32.195-4.282-14.245-7.774-28.917-9.354-35.879v-.011c.043-8.169.523-16.274,1.538-23.866,3.374-25.201,17.897-58.89,48.436-69.707Z"/>
    <path class="cls-5" d="m318.44,296.295c.683.619,1.068.993,1.068.993,0,0-27.742,19.157-53.081-.694,0,0,.182-.182.534-.502,2.776-2.552,15.868-14.149,25.713-14.149,9.343,0,22.051,10.945,25.767,14.352Z"/>
    <path class="cls-3" d="m376.049,222.028s-8.382,15.697-17.256,22.745l-.416,17.32s-.288,21.121-11.97,29.29c-12.675,9.429-26.119-4.154-29.707-7.752-3.599-3.588-15.494-10.838-20.844-10.838s-12.248-.427-34.501,17.32c-25.062,15.772-38.442-17.042-33.935-44.496,0,0-.032-.032-.085-.096-.523-.598-3.588-4.068-7.421-9.205-1.036-3.834-2.83-9.536-5.873-17.032-5.19-12.803-7.731-25.382-7.667-32.195-4.282-14.245-7.774-28.917-9.354-35.879v-.011c.043-8.169.523-16.274,1.538-23.866,3.374-25.201,17.897-58.89,48.436-69.707,0,0,9.578-4.079,29.429-1.687,19.851,2.392,32.109-1.506,46.749-.747,14.651.747,38.025,6.247,55.484,41.303,17.459,35.067,9.429,103.995-2.605,125.533Z"/>
    <path class="cls-31" d="m422.915,88.401c-1.068-.705-2.125-1.431-3.171-2.189-.075-.032-.149-.085-.224-.15-10.891-7.334-22.433-13.778-34.518-19.208-4.605-2.069-9.711-2.815-14.716-2.149-2.408.32-3.848.705-3.848.705l-8.553-6.791c-1.58-1.271-3.193-2.392-4.848-3.385-15.808-7.248-25.946-7.699-38.303-7.4-13.497.384-27.881,1.933-42.606.224-1.474-.235-2.926-.406-4.357-.523-7.003-.817-17.511.521-26.685,4.079-13.572,5.222-22.083,13.38-22.083,13.38-8.724-1.943-16.53-.918-22.958,1.185-3.812,1.666-7.571,3.449-11.265,5.328-4.581,2.894-7.176,5.521-7.176,5.521-14.789,11.5-27.091,18.185-37.342,23.919-11.49,9.642-22.029,20.395-31.447,32.067-3.93,20.438,2.21,29.354,6.482,42.446,4.752,14.565,13.839,27.069,19.893,31.714,6.055,4.645,23.236,17.737,25.628,28.265,3.374,16.263,7.389,21.965,18.164,21.442,10.774-.534,19.488-21.901,19.488-28.607,3.534,1.709,2.904,11.853,2.904,11.853,0,0-.641,59.627-.641,79.489s-18.377,45.617-18.377,45.617c0,0-24.079,32.526-37.171,51.96-10.091,14.981-13.914,26.322-15.142,30.732,20.556,19.445,44.667,35.174,71.256,46.13-44.71-37.416-28.094-78.762-28.094-78.762-1.249,53.241,35.185,60.62,36.306,60.823-45.297-44.293-19.445-98.837-8.564-115.111,10.881-16.263,11.831-64.208,11.831-64.208l.79-51.213c2.168,3.268,4.015,8.019,4.015,11.031s-.726,7.304,1.805,19.627c2.082,10.102,7.09,16.327,13.337,22.029,1.367,1.26,2.798,2.499,4.271,3.737,8.169,6.898,20.983,1.271,20.983,1.271,0,0,2.531,16.615,12.109,31.608,9.568,15.003,20.556,18.804,35.195,11.831,14.651-6.973,22.958-42.948,22.958-42.948,9.258,3.972,18.046-.117,22.2-2.68,1.591-.993,2.509-1.751,2.509-1.751,11.191-7.464,14.437-25.916,15.355-39.285.908-13.38,5.489-16.274,5.489-16.274,0,0-.075,35.697.566,57.246.63,21.538,10.977,52.91,10.977,52.91,0,0,14.469,39.072,22.809,60.727,6.973,18.068,11.137,47.411,12.323,56.605,3.139-2.136,6.215-4.346,9.237-6.631-4.41-33.231-28.66-94.652-36.829-117.642-8.308-23.375-8.457-50.551-8.457-50.551l-.139-50.337c-.95-20.694,3.171-18.591,3.171-18.591.566,6.482,2.883,20.919,13.444,27.176,10.561,6.268,19.712,1.623,23.375-14.149,3.663-15.772,7.603-16.754,24.784-31.821,17.181-15.067,22.67-32.109,28.265-53.647,1.036-3.994,1.474-7.87,1.377-11.575-15.345-21.367-34.224-40.011-55.783-55.099Zm-156.489,208.193s.182-.182.534-.502c2.776-2.552,15.868-14.149,25.713-14.149,9.343,0,22.051,10.945,25.767,14.352.683.619,1.068.993,1.068.993,0,0-27.742,19.157-53.081-.694Zm109.622-74.566s-8.382,15.697-17.256,22.745l-.416,17.32s-.288,21.121-11.97,29.29c-12.675,9.429-26.119-4.154-29.707-7.752-3.599-3.588-15.494-10.838-20.844-10.838s-12.248-.427-34.501,17.32c-25.062,15.772-38.442-17.042-33.935-44.496,0,0-.032-.032-.085-.096-.523-.598-3.588-4.068-7.421-9.205-1.036-3.834-2.83-9.536-5.873-17.032-5.19-12.803-7.731-25.382-7.667-32.195-4.282-14.245-7.774-28.917-9.354-35.879v-.011c.043-8.169.523-16.274,1.538-23.866,3.374-25.201,17.897-58.89,48.436-69.707,0,0,9.578-4.079,29.429-1.687,19.851,2.392,32.109-1.506,46.749-.747,14.651.747,38.025,6.247,55.484,41.303,17.459,35.067,9.429,103.995-2.605,125.533Z"/>
    <path class="cls-31" d="m422.915,88.401c9.835,6.642,20.075,12.472,30.646,17.352,14.202,8.169,24.752,21.453,25.136,37.747"/>
    <path class="cls-31" d="m108.816,133.015c.107-.567.223-1.143.347-1.728.858-4.049,2.61-7.884,5.216-11.1,6.733-8.308,15.196-13.258,25.885-19.239"/>
    <path class="cls-7" d="m152.928,108.818s0,.011-.011.011"/>
    <path class="cls-1" d="m358.793,244.773l-.416,17.32s-.288,21.121-11.97,29.29c-12.675,9.429-26.119-4.154-29.707-7.752-3.599-3.588-15.494-10.838-20.844-10.838s-12.248-.427-34.501,17.32c-25.062,15.772-38.442-17.042-33.935-44.496,0,0-.032-.032-.085-.096,5.222-34.063,21.773-47.08,21.773-47.08-3.171,9.365-6.129,38.377-6.129,54.64s-1.794,37.278,13.946,33.369c13.487-3.353,14.576-20.694,14.576-20.694v-16.765h44.144c-1.698,8.596-1.698,30.07,9.504,35.772,11.191,5.702,15.622-4.645,15.622-4.645,7.614-27.251-4.004-81.678-4.004-81.678,15.206,10.849,22.029,46.333,22.029,46.333Z"/>
    <path class="cls-12" d="m318.44,296.295c-24.026,8.318-43.855,2.702-51.48-.203,2.776-2.552,15.868-14.149,25.713-14.149,9.343,0,22.051,10.945,25.767,14.352Z"/>
    <path class="cls-3" d="m319.508,297.288s-27.742,19.157-53.081-.694c0,0,.182-.182.534-.502,7.624,2.905,27.454,8.521,51.48.203.683.619,1.068.993,1.068.993Z"/>
    <g>
      <path class="cls-22" d="m219.917,236.333c-6.247-8.361-14.565-21.1-17.416-32.942-3.342-13.871-5.595-33.188-5.478-52.163,1.58,6.962,5.072,21.634,9.354,35.879-.064,6.813,2.477,19.392,7.667,32.195,3.043,7.496,4.837,13.198,5.873,17.032Z"/>
      <path class="cls-25" d="m227.338,245.538c-.523-.598-3.588-4.068-7.421-9.205-1.036-3.834-2.83-9.536-5.873-17.032-5.19-12.803-7.731-25.382-7.667-32.195,3.364,11.169,7.218,22.072,11.052,28.81,10.561,18.591,9.909,29.621,9.909,29.621Z"/>
    </g>
    <g>
      <path class="cls-22" d="m366.229,237.021c6.558-8.233,14.36-21.09,16.895-33.648,2.823-13.986,5.758-32.986,5.64-51.961-1.58,6.962-4.713,21.432-8.995,35.677.064,6.813-2.477,19.392-7.667,32.195-3.043,7.496-4.837,13.904-5.873,17.737Z"/>
      <path class="cls-29" d="m358.8,244.773c.567-.511,3.595-2.615,7.429-7.752,1.036-3.834,2.83-10.241,5.873-17.737,5.19-12.803,7.731-25.382,7.667-32.195-3.364,11.169-7.218,22.072-11.052,28.81-10.561,18.591-9.917,28.874-9.917,28.874Z"/>
    </g>
    <path class="cls-22" d="m350.442,301.09c-.598,17.032-6.738,71.747-60.684,71.747-54.299,0-57.192-59.179-57.032-74.566,1.367,1.26,2.798,2.499,4.271,3.737,8.169,6.898,20.983,1.271,20.983,1.271,0,0,2.531,16.615,12.109,31.608,9.568,15.003,20.556,18.804,35.195,11.831,14.651-6.973,22.958-42.948,22.958-42.948,9.258,3.972,18.046-.117,22.2-2.68Z"/>
    <path class="cls-19" d="m522.236,278.986c0,75.847-36.327,143.216-92.527,185.651-4.41-33.231-28.66-94.652-36.829-117.642-8.308-23.375-8.457-50.551-8.457-50.551l-.139-50.337c-.95-20.694,3.171-18.591,3.171-18.591.566,6.482,2.883,20.919,13.444,27.176,10.561,6.268,19.712,1.623,23.375-14.149,3.663-15.772,7.603-16.754,24.784-31.821,17.181-15.067,22.67-32.109,28.265-53.647,1.036-3.994,1.474-7.87,1.377-11.575,27.4,38.143,43.535,84.934,43.535,135.485Z"/>
    <path class="cls-10" d="m182.36,365.234s-24.079,32.526-37.171,51.96c-10.091,14.981-13.914,26.322-15.142,30.732-44.816-42.382-72.772-102.393-72.772-168.94,0-55.292,19.306-106.067,51.544-145.971-3.93,20.438,2.21,29.354,6.482,42.446,4.752,14.565,13.839,27.069,19.893,31.714,6.055,4.645,23.236,17.737,25.628,28.265,3.374,16.263,7.389,21.965,18.164,21.442,10.774-.534,19.488-21.901,19.488-28.607,3.534,1.709,2.904,11.853,2.904,11.853,0,0-.641,59.627-.641,79.489s-18.377,45.617-18.377,45.617Z"/>
    <g>
      <path class="cls-14" d="m149.618,126.875s-7.496,12.045,2.541,47.102c0,0-11.938-15.633-8.767-42.029,0,0,2.008-12.771,9.525-23.118-.641.384-21.186,12.686-26.033,27.304-2.926,8.82.502,18.516,3.769,24.934.192,1.014.459,2.04.801,3.086l5.756,17.117-1.025-1.559-13.284-24.325s-7.923-15.729,3.065-28.511c10.849-12.622,37.352-28.02,38.004-28.393-.406.641-17.907,28.5-5.691,73.071,0,0-11.298-16.904-8.66-44.678Z"/>
      <path class="cls-9" d="m152.917,108.829c-7.517,10.347-9.525,23.118-9.525,23.118,0,0-15.975,12.226-12.739,29.119-3.268-6.418-6.695-16.113-3.769-24.934,4.848-14.618,25.393-26.92,26.033-27.304Z"/>
      <path class="cls-17" d="m184.613,198.444c-6.177-34.302-4.086-85.126,16.253-114.452,3.225-4.593,7.08-8.945,11.909-11.855-6.368,5.406-10.541,12.778-14.02,20.249-13.651,30.461-15.188,72.886-14.142,106.059h0Z"/>
      <path class="cls-22" d="m209.207,105.36c4.941-16.986,16.866-34.17,32.255-43.198,1.07-.596,2.149-1.169,3.23-1.721-1.304,1.183-2.78,2.432-4.127,3.564-12.95,11.698-22.801,26.222-31.357,41.355h0Z"/>
    </g>
    <g>
      <path class="cls-14" d="m433.423,126.875s7.496,12.045-2.541,47.102c0,0,11.938-15.633,8.767-42.029,0,0-2.008-12.771-9.525-23.118.641.384,21.186,12.686,26.033,27.304,2.926,8.82-.502,18.516-3.769,24.934-.192,1.014-.459,2.04-.801,3.086l-5.756,17.117,1.025-1.559,13.284-24.325s7.923-15.729-3.065-28.511c-10.849-12.622-37.352-28.02-38.004-28.393.406.641,17.907,28.5,5.691,73.071,0,0,11.298-16.904,8.66-44.678Z"/>
      <path class="cls-9" d="m430.124,108.829c7.517,10.347,9.525,23.118,9.525,23.118,0,0,15.975,12.226,12.739,29.119,3.268-6.418,6.695-16.113,3.769-24.934-4.848-14.618-25.393-26.92-26.033-27.304Z"/>
      <path class="cls-17" d="m398.427,198.444c1.045-33.159-.487-75.583-14.142-106.059-3.48-7.472-7.651-14.842-14.02-20.249,4.829,2.911,8.684,7.263,11.909,11.855,20.331,29.316,22.435,80.118,16.253,114.452h0Z"/>
      <path class="cls-22" d="m373.834,105.36c-8.556-15.132-18.408-29.658-31.357-41.355-1.345-1.129-2.821-2.379-4.127-3.564,1.081.553,2.16,1.125,3.229,1.721,15.389,9.029,27.311,26.205,32.255,43.197h0Z"/>
    </g>
    <ellipse class="cls-21" cx="225.259" cy="184.918" rx="11.969" ry="13.8"/>
    <ellipse class="cls-2" cx="324.989" cy="81.351" rx="7.146" ry="7.473"/>
    <ellipse class="cls-21" cx="361.846" cy="184.918" rx="12.11" ry="13.8"/>
    <ellipse class="cls-2" cx="263.824" cy="83.791" rx="12.198" ry="12.754"/>
    <g>
      <path class="cls-15" d="m242.72,156.263s13.518-3.027,10.279,13.377c0,0,4.084-9.747,4.928-29.128,0,0,5.351,16.596-.845,36.239,0,0,11.547-15.912,12.814-36.541,1.267-20.629-5.492-30.908-18.094-32.105,0,0-1.408-.422.774,4.788s3.593,9.153,4.049,15.7c0,0-8.485-18.869-25.101-13.095,0,0,14.574,4.224,16.757,15.348s-5.562,25.416-5.562,25.416Z"/>
      <path class="cls-31" d="m226.949,126.904s15.489-15.419,26.684,3.168c0,0,4.013,6.865,2.746,24.184,0,0-2.359-6.125-5.069-3.415s-8.378,11.054-17.179,8.942-9.927-13.377-17.883-15.348c0,0,1.655-8.484,10.702-17.531Z"/>
      <path class="cls-16" d="m229.202,134.907c-.261,2.843.049,5.646,1.288,7.765,2.449,4.102,8.765,5.765,13.226,4.794,2.396-.598,4.592-2.308,6.185-4.697-.415,2.86-2.446,5.623-5.395,6.911-4.393,1.795-9.593.68-13.313-2.132-3.858-2.884-4.367-8.899-1.992-12.64h0Z"/>
      <path class="cls-13" d="m229.202,134.907c-.841,5.768-.092,12.439,6.218,14.153,6.025,2.189,11.287-.945,14.481-6.292-.688,4.817-5.003,9.62-10.251,9.814-10.592.498-15.528-8.739-10.448-17.675h0Z"/>
      <ellipse class="cls-23" cx="241.51" cy="134.907" rx="3.398" ry="3.594"/>
    </g>
    <g>
      <path class="cls-15" d="m345.531,156.263s-13.518-3.027-10.279,13.377c0,0-4.084-9.747-4.928-29.128,0,0-5.351,16.596.845,36.239,0,0-11.547-15.912-12.814-36.541-1.267-20.629,5.492-30.908,18.094-32.105,0,0,1.408-.422-.774,4.788s-3.593,9.153-4.049,15.7c0,0,8.485-18.869,25.101-13.095,0,0-14.574,4.224-16.757,15.348-2.183,11.124,5.562,25.416,5.562,25.416Z"/>
      <path class="cls-31" d="m361.302,126.904s-15.489-15.419-26.684,3.168c0,0-4.013,6.865-2.746,24.184,0,0,2.359-6.125,5.069-3.415s8.378,11.054,17.179,8.942,9.927-13.377,17.883-15.348c0,0-1.655-8.484-10.702-17.531Z"/>
      <path class="cls-16" d="m359.049,134.907c2.374,3.742,1.867,9.756-1.992,12.64-3.719,2.813-8.919,3.927-13.312,2.132-2.949-1.288-4.979-4.051-5.395-6.911,1.593,2.389,3.789,4.099,6.185,4.697,4.461.971,10.777-.691,13.226-4.793,1.239-2.119,1.549-4.921,1.288-7.765h0Z"/>
      <path class="cls-13" d="m359.049,134.907c5.082,8.945.139,18.172-10.448,17.675-5.248-.195-9.564-4.996-10.251-9.814,3.197,5.348,8.454,8.481,14.482,6.292,6.31-1.715,7.058-8.384,6.218-14.153h0Z"/>
      <ellipse class="cls-23" cx="346.74" cy="134.907" rx="3.398" ry="3.594"/>
    </g>
    <ellipse class="cls-21" cx="293.355" cy="204.774" rx="28.642" ry="21.123"/>
    <path class="cls-20" d="m329.882,226.499c-.397,16.332-16.389,31.005-36.605,30.514s-37.002-15.96-36.605-32.292c.397-16.332,17.107-29.174,37.323-28.683s36.284,14.129,35.887,30.461Z"/>
    <path class="cls-21" d="m274.543,239.694c3.043-.817,5.666-1.459,7.491-4.075.695-.866,1.169-1.839,1.908-2.79,2.312,5.777-4.639,10.83-9.399,6.865h0Z"/>
    <path class="cls-21" d="m302.998,232.21c1.548,2.744,2.823,5.125,5.81,6.242,1.012.458,2.072.675,3.177,1.154-5.02,3.677-11.644-1.799-8.987-7.396h0Z"/>
    <path class="cls-4" d="m265.375,221.656s7.583-9.568,18.906-5.869,16.884-3.158,25.578-.85c8.695,2.307,12.132,6.72,12.132,6.72,0,0,.809-12.483-17.389-16.63-18.198-4.147-39.631,1.986-39.227,16.63Z"/>
    <path class="cls-21" d="m264.194,225.897s7.921-9.015,19.749-5.53,17.637-2.975,26.719-.801,12.673,6.331,12.673,6.331c0,0,.845-11.761-18.165-15.668-19.01-3.908-41.399,1.871-40.976,15.668Z"/>
    <ellipse class="cls-2" cx="319.997" cy="119.071" rx="10.87" ry="11.969"/>
    <rect class="cls-20" x="291.581" y="255.191" width="5.041" height="21.122"/>
    <g>
      <circle class="cls-31" cx="378.795" cy="439.9" r="19.96"/>
      <g>
        <g>
          <circle class="cls-26" cx="211.411" cy="404.631" r="19.854"/>
          <circle class="cls-26" cx="291.844" cy="395.916" r="12.079"/>
          <circle class="cls-26" cx="301.103" cy="453.937" r="12.079"/>
          <circle class="cls-26" cx="364.966" cy="376.589" r="12.079"/>
          <circle class="cls-26" cx="390.737" cy="398.769" r="7.178"/>
        </g>
        <circle class="cls-31" cx="345.097" cy="467.388" r="13.375"/>
        <circle class="cls-31" cx="329.873" cy="397.521" r="13.375"/>
        <circle class="cls-31" cx="370.135" cy="332.138" r="11.3"/>
        <circle class="cls-31" cx="262.076" cy="428.144" r="14.772"/>
        <circle class="cls-31" cx="319.005" cy="503.373" r="7.408"/>
        <circle class="cls-31" cx="247.303" cy="481.725" r="25.7"/>
        <circle class="cls-31" cx="242.127" cy="378.827" r="8.248"/>
        <ellipse class="cls-31" cx="216.986" cy="352.677" rx="13.535" ry="14.142"/>
        <ellipse class="cls-31" cx="337.113" cy="338.847" rx="14.805" ry="9.143" transform="translate(-82.818 567.145) rotate(-73.678)"/>
        <ellipse class="cls-31" cx="257.141" cy="346.662" rx="9.903" ry="17.896" transform="translate(-138.88 175.014) rotate(-30)"/>
      </g>
    </g>
    <g>
      <path class="cls-3" d="m143.438,365.622c8.378,0,16.405-7.367,16.017-16.017-.389-8.678-7.038-16.017-16.017-16.017-8.378,0-16.405,7.367-16.017,16.017s7.038,16.017,16.017,16.017h0Z"/>
      <path class="cls-3" d="m124.006,312.994c16.49,0,16.518-25.628,0-25.628s-16.518,25.628,0,25.628h0Z"/>
      <path class="cls-3" d="m101.617,280.308c10.306,0,10.323-16.017,0-16.017s-10.323,16.017,0,16.017h0Z"/>
      <path class="cls-3" d="m152.52,280.22c12.368,0,12.388-19.221,0-19.221s-12.388,19.221,0,19.221h0Z"/>
      <path class="cls-3" d="m103.518,371.008c8.245,0,8.259-12.814,0-12.814s-8.259,12.814,0,12.814h0Z"/>
      <path class="cls-31" d="m133.088,404.345c4.123,0,4.129-6.407,0-6.407s-4.129,6.407,0,6.407h0Z"/>
      <path class="cls-3" d="m184.625,290.936c5.772,0,5.781-8.97,0-8.97s-5.781,8.97,0,8.97h0Z"/>
      <path class="cls-3" d="m89.366,330.208c4.123,0,4.129-6.407,0-6.407s-4.129,6.407,0,6.407h0Z"/>
      <path class="cls-31" d="m136.89,383.85c3.298,0,3.304-5.126,0-5.126s-3.304,5.126,0,5.126h0Z"/>
      <path class="cls-31" d="m133.088,243.398c4.123,0,4.129-6.407,0-6.407s-4.129,6.407,0,6.407h0Z"/>
    </g>
    <g>
      <circle class="cls-30" cx="133.088" cy="227.732" r="5.21"/>
      <circle class="cls-24" cx="108.728" cy="333.587" r="4.365"/>
      <circle class="cls-8" cx="166.883" cy="294.583" r="3.52"/>
      <circle class="cls-28" cx="185.437" cy="307.256" r="2.779"/>
    </g>
    <g>
      <circle class="cls-4" cx="425.857" cy="353.759" r="12.955"/>
      <circle class="cls-4" cx="471.621" cy="331.37" r="12.955"/>
      <circle class="cls-4" cx="460.356" cy="278.988" r="22.107"/>
      <circle class="cls-4" cx="479.365" cy="364.742" r="6.477"/>
      <circle class="cls-4" cx="493.869" cy="243.503" r="7.181"/>
      <circle class="cls-4" cx="497.512" cy="327.427" r="2.535"/>
      <circle class="cls-4" cx="402.623" cy="281.839" r="2.059"/>
      <circle class="cls-4" cx="460.074" cy="230.901" r="2.007"/>
      <circle class="cls-11" cx="450.992" cy="385.652" r="8.73"/>
      <circle class="cls-11" cx="451.308" cy="416.508" r="5.122"/>
      <circle class="cls-11" cx="439.586" cy="326.952" r="3.115"/>
      <circle class="cls-18" cx="426.191" cy="303.454" r="4.383"/>
    </g>
    <path class="cls-9" d="m440.462,131.893s3.233,3.838,3.233,11.608c0,0,3.684-2.699,2.259-8.553s-5.492-3.055-5.492-3.055Z"/>
    <path class="cls-9" d="m142.44,132.737s-3.233,3.838-3.233,11.608c0,0-3.684-2.699-2.259-8.553s5.492-3.055,5.492-3.055Z"/>
  </g>
</svg>